<?xml version="1.0" encoding="UTF-8"?>
<svg id="Layer_1" xmlns="http://www.w3.org/2000/svg" version="1.1" viewBox="0 0 113.4 113.4">
  <!-- Generator: Adobe Illustrator 29.2.1, SVG Export Plug-In . SVG Version: 2.1.0 Build 116)  -->
  <defs>
    <style>
      .st0 {
        fill: #2d3483;
      }
    </style>
  </defs>
  <path class="st0" d="M102.4.5c5.9,1.2,9.8,4.7,11.1,10.6v92.2c-1.5,5.9-5.1,9.4-11.1,10.6h-35.9v-38.3h14.7c.3-5.3,2.9-12.5,2.8-17.6s0-.7-.5-1h-17v-12.3c0-1,1.3-4.6,2-5.5s4.2-3.3,5.3-3.3h10.9v-15.6c-13-1.9-28.9-3-35.3,11s-2.2,5.6-2.2,6.4v19.4h-16.2v18.6h16.2l-.5,38.3H10.8c-5.6-1.4-9-4.5-10.6-10.1V10.5C1.5,6.4,3.7,3,7.9,1.4l2.9-.9h91.6Z"/>
</svg>