<?xml version="1.0" encoding="UTF-8"?>
<svg id="Layer_1" xmlns="http://www.w3.org/2000/svg" version="1.1" viewBox="0 0 432.1 374.2">
  <!-- Generator: Adobe Illustrator 29.3.1, SVG Export Plug-In . SVG Version: 2.1.0 Build 151)  -->
  <defs>
    <style>
      .st0 {
        fill: #2c3583;
      }
    </style>
  </defs>
  <path class="st0" d="M148.2,269.9h0c0,.1,0-.1,0-.1h0v-.9,1ZM148.2,269.9h0c0,.1,0-.1,0-.1h0v-.9,1ZM148.2,269.9h0c0,.1,0-.1,0-.1h0v-.9,1ZM148.2,269.9h0c0,.1,0-.1,0-.1h0v-.9,1ZM148.2,269.9v.5-.6h0v-.9,1ZM148.2,269.9v.5-.6h0v-.9,1ZM148.2,269.9v.5-.6h0v-.9,1ZM148.2,269.9v.5-.6h0v-.9,1ZM148.2,269.9v.5-.6h0v-.9,1ZM148.2,269.9v.5-.6h0v-.9,1ZM148.2,269.9v.5-.6h0v-.9,1ZM148.2,269.9v.5-.6h0v-.9,1ZM148.2,269.9v.5-.6h0v-.9,1ZM148.2,269.9v.5-.6h0v-.9,1ZM148.2,269.9v.5-.6h0v-.9,1ZM148.2,269.9v.5-.6h0v-.9,1ZM148.2,269.9v.5-.6h0v-.9,1ZM148.2,269.9v.5-.6h0v-.9,1ZM148.2,269.9v.5-.6h0v-.9,1ZM148.2,269.9v.5-.6h0v-.9,1ZM148.2,269.8v.6-.6h0ZM324.2.4H108.1L.1,187.5l108,187.1h216.1l108-187.1L324.2.4h0ZM317.9,363.7H114.5L12.8,187.5,114.5,11.3h203.4l101.7,176.2-101.7,176.2h0ZM315.2,16.1H117.2L18.2,187.5l99,171.4h198l99-171.4L315.2,16.1h0ZM275.5,92.4v-.2s0-.2.1-.2c0,0,0-.2.1-.2.1-.2.3-.4.5-.7,0,0,.1-.2.2-.2h0c0,0,0-.1.1-.2,0,0,.2-.2.3-.3.2-.2.4-.4.7-.6.2,0,.4-.3.6-.4s.4-.3.6-.4c.3-.2.6-.4.9-.5.2,0,.5-.2.7-.4.2,0,.5-.2.7-.3.3,0,.5-.2.8-.4s.5-.2.8-.3c.2,0,.5-.2.7-.2s.4,0,.6-.2l1.2-.3h2.5c.2,0,.4,0,.6.2.3.3.4.7.2,1.1v.2s0,0-.1.2c0,.2-.2.3-.3.5l-.6.6-.3.3c-.2.2-.5.4-.8.6-.1,0-.3.2-.4.3-.3.2-.6.4-.9.6-.6.4-1.2.8-1.9,1.2h-.1c-.4.3-.9.5-1.3.7-.2,0-.4.2-.5.3-.2,0-.4.2-.6.3-.4.2-.8.4-1.1.5-.2,0-.4.2-.6.2s-.3,0-.4.2-.1,0-.2,0c-.3,0-.5,0-.7.2s-.3,0-.5,0,0,0-.1,0h-.2s-.1,0-.2,0h-.1s-.1-.2-.2-.3l-.3-.3v-1l-.5-.5h0ZM268.3,95.5h3.3c.4,0,.8,0,1.2,0v4.5c0,.4,0,.8-.2,1.2,0,.4-.1.8-.2,1.2-.2,1.3-.6,2.5-1,3.6,0,.2-.2.5-.3.7,0,0-.1.3-.2.4,0,0-.1.3-.2.4,0,.2-.2.4-.3.6,0,.2-.2.3-.3.5-.1.2-.2.4-.4.6-.1.2-.3.4-.4.6-.2.2-.3.4-.5.6v.2h-.2v.2h-.1c-.2.2-.3.4-.5.6-1,1-2.2,1.8-3.7,2.4-.2,0-.4.2-.6.3-.2,0-.4,0-.6.2-.1,0-.3,0-.4,0h0c-.2,0-.4,0-.6,0s-.4,0-.7.2c-.2,0-.5,0-.7,0h-1.2v-5.1l-3.4,1.7c0-.9.1-1.8.2-2.6,0-.2,0-.5.1-.7,0-.2,0-.4.1-.6v-.3c0-.3.1-.6.2-.8.1-.5.2-.9.4-1.4.1-.3.2-.6.4-.9v-.2c.1-.3.3-.6.4-.9.3-.5.5-1.1.9-1.6.1-.2.3-.4.4-.6h0s.1-.2.2-.3c.2-.3.4-.6.7-.8,0,0,.2-.2.2-.3l.9-.9c.2-.2.3-.3.5-.4s.3-.3.5-.4.4-.2.5-.4c.2,0,.4-.2.6-.3.2,0,.4-.2.6-.3.2,0,.4-.2.6-.3.2,0,.4-.2.6-.2s.4,0,.7-.2c.2,0,.5,0,.7-.2.3,0,.6,0,.9-.2.3,0,.6,0,.9,0h0ZM248.4,166.9h0v1.5h0v.7c0,.2,0,.3-.1.5h0c0,0,0,.1-.1.1-.1,0-.2.1-.3.2h-.2s-.2,0-.3.1h-.1s-.2,0-.2.1h0s-.1.1-.1.2c-.1.5-.2,1-.3,1.5,0,.3,0,.7-.1,1.1,0,.4,0,.9-.1,1.3v1.3c0,.3,0,.6-.1.9,0,.4-.2.8-.3,1.1,0,.1,0,.3-.1.4,0,0,0,.2-.1.3-.1.3-.2.6-.4.9-.2,0-.5-.2-.7-.2-.4-.1-.8-.3-1.1-.5h-.1c-.1,0-.2-.1-.3-.2-.1,0-.2-.1-.3-.2-.2-.1-.4-.3-.5-.4l-.2-.2-.2-.2s-.2-.2-.2-.3c-.1-.1-.2-.3-.3-.5,0,0-.1-.2-.2-.3,0-.1-.1-.3-.2-.4,0-.1,0-.3-.1-.4,0-.2,0-.3-.1-.5v-1c0-.8,0-1.6.1-2.4,0-.7.2-1.4.2-2.1v-.6c0-.9.1-1.7,0-2.5v-.7c0-.3,0-.4-.1-.7-.1-.4-.2-.8-.4-1.2,0-.2-.2-.4-.2-.6-.2-.4-.4-.8-.5-1.1,0-.2-.2-.4-.3-.6-.3-.7-.6-1.3-.9-2,0-.1-.1-.3-.1-.4,0-.3-.2-.5-.2-.8v-1.8h0c0-.2,0-.4.1-.7v-.2c0-.2.1-.4.2-.6,0-.2.2-.4.2-.6s.2-.3.2-.5.2-.3.3-.5c0-.1.2-.3.3-.4.3,0,.6,0,.9.1h.8c.2,0,.5.2.8.3h.3c.5.2.9.5,1.3.8,0,0,.2.1.3.2,0,0,.1,0,.2.2.1,0,.2.2.3.3.2.1.3.3.5.5l.4.4c.1.1.2.3.4.5.3.4.6.8.9,1.2,0,0,.1.2.2.3,0,.2.2.4.3.5,0,.1.1.2.2.3,0,0,0,.1.1.2,0,0,0,.1.1.2.1.2.2.4.3.6.1.2.2.5.3.8,0,.2.1.3.2.5.2.5.3.9.4,1.4,0,.2.1.5.2.7v.6c0,.2,0,.4.1.6h0c0,.5.1.9.1,1.3v.4h0l-1.1,1.2h0ZM252.9,202.3h-.9c-.1,0-.2,0-.3-.1h0c-.2,0-.3-.2-.5-.3-.1,0-.2-.2-.4-.3-.4-.4-.7-.9-.9-1.5v-1.9c0-.1,0-.2.1-.4,0-.1,0-.2.1-.4.2-.5.4-1.1.5-1.6v-.6c2,.3,4.4,5.8,3.4,6.8s-.8.4-1.3.4h.2,0ZM253.3,236.5v2.1c0,.4,0,.7-.1,1.1,0,.4-.1.8-.2,1.2,0,.4-.1.8-.2,1.2l-.2.8s-.2,0-.4-.1c0,0-.2-.1-.3-.2-.7-.5-1.7-1.4-1.9-1.8-.2-.3-.4-.9-.5-1.6,0-.2,0-.4-.1-.6-.3-1.6-.5-3.6-.7-5.3v-2.8c0-.6-.1-1.2,0-1.7v-.2h0v-.4h0v-.2s0-.1.1-.2h0v-.2s0-.1.2-.2h.1c0-.1.1-.2.2-.3l.3-.3.5.5.5.5c.2.2.3.3.4.5s.2.3.4.5c.1.2.2.3.3.5s.2.4.3.6c0,.1.1.2.2.4.2.3.3.7.4,1,.1.4.3.8.4,1.2v.2c.2.8.3,1.6.4,2.5v1.4h0ZM250.8,216.8c.1.2.3.4.4.6,0,.1.1.2.2.4,0,.1.1.2.1.3h0v.8c-2.7,1.2-8.2,1-10.3-1.2-1.4-1.5,2.9-5.8,1.8-8.1h.6s.2,0,.3.1c1,.5,2.5,1.9,3.9,3.4l.6.6s.1.1.1.2c.2.2.4.4.5.6.7.8,1.2,1.6,1.7,2.2h0ZM242.3,236.9c0,.2.1.3.2.5,0,0,0,.1.1.2.3.5.8.9,1.2,1.3.1.1.2.2.3.4,0,0,.1.1.1.2s.2.3.2.4v.9c.2,1.4-.3,2.9-.8,4.4-.1.4-.3.8-.4,1.2,0,.2-.1.5-.2.7,0,.3-.2.6-.2.9h0c0,.3-.1.6-.2.9h-.3c-.1,0-.3,0-.5-.1-.4,0-.8-.3-1.3-.5-.2-.1-.5-.2-.8-.4-1-.5-2.1-1-3.1-1.7-.2-.1-.4-.2-.6-.3-.4-.2-.8-.5-1.2-.7s-.4-.2-.5-.3c-.2-.2-.5-.3-.7-.4s-.4-.3-.6-.4c-.3-.2-.6-.4-.8-.6-.5-.4-.8-.7-1-.9s-.2-.3-.4-.4c-.2-.3-.5-.7-.8-1.1-.1-.2-.2-.4-.4-.6-.1-.2-.2-.4-.3-.6-.1-.2-.2-.4-.3-.6-.1-.2-.2-.4-.3-.7-.2-.4-.4-.9-.5-1.4,0-.1,0-.2-.1-.4,0-.3-.2-.6-.2-.9h0c0-.3-.1-.5-.2-.8,0-.3,0-.6-.1-.9v-2.2c0-.3.1-.5.2-.8v-.4c0-.1.1-.3.2-.4,0-.1.1-.2.2-.4,0-.1.2-.3.3-.4.1-.2.3-.3.4-.5l.2-.2s.2-.2.3-.2l2.6,1.6h0c.6-1.1,1.3-2,1.9-2.8,0,0,.1-.2.2-.2.1-.2.3-.3.4-.4.3-.3.5-.5.8-.7.2-.1.3-.2.5-.3,0,0,.2-.1.3-.2h0s.2-.1.3-.1c.2,0,.3-.2.5-.2,0,0,.2,0,.3-.1.1,0,.3,0,.4-.1h1.8c.2,0,.4,0,.5.1.2,0,.4.1.6.2h.4c.1,0,.2.1.3.2.2.1.4.2.6.4,0,0,.1,0,.2.2l.3.3.2.2h0c-.1-.1,0,0,0,0l.5.5c.2.2.4.5.5.7s.2.4.4.5c.2.2.3.5.4.7,0,.1.1.2.2.3h0v.2c0,.1,0,.2.1.3,0,.2.2.4.3.7,0,.2.1.3.2.5,0,.2.1.3.2.5,0,.3.2.7.3,1,0,.4.2.8.2,1.2v.6h0v3.6l-4.2-1.7v.3c0,.2,0,.5.1.7l.6-.5h0ZM208.9,286.2h1.5c.2,0,.4,0,.5.2h.4c.5.3.9.7,1.3,1.1.1,0,.2.2.3.4.2.3.5.5.8.8l.2.2c.7.7,1.4,1.2,2.3,1.4.9,0,1.6-.7,2.3-1.4l.2-.2c.2-.3.5-.5.7-.8.1,0,.2-.2.3-.4.4-.4.8-.8,1.3-1.1h.4c.2,0,.3,0,.5-.2h1.5c.7,2.5,1,4.9.9,7.2v.5c0,.4,0,.9-.1,1.3v1.1c0,.2,0,.4-.1.6,0,.3-.1.5-.2.8,0,.2,0,.4-.1.5,0,0,0,.3-.1.4,0,.2-.1.4-.2.6,0,.2-.1.4-.2.6,0,0,0,.2-.1.3,0,.2-.1.4-.2.6-.1.3-.2.6-.3.8,0,0-.2.3-.2.5-.9,1.8-2,3.6-3.4,5.2-.3.3-.5.6-.8,1-.1.2-.3.3-.4.5-.2,0-.3.3-.5.5-.1.2-.3.3-.5.5-.1.2-.3.3-.5.4-.2,0-.3-.3-.5-.4-.2,0-.3-.3-.5-.5l-.5-.5c-.2,0-.3-.3-.4-.5-.3-.3-.6-.6-.8-1-1.3-1.6-2.5-3.4-3.4-5.2,0-.2-.2-.3-.2-.5-.1-.3-.2-.6-.4-.8,0-.2-.2-.4-.2-.6s0-.2-.1-.3c0-.2-.1-.4-.2-.6s-.1-.4-.2-.6c0,0,0-.3-.1-.4,0-.2-.1-.4-.1-.5,0-.3-.1-.6-.2-.8,0-.2,0-.4-.1-.6v-1.1c0-.4,0-.9-.1-1.3v-.5c0-2.3.2-4.7.9-7.2h-.4,0ZM208.9,257.3c3-.4,5,4.1,7.3,4.3h0c2.3-.2,4.3-4.8,7.3-4.3,1.8,6.8,1,13.1-2.7,19-1.2,2-4.3,3.5-4.6,6.1-.3-2.5-3.3-4-4.6-6.1-3.7-5.9-4.5-12.3-2.7-19h0ZM224.3,242.8l-3.4-.9c.1.7.2,1.3.2,1.9s0,.3,0,.5v.3c0,.4,0,.7-.2,1v.2c0,.2-.1.4-.2.7,0,.2-.1.4-.2.6h0c0,.1,0,.2-.1.3,0,0,0,.1-.1.2,0,.2-.2.3-.3.5,0,.2-.2.3-.3.5s-.2.4-.4.5c-.8,1.1-1.9,2.1-3,3.1-1.2-1-2.2-2-3-3.1-.1-.2-.2-.3-.4-.5-.1-.2-.2-.3-.3-.5s-.2-.3-.3-.5v-.2s0-.2-.2-.3h0c0-.2-.2-.4-.2-.6s-.1-.4-.2-.7v-.2c0-.3-.1-.7-.2-1v-.8c0-.6,0-1.2.2-1.9l-3.4.9c-.6-3.3-1.2-6.4-.9-9.8.2-1.9,1.5-7.4,4.2-6l4.7,3.3,4.7-3.3c2.8-1.5,4.1,4.1,4.3,6,.3,3.4-.2,6.5-.9,9.8h-.1ZM190.2,236.6h0v-.3h0l-4.2,1.7v-2.7c0-.4,0-.7.1-1.1,0-.4.1-.7.2-1.1,0-.4.2-.7.2-1s.1-.4.2-.6c0-.2.1-.3.2-.5.2-.5.4-1,.6-1.4,0-.1.1-.3.2-.4,0-.2.2-.3.2-.4s.2-.3.2-.4c.1-.2.3-.4.4-.6.2-.2.4-.5.5-.7h0l.3-.3.3-.3.3-.3c.1,0,.2-.2.3-.2.2-.1.3-.2.4-.3.2,0,.3-.2.5-.2,0,0,.2,0,.2-.1h.2c.2,0,.5-.1.7-.2h1.1c.4,0,.7,0,1.1.2.2,0,.4.1.6.2.1,0,.2.1.3.1s.3.2.4.2.3.2.4.3c.4.2.7.6,1.1.9l.9.9c.6.7,1.2,1.5,1.7,2.5h0l2.6-1.6c4,3.4,1.3,10.8-1.6,14.1-.3.4-1.1.9-2,1.6-.2.1-.5.3-.7.4-.8.5-1.7,1.1-2.6,1.6-.2.1-.4.2-.6.4-.9.5-1.8,1-2.7,1.4-.3.1-.5.2-.8.4-.5.2-.9.4-1.3.5-.2,0-.4,0-.5.1h-.4c-.3-2.5-2.1-5.6-1.7-8v-.4c0-.1,0-.2.1-.3h0s0-.2.1-.3c0,0,.1-.2.2-.2.2-.4.6-.7.9-1,.2-.1.3-.3.4-.5.2-.1.3-.3.4-.5h0s0-.2.1-.3v-.5h0l.5-.8h0ZM133.1,235.1c.2-.5.4-1,.6-1.5.2-.4.3-.7.5-1.1.2-.3.4-.7.5-1,.2-.4.5-.8.7-1.2,0,0,.1-.2.2-.3.2-.3.4-.6.7-.9,0-.1.2-.2.2-.3.1-.1.2-.3.3-.4,0-.1.2-.2.3-.4l.2-.2c.2-.2.3-.4.5-.5.3-.3.6-.6.9-.8.1-.1.3-.2.4-.3.2-.2.4-.3.5-.4.2-.2.5-.3.7-.5.1,0,.2-.2.4-.2.2-.1.3-.2.5-.3.5-.3,1.1-.6,1.6-.8.2,0,.4-.2.6-.2s.4-.2.6-.2.4-.1.6-.2c.2,0,.4-.1.6-.2.8-.2,1.5-.4,2.4-.5.4,0,.8-.1,1.1-.1h4.8c.2,1.2.3,2.3.3,3.5s0,.5,0,.8v2.1c0,.4-.1.8-.2,1.2,0,.3-.1.6-.2.9,0,.4-.2.8-.4,1.2,0,.2-.2.4-.2.6s-.2.5-.3.7c-.1.3-.3.6-.4.9-.2.4-.4.8-.6,1.1,0,.2-.2.3-.3.5-.5.7-1,1.4-1.6,2l-.5.5-.3.3-.3.3c-.2.2-.5.4-.7.5-.3.2-.5.4-.8.5-.3.2-.5.3-.8.4-.5.2-.9.4-1.4.6-.2,0-.4.2-.6.2s-.2,0-.4.1c-.2,0-.4.1-.6.2-.2,0-.4.1-.7.2-.3,0-.5,0-.8.1h-3.8l3.4-8.5-7.7,1.7h-.5ZM139.4,151c0,.2.1.4.2.6,0,0,0,.1.1.2,0,0,0,.1.2.2,0,0,0,.1.2.2l.2.2.2.2s.2.1.2.2h0c.1,0,.3.2.4.3.1,0,.2.1.3.2.2,0,.3.2.5.3.3.1.5.3.8.4.2.1.3.2.5.3.2,0,.3.2.5.3s.4.3.6.4l.2.2s.1,0,.2.2c0,0,0,.1.1.2,0,.1.1.2.2.3v.2h-2.3c-.6,0-1.2,0-1.7-.1-.3,0-.6,0-.9-.2-.4,0-.8-.1-1.2-.3-.2,0-.4,0-.5-.1-.5-.1-1-.3-1.5-.4-.3,0-.5-.2-.8-.3-1.1-.4-2.2-.9-3.3-1.5-.3-.1-.5-.3-.8-.4s-.5-.3-.8-.4-.5-.3-.8-.5c-1.6-1-3.2-2.1-4.8-3.2-.5-.3-.9-.7-1.4-1,0,0,0,0-.2-.1-.6-.5-1.3-.9-1.9-1.4-.2-.2-.5-.3-.7-.5s-.5-.3-.7-.5c-.5-.3-.9-.7-1.4-1,17-2.8,32.9,4.8,48.5,10.2h0v.4h-.1c0,0,0,.1-.1.2-.1,0-.1,0-.2.1,0,0-.2,0-.2.1-.2,0-.3,0-.5.1h-5.1c-.7,0-1.4-.1-2.1-.2h-1c-.7,0-1.4-.2-2.1-.2s-1.1-.1-1.6-.2c-.8-.1-1.5-.2-2.2-.4-.8-.1-1.7-.3-2.5-.5-.3,0-.5-.1-.8-.2-.3,0-.6-.1-.8-.2-.3,0-.5-.1-.8-.2-.4,0-.8-.2-1.2-.3-.8-.2-1.6-.5-2.4-.8-.3-.1-.6-.2-1-.3-.7-.2-1.3-.5-2-.7-.5-.2-1.1-.4-1.6-.7-.1.3-.2.5-.2.7v.3-.4h.1ZM140.9,164.4h0s.1-.2.2-.3c.1-.1.2-.3.3-.4.2-.3.5-.5.7-.8.2-.2.4-.4.7-.6.5-.4.9-.8,1.4-1.1.2-.2.5-.3.8-.5,0,0,.2-.1.3-.2,0,0,.2-.1.3-.2.1,0,.2-.1.4-.2s.4-.2.6-.3c.3-.1.6-.2.8-.3.5-.2,1.1-.4,1.7-.6h.4c.2,0,.4-.1.7-.2.3,0,.5-.1.8-.2h.6c.3,0,.6,0,.9-.1h2.1c6.8-.2,14.2,2,19.3,4.9-2.3,2.7-5.8.3-8.9.4h-.8c-.2,0-.5,0-.7.1-.4,0-.8.2-1.2.2s-.5.1-.7.2h0c-.3,0-.5.1-.8.2h-3.5c-5.5,0-11-.2-16.5,0h0c0-.1,0,0,0,0h0ZM174,169.6c-4.4,5.1-12.8,3.5-18.7,2.5,1.8-4,17.5-4.2,18.7-2.5ZM151.5,175.2h2c.8,0,1.7.1,2.6.3,0,0-.1.2-.2.3-.6.8-1.9,1.7-3.6,2.8-.2.1-.3.2-.5.3-.4.3-.9.5-1.3.8-.3.2-.6.3-.9.5-.6.3-1.2.7-1.8,1-.3.2-.6.3-1,.5-.1,0-.3.1-.4.2-.2.1-.4.2-.6.3-.2,0-.3.2-.5.2-.3.2-.7.3-1,.5s-.7.3-1,.5c-.5.2-1,.5-1.5.7-.3.1-.7.3-1,.4h0c-.3.2-.6.3-1,.4-.1,0-.2,0-.3.1-.2.1-.4.2-.7.3-.9.4-1.8.7-2.6,1-.2,0-.4.1-.6.2-.2,0-.4.1-.6.2-.3.1-.7.2-1,.3-.2,0-.5.1-.7.2h-.4c-.3,0-.6.1-.8.1h-.9c1.2-2,2.4-3.7,3.7-5.2.2-.2.4-.4.6-.7.6-.6,1.1-1.1,1.7-1.6.3-.2.6-.5.9-.7.3-.2.6-.4.9-.7.5-.4,1-.7,1.5-.9.2-.1.5-.3.7-.4.3-.1.5-.3.8-.4h0c.3-.1.6-.2.9-.4.2,0,.5-.2.7-.2s.3,0,.5-.1c.3-.1.6-.2,1-.3.2,0,.5-.1.7-.2.6-.1,1.2-.2,1.8-.3h3.9ZM151,184.1c-.4.5-.8,1-1.2,1.5s-.9,1-1.3,1.5c-.4.5-.9,1-1.3,1.5l-.7.7-.7.7c-.5.5-1,.9-1.5,1.3-.3.3-.6.5-.9.8s-.6.5-.9.7c-.2.2-.5.4-.7.5-.3.2-.6.4-.9.6-.8.6-1.6,1.1-2.5,1.6-.3.2-.5.3-.8.5-.7.4-1.4.7-2.1,1-.2.1-.5.2-.7.3s-.4.2-.7.3c-.2,0-.4.2-.6.2-.3.1-.5.2-.8.3-.2,0-.4.1-.5.2-.3,0-.6.2-.9.2s-.4.1-.6.1c-.4,0-.7.2-1.1.2s-.8.1-1.2.2c-.8.1-1.6.2-2.5.2-1.3,0-2.7,0-4-.1l5.3-7.1,23.6-8.2.2.3h0ZM151,199.5c-.4.1-.8.2-1.3.3s-1,.2-1.5.3c-.4,0-.7.2-1.1.2s-.8.1-1.2.2c-.4,0-.8.1-1.2.2-.8.1-1.5.2-2.3.3l.4-.9.3-.7,1-2.2c.2-.2.3-.3.5-.4.2-.2.3-.3.5-.4.2-.2.5-.4.7-.6.4-.3.8-.6,1.2-.9.4-.2.7-.5,1.1-.7,0,0,.1,0,.2-.1.5-.3,1-.6,1.5-.9,1.5-.8,3.2-1.6,4.8-2.3.6-.2,1.1-.5,1.7-.7.5-.2.9-.4,1.4-.6s1-.4,1.4-.5c1.4-.5,2.9-1.1,4.3-1.6.5-.2.9-.4,1.4-.6,1-.4,1.9-.8,2.9-1.2.2-.1.5-.2.7-.3.4-.2.8-.4,1.2-.6-.1.3-.2.6-.4.8-.1.2-.2.5-.4.7-.3.7-.7,1.3-1.1,1.9-.2.3-.3.5-.5.8-.1.2-.2.4-.4.5-.7,1-1.6,1.9-2.4,2.7-.2.2-.4.3-.5.5-.3.2-.5.5-.8.7-.8.7-1.7,1.3-2.6,1.9s-.6.4-.9.5c-.3.2-.6.4-.9.5-.2.1-.4.2-.6.3-.4.2-.8.4-1.1.6-.5.2-.9.4-1.4.6-.4.2-.9.4-1.3.5-.3.1-.6.2-.9.3-.5.2-1,.3-1.5.5-.3,0-.7.2-1,.3h.1ZM168.7,181.1c-.7.5-1.5,1-2.3,1.5-.4.2-.8.5-1.2.7l-.6.3c-.2.1-.4.2-.6.3-.4.2-.8.4-1.1.6-.4.2-.9.4-1.3.7-2.1,1.1-4.2,2-6.3,3-.6.3-1.2.6-1.8.9s-1.2.6-1.7.9c-.6.3-1.1.6-1.7.9h0v-.7c.1-.4.4-.9.9-1.5.1-.1.2-.3.4-.5.1-.2.3-.4.4-.6.6-.7,1.2-1.5,1.9-2.2.2-.3.5-.6.8-.9.4-.5.9-.9,1.3-1.4l.3-.3.3-.3.3-.3c.1,0,.2-.2.3-.3l.3-.3.5-.5c.6-.6,1.1-1,1.4-1.2.4-.2.8-.5,1.1-.7,0,0,.2,0,.2-.1.2,0,.3-.2.5-.2s.2-.1.3-.2c.2,0,.4-.2.6-.3.2,0,.3-.1.5-.2.3-.1.7-.2,1-.3.2,0,.3,0,.5-.1.3,0,.5-.1.8-.2h.3c.2,0,.5,0,.7-.1.5,0,.9-.1,1.4-.2.5,0,1,0,1.4-.1h4.5l-.6.6c-.4.4-.8.8-1.2,1.1-.4.4-.8.7-1.3,1.1-.4.3-.9.7-1.3,1h.1ZM181.7,180.7c-.8,7.1-5,9.3-11.1,11.9-1-3.2,9.8-13.2,11.1-11.9ZM181.6,195.1c0,.8.4,1.6.6,2.4.1.3.2.6.2,1v1.8h0v.2s0,.1-.1.2h0c0,.2-.1.3-.2.4,0,.1-.2.2-.3.3,0,0-.1,0-.2.1-.2.2-.5.3-.7.4-.1,0-.2.1-.3.1s-.2,0-.3.1c-.3,0-.7.1-1,0h-.3c-.2,0-.4-.2-.5-.3-1-1,1.3-6.5,3.4-6.8h-.3,0ZM182.9,226.6c1.2.8,1.3,1.6,1.3,2.6v1.6h0v2.2h0c0,.5,0,1-.2,1.5v2c0,.3,0,.5-.1.8,0,.2,0,.5-.1.7,0,.2,0,.5-.1.7,0,.3-.1.5-.2.7v.8c0,.1,0,.3-.2.4-.1.2-.6.7-1,1.1-.1,0-.2.2-.3.3-.2.2-.4.3-.6.4,0,0-.2.1-.3.2-.2.1-.4.2-.4.1-1.4-5.4-1.5-12.2,3-16.2h-.8,0ZM180.8,219v-.7h0c0-.2,0-.3.1-.4,0-.1.1-.2.2-.4.1-.2.2-.4.4-.6.2-.3.5-.7.8-1.1.2-.2.4-.5.6-.8,0-.1.2-.3.3-.4.2-.3.4-.5.7-.8.4-.5.8-.9,1.2-1.3l.2-.2.5-.5c.5-.5,1-1,1.5-1.3.2-.2.4-.3.6-.4.4-.2.7-.4,1-.5h.4c0,.1-.1.3-.1.4v1.7c.1.3.2.7.4,1,0,.1,0,.2.2.3.1.2.2.5.4.8,0,.1.1.3.2.4.3.6.5,1.1.7,1.6,0,.1,0,.2.1.4.2.6.2,1.1-.2,1.5-2.1,2.2-7.6,2.4-10.3,1.2h.1ZM182.4,119.9h0v.2l.2.2c.1,0,.3.3.4.5.4.5.8,1,1.1,1.6,0,0,.2.3.2.4s.2.3.2.4.2.3.2.4c.3.5.6,1.1.9,1.7.1.3.2.5.4.8.1.3.3.6.4.9s.2.6.3.8c0,.3.2.6.2.8s0,.3.1.4c0,.3.1.6.2.8v1.3c0,.4-.1.9-.3,1.4,0,.2-.1.4-.2.7-.2.6-.4,1.2-.6,1.7,0,.2-.2.5-.3.7-.2.3-.3.7-.5,1-.1.2-.3.4-.4.6-.7.9-1.6,1.6-2.6,1.8h-1.3c-.2,0-.3-.1-.5-.2-.3-.1-.5-.2-.8-.4-6.3-4.1-8.7-12-7.7-19.1l3.4.9c-1.6-6,4.6-2.3,6.7-.3h.3ZM185.2,161c0-.2.2-.5.3-.7,0-.2.2-.5.3-.7s.2-.4.3-.7c.1-.2.2-.4.4-.6,0-.1.2-.3.2-.4.2-.3.4-.6.6-.8.1-.2.2-.3.4-.4,0-.1.2-.2.3-.3.2-.2.3-.4.5-.5l.4-.4c.4-.3.8-.6,1.2-.9.1,0,.3-.2.4-.2s.3-.1.4-.2c.8-.4,1.6-.6,2.5-.6,3.9,5.6-1.1,8.2-1.6,13.2-.5,4.9,3.1,10.7-4.3,13.1-1.5-2.7-1.1-6.3-1.8-8.8-.2-.7-1.5-.6-1.7-1.2-.2-1-.3-2.2-.3-3.4v-.8h0c0-.4,0-.6.1-.9,0-.3.1-.6.2-.9,0-.4.2-.8.3-1.1,0-.2.1-.4.2-.6.1-.4.3-.8.4-1.1h.3ZM227.9,179.2l.2.2.4.4c.1.1.2.3.3.4.3.3.6.7.8,1.1.1.2.3.4.4.7s.3.5.4.7c.2.4.4.8.5,1.2,0,.2.2.4.3.7.3.9.6,1.7.8,2.5v2.9h.8s.2,0,.2-.1c0,0,.2-.1.2-.2.1,0,.2-.2.3-.3,0,0,0-.1.1-.2,0-.1.2-.3.3-.5,0-.1.2-.3.3-.4,0,0,.1-.2.2-.3.1-.1.2-.2.4-.3h.6s0,0,0,0c-.1,0,0,0,.1,0,.4,0,.9,0,1.5.1l.9,1.7,1.7-5.1c.2.3.4.6.5,1,0,.2.2.3.2.5.1.3.2.7.3,1,0,.1,0,.3.1.4h0v.4c0,.2,0,.5.1.7v3.2h0c0,.3,0,.5-.1.8,0,.2,0,.5-.2.7,0,.2,0,.3-.1.5,0,.2-.1.4-.2.6,0,.2-.1.4-.2.6,0,.1-.1.3-.2.4-.4,1-.9,2.1-1.5,3-.3.5-.7,1-1,1.4-.7.9-1.6,1.7-2.4,2.4-.4-3.2-1-6.6-1.7-9.8-.3-1.3.6-1.5-1.7-1.3,0,.3-.1.9-.3,1.6,0,.2,0,.5-.2.7,0,.2,0,.4-.1.6,0,.2,0,.4-.2.6,0,.2-.1.4-.2.6-.1.4-.2.8-.4,1.2,0,.3-.2.6-.3.9h0c-.1.3-.2.6-.3.8-.2.6-.5,1.1-.7,1.5-.1.2-.2.4-.4.6,0,.1-.2.3-.3.4,0,.1-.2.2-.3.3s-.3.2-.4.3h0c-.2,0-.4.1-.6,0h-.2c-.1,0-.3-.1-.5-.3-.2-.1-.4-.3-.6-.4-.5-.4-1-.9-1.6-1.5l-.5-.5c-.3-.4-.7-.8-1-1.1s-.3-.4-.5-.6c-.6-.7-1.1-1.4-1.6-2.1-.3-.4-.5-.8-.8-1.1-.2-.3-.4-.6-.6-.9-.1-.2-.2-.4-.4-.6,0-.1-.2-.3-.3-.5-.5-1-1-1.9-1.2-2.8v-1.5c0-.5,0-.9.3-1.2h.1c0-.1.1-.1.2-.2.1,0,.3-.1.5-.2,0,0,.2,0,.3-.1.2,0,.5-.2.7-.3.1,0,.2-.1.3-.2h0s.2-.2.2-.3.2-.2.2-.4c.2-.3.3-.6.5-.9,0-.2.2-.3.3-.5.2-.3.4-.7.6-1.1s.4-.7.6-1.1c.1-.2.2-.3.3-.5.3-.4.6-.8.9-1.1,0-.1.2-.2.3-.3.1,0,.2-.2.3-.2s.3-.2.4-.2h1.4c.1,0,.3,0,.4.2,0,0,.2,0,.3.2.3.2.6.4.9.7l.9-.2h0ZM227.8,169.3c0-.3,0-.6.1-1.1v-.5c0-.4.2-.9.3-1.5,0-.2,0-.3.1-.5,0-.2.1-.5.2-.7,0-.2.1-.5.2-.8.4-1.5,1-3.1,1.5-4.3.1-.2.2-.5.4-.7h0c0-.1.2-.3.2-.4,0,0,0-.1.1-.2.1-.2.3-.4.4-.5.3-.3.5-.4.8-.4h.9c.1,0,.2,0,.3.1.2.1.5.3.7.4l.2.2.2.2.2.2c.1.1.2.3.4.4.1.2.2.4.4.6.1.2.2.4.3.6.1.2.2.5.3.7,0,.2.2.4.2.6s.1.3.2.5c0,.2.2.4.2.7s.1.5.2.8c0,.3.1.5.2.8,0,.3.1.5.2.8,0,.3.1.6.1.9v1.6h0v.7c.2,4-.7,7.9-3,9.4,0,0-.3,0-.5-.2,0,0-.2,0-.3-.2-.1,0-.3-.2-.4-.3-.1,0-.3-.2-.4-.3-.3-.2-.6-.4-.9-.6-.1,0-.3-.2-.4-.3-.4-.3-.7-.5-1.1-.8-.2-.1-.4-.3-.5-.4-.1,0-.2-.2-.3-.2,0,0-.2-.1-.2-.2l-.2-.2c-1-1.2-2-3.6-1.9-5.2l.6.3h0ZM216.2,214.7h0l-5.5-9.4h1.8c.2,0,.4-.1.6-.2.1,0,.2,0,.3-.2,0,0,.2-.2.3-.2l.2-.2.2-.2s0-.1.1-.2v-.4c0-.1,0-.2.1-.4,0-.1.1-.3.1-.4,0-.3.2-.6.2-.9s0-.3.1-.5c0-.2.1-.4.2-.5v-.2s0-.2.1-.2v-.2s0-.1.1-.2c0,0,0-.2.2-.2,0-.1.1-.2.2-.3h.2c0-.2.2-.3.3-.4,0,0,.1,0,.2-.1,0,0,.1,0,.2.1.1,0,.2.1.3.2h.1c0,.1.1.3.2.4,0,0,.1.2.2.2v.2s0,.1.1.2v.4c0,.2.1.3.1.5s0,.3.1.5c0,.3.2.6.3.9,0,.1,0,.3.1.4,0,.1.1.2.2.4v.2s0,.1.1.2c0,0,0,.1.1.2,0,0,0,.1.1.2l.2.2s.2.2.3.2c0,0,.2.1.3.2.2.1.4.2.6.2h1.8l-5.5,9.4h0ZM220.3,219.8v.6c0,.1,0,.3-.1.5,0,.2-.1.3-.2.5,0,.2-.2.4-.2.5-.1.3-.3.5-.5.8,0,.1-.2.3-.3.5s-.3.4-.4.6c0,.1-.2.2-.2.3s-.2.2-.3.3c-.2.3-.5.5-.7.8l-.4.4h0c-.1.1-.2.2-.4.3,0,0-.1.1-.2.1,0,0-.1,0-.2.1,0,0-.1,0-.2-.1,0,0-.1,0-.2-.1-.1,0-.2-.2-.3-.3h0c-.1-.1-.3-.2-.4-.4-.2-.2-.5-.5-.7-.8,0,0-.2-.2-.2-.3s-.2-.2-.2-.3c-.1-.2-.3-.4-.4-.6,0-.2-.2-.3-.3-.5-.2-.3-.3-.6-.5-.8,0-.2-.2-.4-.2-.5,0-.2-.1-.3-.2-.5,0-.2,0-.3-.1-.5v-.6c0-.3,0-.6.2-.9.1,0,.2.2.4.2.2.2.5.3.7.4s.5.3.7.4.3.2.5.2h0c.1,0,.3.1.4.2.1,0,.3.1.4.2.3,0,.5.1.8.2.3,0,.5-.1.8-.2.1,0,.3,0,.4-.2.1,0,.3-.1.4-.2h0c.2-.1.3-.2.5-.3s.4-.2.7-.4c.2-.1.4-.3.7-.4.1,0,.2-.1.4-.2.2.2.2.5.2.9h-.2ZM224.8,166.2l-4.7-4.2c1.2,5.1,1.4,7.5-1,12.2h0v.2c-.1.2-.3.6-.6,1,0,.1-.2.2-.2.3h0s-.1.2-.2.3c-.5.7-1.1,1.5-1.7,1.8-.5-.4-1.1-1.1-1.7-1.8,0,0-.1-.2-.2-.3h0c0-.1-.2-.2-.2-.3-.2-.4-.5-.7-.6-1h0v-.2c-2.4-4.7-2.2-7-1-12.2l-4.7,4.2c-4-6.5.7-13.7,6-17.8l2.1,2.5h.9l2.1-2.5c5.3,4.1,9.9,11.3,6,17.8h-.3ZM206.8,178.1h.9c.3.1.5.3.8.5.1,0,.2.2.3.3l.2.2.2.2c.1.1.2.3.4.5.1.2.2.3.3.5,1,1.4,1.8,3.2,2.5,4.2l.2.2.2.2h.2c.1.1.2.2.4.3.2,0,.4.2.5.2h.4c.1,0,.2.1.3.2h0c.2.3.2.6.3.9h0v1.4c0,.4-.2.8-.4,1.3,0,.1,0,.2-.1.4,0,.2-.2.5-.3.7-.7,1.5-1.8,3.1-2.9,4.6-.2.3-.5.6-.7.9-.3.3-.6.7-.8,1-.3.3-.6.6-.8.9l-.8.8c-.3.3-.7.6-1,.9l-.3.3c-.1.1-.3.2-.4.3-.4.3-.7.5-.9.6h-.8c-.3-.1-.5-.4-.8-.7-.1-.2-.3-.4-.4-.6,0-.1-.2-.3-.3-.5,0-.2-.2-.4-.3-.5-.3-.7-.6-1.5-.9-2.3-.1-.4-.2-.7-.3-1.1,0-.3-.2-.6-.2-.9-.4-1.6-.7-3-.7-3.6-2.2-.2-1.4,0-1.7,1.3-.4,1.6-.7,3.2-1,4.9-.3,1.6-.5,3.3-.8,4.9-.1,0-.2-.2-.3-.3-.2-.1-.3-.3-.5-.4s-.3-.3-.5-.4l-.4-.4c-.1-.1-.2-.3-.4-.4-.1-.1-.2-.3-.4-.4-.1-.1-.2-.3-.3-.4-.1-.1-.2-.2-.2-.3-.1-.2-.2-.3-.4-.5h0c0-.1-.2-.2-.2-.4-.4-.7-.8-1.4-1.2-2.2-.2-.5-.5-1.1-.6-1.7,0-.2-.1-.4-.2-.5,0-.2,0-.4-.1-.5,0-.2,0-.4-.1-.6,0-.2,0-.4-.1-.5,0-.6-.1-1.1-.2-1.7v-2c0-.2,0-.5.1-.7,0-.5.2-.9.4-1.4,0-.2.1-.4.2-.6h0c0-.2.2-.4.3-.6h0c0-.1.2-.3.2-.4,0,0,0-.1.1-.2l1.7,5.1.9-1.7c.6-.2,1.1-.2,1.5-.1h0c.5,0,.9.3,1.1.6.1.1.2.2.3.4.2.3.3.5.5.8,0,0,0,.1.1.2.1.2.3.4.5.5,0,0,.2.1.3.2h1c0-.3-.1-.7-.1-1.2h0v-1.2c0-.3,0-.6.2-.8,0-.2,0-.4.2-.6,0-.2,0-.3.1-.5,0-.2.1-.4.2-.6.2-.6.4-1.2.7-1.8.1-.3.3-.6.5-.9.1-.3.3-.6.5-.8.2-.3.3-.6.5-.8s.4-.5.5-.7c.5-.6.9-1,1.4-1.4.2-.1.4-.3.6-.4.4-.2.8-.3,1.2-.3h-.1,0ZM202.7,174.4l-.2.2-.2.2s-.2.1-.3.2c-.6.5-1.5,1.1-2.3,1.7,0,0-.2.1-.3.2,0,0-.2.1-.3.2-.8.6-1.5,1-1.7.9-5.2-3.4-3-20.5,2.5-20.5h.5s.1,0,.2.1h0l.2.2s0,.1.2.2c0,0,.1.2.2.3,0,0,.1.2.2.3,0,0,.1.2.2.3,0,.1.2.3.2.4,0,0,0,.1.1.2,0,0,0,.2.1.2,0,.2.2.3.2.5s.1.4.2.5c0,.1.1.3.2.4,0,.1.1.3.2.4s.1.3.2.5c.1.4.3.8.4,1.2h0c.1.4.2.8.3,1.1,0,.3.2.6.2.8.3,1.2.5,2.3.6,3v.6c0,1.6-1,4-1.9,5.2v.5h.1ZM204,223.2c-1,.5-1.9.8-2.3.9h-.2s-.1,0-.2-.1c0,0-.1,0-.2-.1,0,0-.1-.2-.2-.2,0,0-.1-.2-.1-.3s0-.2-.1-.3c0-.3-.1-.7-.2-1.1,0-.3,0-.6-.1-.8v-.9s0-.1-.1-.2h-.1c0-.1-.1-.1-.2-.1t0,0c.1,0,0,0,0,0h-.4s-.2.2-.2.3-.2.2-.2.4c-.4.6-.9,1.5-1.4,1.9,0,0-.1,0-.2.1h-.6c-.3,0-.6-.1-1-.4h0s0-.1-.1-.2h0c0-.2,0-.3-.1-.6v-3h0v-4.8h0c0-.5.1-1.1.2-1.5,0-.3.1-.6.2-.8,0-.2,0-.3.2-.5,0-.2.2-.4.2-.6.1-.3.3-.5.4-.7l.2-.2.2-.2h.1s.1,0,.2-.1h.3v.2c0,.2,0,.4.2.7v.2h.1c0,.2.2.3.3.4.4.4.7.9,1,1.3,0,.1.2.3.3.4.3.4.5.8.7,1.2,0,.1.2.2.2.4.2.2.4.5.6.7.8.7,2.1.7,2.8,1.3.1.1.3.2.4.4.5.5.8,1,1.2,1.5.1.2.3.4.5.5.2.2.5.4.8.6,0,0,.2.1.3.1,0,0,.2,0,.3.1h1.4s0,.1.1.2h0v.9h0s-.1.2-.2.2c-.6.8-1.8,1.6-3,2.3-.3.2-.6.3-.8.4h-1.2,0ZM225,220.9l-.2-.2-.2-.2h0c0-.1-.1-.3-.2-.4v-.7h0v-.2h0c.1-.1.2-.1.3-.1h1c.2,0,.4-.1.6-.2.2,0,.3-.2.5-.3.1,0,.2-.2.3-.2l.3-.3c0-.1.2-.2.3-.3,0-.1.2-.2.3-.3.2-.3.4-.6.7-.9,0,0,.2-.2.2-.3h.1c0-.1.1-.2.2-.3l.2-.2s.2-.1.3-.2c0,0,.2-.1.3-.2.1,0,.2,0,.3-.1.2,0,.4-.1.6-.2.1,0,.2,0,.3-.1,0,0,.2,0,.3-.1.2-.1.5-.2.7-.4l.3-.3h0s.1-.1.1-.2h0s.1-.2.2-.3h0c.1-.3.2-.4.3-.6.1-.2.2-.4.3-.6,0,0,.1-.2.2-.3,0,0,0-.1.1-.2,0,0,0-.1.1-.2.3-.5.7-1,1.2-1.4,0,0,.2-.2.2-.3h0v-.5h0c0-.1.1-.1.2-.1.2,0,.4.2.6.4.1.1.3.3.4.5,0,0,.1.2.2.3,0,0,0,.1.1.2,0,0,0,.2.1.3v.2c0,.2.2.5.2.8v.6c0,.2,0,.4.1.6v2.1h0v2.5c0,1.3-.2,2.4-.3,3.3,0,.3,0,.5-.1.7h0c0,.2,0,.4-.2.6,0,.1,0,.2-.1.3h0c0,.1-.2.2-.3.3-.2.1-.3.2-.5.2h-.9c-.3-.1-.5-.4-.7-.7-.1-.2-.2-.3-.4-.5-.4-.6-.7-1.2-1-1.5h-.1c-.1,0-.2-.1-.3-.2h-.2s-.1.1-.1.2v.9c0,.3,0,.5-.1.8,0,.4-.1.8-.2,1.1,0,.1,0,.2-.1.3,0,.1,0,.2-.2.3,0,0-.1.2-.2.2h-.2c0,.1-.1.1-.2.2h-.7c-.5-.1-1.1-.4-1.8-.8-.2,0-.4-.2-.5-.3h-.2c-.1,0-.3-.2-.4-.2s-.3-.2-.4-.2-.3-.2-.4-.3c-.1,0-.3-.2-.4-.3-.1-.1-.2-.2-.4-.3-.2-.2-.5-.4-.6-.6v-.6h0ZM232.9,127.8c-.4-.3-.8-.6-1.2-1-3.5-3.3-4.9-8.6-3-13.2,9.2-2,14,11.7,10.8,19.3h-3.3c0,.1.8-3.2.8-3.2-1.5-.3-3-1-4.2-1.8h.1,0ZM239.7,112.8c-.2-.2-.3-.4-.5-.6-.2-.3-.4-.6-.7-.9s-.3-.4-.5-.6h0l-.6-.6c-.1,0-.2-.2-.3-.3-.2,0-.3-.2-.5-.4-.2,0-.4-.3-.7-.4-.2,0-.4-.2-.7-.3-.4-.2-.9-.4-1.3-.6-.2,0-.4-.2-.7-.3-.2,0-.4-.2-.6-.3l-.6-.3s-.2,0-.2,0c-.2,0-.3,0-.5-.2-.3,0-.5,0-.7-.2h-.1c-.1,0-.2-.2-.2-.4v-.2c0-.2,0-.5.1-.9,5.4,0,11.7,3.5,11.9,9.4h-.8s-.2,0-.3,0c-.5-.3-.9-.6-1.2-1.1l-.3-.6h0ZM247,137.1h0c-.1-.3-.3-.5-.4-.7h0c-.2-.3-.3-.5-.4-.8v-.2c0-.2-.2-.4-.3-.6-.3-.7-.5-1.4-.7-2.1,0-.2,0-.4-.1-.7h0v-1.2c-.2-2.7,3.2-9.1,5.2-10.9,1.9-1.8,7.3-5,7-1v.8c0,0,0,.3-.1.5h0l3.4-.9v4.3h0v2.2h0v.9h0c-.2.8-.4,1.6-.6,2.4s-.3.7-.4,1.1c0,.2-.1.4-.2.5,0,.1-.1.2-.2.4,0,.2-.2.5-.3.7,0,.2-.1.3-.2.5,0,.1-.1.2-.2.3,0,.1-.2.3-.2.4-.1.2-.2.4-.3.5-.1.2-.3.4-.4.6s-.2.3-.4.5c-.1.1-.2.3-.3.4-.3.4-.6.7-1,1.1h0c-.2.2-.5.4-.7.7h0c-.3.2-.6.5-.9.7h0c-.3.2-.6.5-1,.7h0c-.4.2-.7.4-1.1.5h-.2c-.3,0-.5.1-.8,0h-.6c-.7-.1-1.3-.5-1.8-1.1l-.5-.5c-.1-.1-.2-.3-.3-.4l-1,.4h0ZM258.4,74.3h6.8c5,8.3-4.9,6.7-10.2,8.1-6.1,1.6-12.5,4.9-16.9,9.5-3.7,3.8-4.2,9.6-10.3,8,4.1-13.4,17.7-21.7,30.7-25.5h-.1ZM226.9,140.7h3.7c.5,0,1,.2,1.5.3.1,0,.3,0,.4.1.2,0,.3,0,.5.2.1,0,.2,0,.3.1.6.2,1.1.4,1.6.7.4.2.8.4,1.3.7.2.1.5.3.7.4.3.2.6.4.9.6h0c.3.2.6.4.9.7.2.2.5.4.7.6.9.7,1.8,1.5,2.7,2.4-.4,0-.8,0-1.1.2-.2,0-.3,0-.5.1h-.3c-.2,0-.5.1-.7.2-.5.2-1,.3-1.5.5-.2,0-.4.1-.6.2-.2,0-.5.1-.7.2h-2.6c-.1,0-.3,0-.4-.1-.1,0-.3,0-.4-.1-.3-.1-.6-.3-.9-.4-.1,0-.3-.2-.4-.3h-.1c-.2-.3-.3-.5-.4-.7,0-.2-.1-.4-.2-.5,0-.2-.1-.3-.2-.4h0l-.2-.2h-.5l-.4,5.9-10.7-6v-1c0-.1,0-.2.1-.3,0,0,0-.2.1-.2,0,0,0-.1.1-.2,0,0,.1-.2.2-.2.3-.4.8-.8,1.4-1.1,0,0,.2-.1.3-.2.4-.2.8-.4,1.2-.6.5-.2,1-.4,1.6-.6.5-.2,1-.3,1.5-.4h1.2v-.6h-.1ZM208.4,108.2v-.2c0-.2.1-.4.2-.7.1-.3.2-.6.3-.9,0,0,.1-.3.2-.4,0,0,.1-.3.2-.4,0,0,.1-.3.2-.4.2-.3.4-.7.6-1,0,0,0,0,.1-.2,0,0,0,0,.1-.2,0,0,.1-.2.2-.2,0,0,0-.2.2-.2.2-.2.4-.5.6-.7s.2-.2.3-.4l.5-.5c.1,0,.3-.2.4-.3.1,0,.2-.2.4-.3.1,0,.3-.2.4-.2,0,0,.2,0,.3-.2.1,0,.3-.2.4-.2s.2,0,.4-.2c.1,0,.2,0,.3,0,.1,0,.2,0,.3,0,.2,0,.3,0,.5,0h1.2c.2,0,.3,0,.5,0,.1,0,.2,0,.3,0,.1,0,.2,0,.3,0,.1,0,.2,0,.4.2.1,0,.3.2.4.2,0,0,.2,0,.3.2.1,0,.2.2.4.2s.3.2.4.3c.1,0,.3.2.4.3l.5.5c.1,0,.2.2.3.4.2.2.4.5.6.7,0,0,.1.2.2.2,0,0,.1.2.2.2,0,0,0,0,.1.2,0,0,0,0,.1.2.2.3.4.7.6,1,0,0,.1.3.2.4,0,0,.2.3.2.4s.1.3.2.4c.1.3.2.6.3.9,0,.2.2.4.2.7v.2c.2.6.3,1.2.4,1.8l-5.9-3.4v1.7c0,.3,0,.6-.1.9v.7c0,.3-.2.5-.3.7,0,0,0,.2-.1.3,0,0,0,.2-.1.2h0s0,.2-.2.2c0,0-.1.2-.2.2h-.1c0,0,0,.1-.1.2-.1,0-.3.2-.4.3,0,0-.2,0-.2,0,0,0-.2,0-.2,0-.1,0-.2-.2-.4-.3,0,0-.1,0-.2,0h-.1c0,0-.1-.3-.2-.3s-.1-.2-.2-.2h0s0-.2-.1-.2c0,0-.1-.2-.1-.3,0-.2-.2-.5-.2-.7v-.7c0-.3-.1-.6-.1-.9v-1.7l-6,3.4c0-.6.2-1.2.4-1.8h-.7,0ZM207.3,120.7c1.7-4.1,6.8-8.9,8.5-2.2h1c1.6-6.7,6.8-1.9,8.5,2.2,2.1,5,1,9.7,0,14.8-5.5,0-8.1-5.5-9-10.2h0c-.9,4.7-3.4,10.3-9,10.2-1-5.1-2-9.8,0-14.8ZM205.5,140.7h1.2c.5.1,1,.2,1.5.4s1,.4,1.6.6c.4.2.8.4,1.2.6s.4.2.6.3c.2.1.4.3.5.4.3.3.6.6.8.9,0,0,0,.2.1.3v.6h0v.7l-10.6,6-.4-5.9h-.5s-.1,0-.2.2h0c0,.1-.1.3-.2.4,0,.2,0,.3-.2.5,0,.2-.2.5-.4.6h-.1l-.4.4c-.6.4-1.1.6-1.7.7h-2.7c-.1,0-.3,0-.4-.1-.7-.2-1.4-.4-2.1-.6-.3,0-.6-.2-.9-.2s-.3,0-.5-.1c-.2,0-.4,0-.6-.1-.2,0-.5,0-.8-.1.9-.8,1.8-1.6,2.7-2.4.2-.2.5-.4.7-.6.3-.2.6-.5.9-.7h0c.3-.2.6-.4.9-.6.2-.1.5-.3.7-.4.4-.2.8-.5,1.3-.7.5-.3,1.1-.5,1.7-.7.1,0,.2,0,.3-.1.2,0,.3-.1.5-.2.1,0,.3,0,.4-.1.5-.1,1-.2,1.5-.3h3.7v.3h-.1ZM196.1,133h-3.3c0-.3-.2-.5-.2-.7-.4-1.1-.6-2.2-.7-3.4v-3.3c0-.3,0-.6.1-1,0-.3.1-.6.2-1,0-.3.1-.5.2-.8v-.3c0-.3.2-.6.3-.9s.2-.6.3-.9h0c.1-.3.2-.6.4-.9,0,0,.1-.3.2-.4,0-.2.2-.4.3-.5.2-.3.3-.6.5-.9.1-.2.2-.4.4-.5.2-.2.3-.4.5-.7.3-.4.7-.8,1.1-1.2.2-.2.4-.3.6-.5s.5-.4.7-.5.3-.2.5-.3c0,0,.1,0,.2,0,.1,0,.2,0,.4-.2,0,0,.2,0,.3,0,.2,0,.4,0,.6-.2.5,0,1-.2,1.5-.3h.6c.6,0,1.2,0,1.8.2.6,1.4.8,2.8.8,4.3s0,.4,0,.6c0,.6-.1,1.2-.2,1.7v.6c0,0,0,.3-.1.4,0,.2,0,.4-.2.6,0,0,0,.2-.1.4,0,.2-.2.4-.2.6s-.2.4-.3.6c0,.2-.2.4-.3.6s-.2.4-.4.6c-.2.3-.4.6-.6.8-.2.3-.5.6-.8.9-.1.2-.3.3-.4.4-.3.3-.6.5-.8.7s-.4.3-.7.5c-.2.2-.5.3-.7.5-.2,0-.3.2-.5.3s-.4.2-.6.3c-.4.2-.7.3-1.1.4-.1,0-.3,0-.4.1-.2,0-.3,0-.5.1l.8,3.4h-.2ZM202.2,106.2h0c0,0,0,.2-.2.3h0c-.2,0-.4,0-.7.2-.1,0-.3,0-.5.2,0,0-.2,0-.3,0l-.6.3c-1.5.8-3.2,1.3-4.5,2.3-.1,0-.2.2-.4.3l-.3.3c-.2.2-.4.5-.6.7-.6.7-1,1.5-1.6,2.1l-.6.6c-.1,0-.2.2-.3.2-.2,0-.5.2-.8.3h-.5c.2-5.9,6.5-9.5,11.9-9.4.1.6.1,1,0,1.2v.3h0ZM167.2,74.3h6.8c13,3.8,26.6,12.1,30.7,25.5-6.1,1.6-6.6-4.2-10.3-8-4.4-4.6-10.8-7.9-16.9-9.5-5.3-1.4-15.3.3-10.2-8.1h-.1ZM159.5,95.5c1.2-.2,2.4-.2,3.5-.2h1.3c.3,0,.6,0,.9.2h0c.3,0,.6,0,.9.2.2,0,.5.2.7.2s.4,0,.5.2c.5.2,1,.4,1.5.7.2,0,.5.3.7.4.3.2.5.3.8.5.2.2.5.4.7.6s.5.4.7.6.3.4.5.6c0,0,.1.2.2.3.2.3.5.6.7.8,0,0,.2.3.3.4,0,0,0,0,.1.2.1.2.2.4.4.6.5,1,1,2,1.4,3.1.2.5.3,1,.4,1.5,0,.3.1.5.2.8,0,.3.1.7.2,1,.1.7.2,1.4.2,2.1v1.1l-3.4-1.7h0v5.1c-1.7,0-3.2-.5-4.5-1-.3,0-.7-.3-1-.4-.3-.2-.6-.3-.9-.5-.2,0-.4-.3-.6-.4-.4-.3-.8-.6-1.2-.9-.2-.2-.4-.3-.5-.5l-.8-.8c-.3-.3-.5-.6-.7-.9-.1-.2-.3-.4-.4-.6-.3-.4-.5-.9-.7-1.3l-.6-1.2c0-.2-.1-.4-.2-.6-.7-1.8-1.1-3.9-1.3-6v-4.4.2h0ZM144.2,86.2c3.1-1.3,13.7,3.6,12.8,7.2-1,1.3-1.1,1.3-2.6.9-.2,0-.7-.2-1.3-.5l-1.2-.6c-.4-.2-.5-.2-.7-.4l-.6-.3c-.2,0-.4-.2-.6-.4-.3-.2-.6-.4-.9-.5-3.1-1.9-6.1-4.2-4.8-5.5h0ZM78.7,155.9h-2.1c-.2,0-.4,0-.6-.1h-.4c-.2,0-.4-.2-.6-.3h0s-.2-.2-.3-.2c-.2-.2-.4-.5-.5-.8-.5-1.1.6-2.4.5-2.5-.4-.4-4.5-.5-7.2-4.3-8.3-11.8,14.7-14,22.1-11.9l.4-1.7c-9.7-1.6-19-1.4-27.7,3.4,0-.1-.2-.3-.2-.4s-.2-.3-.2-.4c-.2-.4-.3-.8-.5-1.2,0-.1,0-.3,0-.4,0-.4-.2-.8-.3-1.1v-.4h0v-.3h0v-3.5c0-.3,0-.6,0-1,0-.2,0-.4.2-.6,0-.2,0-.3,0-.4,0-.3.2-.5.3-.8v-.3s0-.2,0-.2c0,0,0-.3.2-.4.2-.4.4-.8.6-1.1,0,0,0-.2.2-.3,0-.2.3-.4.4-.6,0-.2.3-.3.4-.5l.2-.2c.5-.5,1-.9,1.5-1.3,14.5-10.3,55.7,2.5,71.7,8.2,12.6,4.5,27.4,10.2,39.5,15.8,2.9,1.3,6.8,2.9,8.8,5.2-2.5-.6-4.5,1.5-6.5,1.7-3.4.4-11.8-4.2-15.1-6.1-.1,0-.2-.1-.3-.2-.1,0-.2-.1-.3-.2-.2-.1-.3-.2-.5-.3s-.3-.2-.5-.4c-1-.7-2.1-1.7-3.2-2.5-.3-.3-.6-.5-.9-.7-.9-.7-1.7-1.2-2.2-1.5h-.3c-.4,0-1.1,0-1,.5l4.2,4.7c-5,1-12-5.1-15.1-5.8h-1.2c-.2,0-.4.1-.6.2h-.3c-.5,0-.9.1-1.4,0-.1,0-.2-.1-.4-.2-.1,0-.2-.2-.4-.3-.4-.3-.8-.6-1.2-1s-.3-.3-.5-.4-.3-.3-.5-.4l-.4-.4c-.3-.3-.7-.7-1.1-1-.1-.1-.3-.3-.5-.4h0c-.2-.2-.4-.3-.6-.5-.4-.3-.8-.6-1.2-.8-.1,0-.2-.1-.4-.2-.1,0-.2-.1-.4-.2h-1.9l4.2,5.5c-.2,0-.4-.2-.6-.2s-.4-.1-.6-.2c-.4-.1-.8-.2-1.3-.3-.4,0-.9-.1-1.3-.2-.9-.1-1.8-.2-2.7-.3-.4,0-.9-.1-1.3-.2-.9-.1-1.7-.3-2.5-.6-4.5-1.7-8.7-8.8-13.6-8.5h0l8.5,9.4c-9.6,3.9-13.3-9.2-22.1-10.6l9.8,9.4,3,4.2-7.7.9c0,.2,0,.3,0,.4h0c0,.1.3.2.6.3,0,0,.2,0,.3.1h.2s.2,0,.3.1h0v.2c0,.2-.3.4-.9.6-7.4,3.5-14.3,3.8-22.1,1.3h0v.5c-.2,1.6.7,1,1.7,1.6.6.3,1.1.6,1.7.8.3.1.5.2.8.3.9.3,1.7.6,2.6.8.6.2,1.1.4,1.7.6,0,0,0,.1-.2.2,0,.1-.2.2-.4.3,0,0-.2.1-.3.2,0,0,0,0-.2.1-.2.2-.5.4-.8.6-.2.1-.4.3-.6.4-.4.3-.9.5-1.4.8-.2.1-.5.3-.7.4-.3.2-.7.4-1,.5-.3.2-.7.3-1,.5h-.2c-.3.1-.5.2-.8.3h0c-.3.1-.6.2-.8.3h0c-.3,0-.5.2-.8.2h0c-.3,0-.6.2-.9.2s-.4,0-.6.1h.2ZM96.9,173.2c-.5-.2-1-.3-1.6-.5-.4-.2-.8-.3-1.2-.5-.8-.3-1.6-.7-2.4-1-.6-.3-1.2-.6-1.8-.8-.5-.3-1-.5-1.5-.8s-1-.6-1.5-.8c-.3-.2-.7-.4-1-.6s-.7-.4-1-.6h0c-.3-.2-.6-.4-.9-.6-1.7-1.1-3.1-2.3-4.4-3.5.3-.3.5-.6.8-.8.4-.4.8-.8,1.2-1.2h0c.2-.2.4-.4.6-.6.3-.3.6-.5.9-.8s.8-.7,1.3-1c.3-.2.6-.4.9-.6.7-.5,1.5-1,2.2-1.5.4-.2.8-.5,1.1-.7.4-.2.8-.5,1.2-.7,1.2-.7,2.4-1.3,3.6-1.9.4-.2.8-.4,1.2-.6.9-.4,2.5-1.1,4.4-1.9.2,0,.4-.1.5-.2,2.1-.8,4.5-1.8,6.7-2.6.3-.1.6-.2.9-.3.8-.3,1.7-.6,2.4-.8.4-.1.9-.3,1.3-.4.5-.2.9-.3,1.3-.4.2,0,.4-.1.6-.1s.4,0,.5-.1h2c.3,0,.6.1.9.2.2,0,.5.1.7.2,0,0,.2,0,.3.1.2,0,.4.2.6.3.2,0,.4.2.6.3s.4.2.6.4h0c.2.1.4.3.7.4.2.1.4.3.7.4.2.1.5.3.7.5h0c.2.1.4.3.6.5s.4.3.6.5c.3.2.5.4.8.6.4.4.8.7,1.2,1.1.2.2.4.4.6.5.2.2.4.4.6.5,0,.1.3.3.4.4,1,1,1.9,1.9,2.6,2.7l.3.3h-7.1c-1.4,0-2.7,0-4.1-.1h-9.9c-.8,0-1.6,0-2.4.1-.7,0-1.4,0-2.1.2l8.9,1.7,26.8,1.7c.2.8,0,1.3-.4,1.7l-.4.4-.2.2s-.1.2-.2.2c-.2.3-.5.6-.8.9l-.7.7-.2.2c-.2.2-.5.4-.8.6h0c-.3.2-.6.4-.9.6-.3.2-.7.4-1,.6s-.7.3-1,.5c-.3.1-.5.2-.8.3h-.1c-.2,0-.3.1-.5.2-.5.2-1.1.4-1.7.5-.2,0-.4.1-.5.1-.2,0-.3,0-.5.1-.2,0-.4,0-.6.1-.3,0-.7.1-1,.2-.4,0-.7.1-1.1.2h-.2c-.8.1-1.7.2-2.5.2h-.8c-2.9.1-6,0-9.1-.3-.4,0-.9,0-1.3-.1-4.8-.5-9.6-1.3-13.6-1.8-.4,0-.7-.1-1.1-.1s-.7,0-1-.1c-.7,0-1.3-.2-1.9-.2v.5h0c0,.1,0,.2,0,.2h0c0,0,0,.1.2.2.2,0,0,0,.2.1,0,0,.2,0,.3.1,0,0,.3.1.4.1h.4c.3,0,.6.1.8.2h.3c.4.1.9.3,1.3.4.6.2,1.2.4,1.7.5s.9.2,1.4.4c.6.2,1.2.3,1.9.4.6.1,1.2.3,1.9.4.4,0,.8.2,1.2.2s.6.1.9.2c.3,0,.6,0,.9.1.8.1,1.7.2,2.5.3.9,0,1.7.2,2.5.2,1.3,0,2.5.2,3.8.2,0,.2,0,.4,0,.5.2,1.3-.4.9-1.1,1.3h0c-.2.2-.5.3-.8.5-.3.1-.5.3-.8.4s-.5.2-.8.4c-.3.1-.6.2-.8.3h0c-.6.2-1.1.4-1.7.5-.4,0-.8.2-1.2.2s-.6,0-.9.1h-5.1c-.3,0-.6,0-.9-.1-.4,0-.7-.1-1.1-.2-.4,0-.8-.2-1.2-.2-.8-.2-1.7-.4-2.5-.6-.3,0-.6-.2-1-.3h0,0ZM104.4,189.6c-.9,0-1.8.1-2.6.1h-.3c-.6,0-1.1-.1-1.5-.3,0,0-.2,0-.3-.1,0,0-.2,0-.2-.1h0c0-.1,0-.2-.2-.3v-.2c.4-.3.7-.6,1.1-.9.8-.6,1.5-1.2,2.3-1.9.7-.5,1.3-1,2-1.6.5-.4,1-.8,1.5-1.1.4-.3.8-.6,1.2-.9s.8-.6,1.3-.9c.4-.3.8-.6,1.3-.8.6-.4,1.3-.8,1.9-1.2s1.1-.7,1.7-1c.3-.2.5-.3.8-.5.5-.3,1-.6,1.5-.8.4-.2.9-.5,1.3-.7.7-.3,1.4-.7,2-1,1.8-.9,3.6-1.7,5.5-2.3.5-.2.9-.3,1.4-.5s.9-.3,1.4-.5c.5-.1.9-.3,1.4-.4.4-.1.8-.2,1.1-.3.4-.1.8-.2,1.2-.3.6-.2,1.3-.3,1.9-.4h.5c1.4-.3,2.7-.5,4.1-.6.4,0,.9,0,1.3-.1h6.5c.5,0,1,0,1.5.1h1.4c.3,0,.7.1,1,.2.3,0,.7.1,1,.2v.3h-.1c0,0,0,.1-.2.2-.2,0-.2.2-.4.2,0,0-.2.1-.3.2,0,0-.2,0-.3.1-.2,0-.3.2-.5.2s-.2,0-.3.1c-.2,0-.4.1-.6.2-.1,0-.2.1-.4.1,0,0-.2,0-.3.1-1,.4-2.3.8-3.6,1.2-.3.1-.7.2-1,.3-.2,0-.3,0-.5.1-.2,0-.5.1-.7.2-.5.1-1,.3-1.5.4-.3,0-.6.2-1,.3-.2,0-.3,0-.5.2-.3,0-.7.2-1,.3-.7.2-1.4.4-2,.6s-.7.2-1,.3c-.2,0-.3.1-.5.1s-.3.1-.5.2c-.2,0-.3,0-.5.1-.3.1-.6.2-.9.3-.3,0-.6.2-.8.3-.3,0-.5.2-.8.3-.2,0-.5.2-.7.3-.3.1-.6.3-.9.4-.2.1-.4.2-.6.3,0,0,0,0-.2.1,0,0,0,0-.2.1,0,0,0,0-.2.1l-.2.2c-.2.2-.3.3-.4.4h0c0,.2-.2.3-.2.4h0c0,.2,0,.3,0,.4h.8c.3,0,.6-.2.9-.2,2-.4,4.7-2.1,6.7-1-.3.4-.7.7-1,1.1s-.7.7-1,1-.3.4-.5.5c-.3.3-.6.6-.8.9l-1.1,1.1-.7.7c-.3.2-.5.5-.8.7-.2.2-.5.4-.8.6-.2.2-.5.4-.7.6h0c-.2.1-.4.3-.6.4-.3.2-.6.4-.9.6-.2.1-.5.3-.7.4s-.5.3-.7.4-.5.2-.7.3-.5.2-.8.3c-.2,0-.4.2-.7.2s-.3,0-.4.1c0,0-.3,0-.4.1h-.2c-.3,0-.6.1-1,.2-.5.1-1.1.2-1.6.2h-3.8c-.2,0-.4,0-.6-.1-.2,0-.5-.1-.7-.2h0c-.6-.1-1.1-.2-1.7-.3s-1.2-.2-1.8-.2-1.2,0-1.9.1h-1c-.5,0-1.1.1-1.7.2h-.7l-.3.8h0ZM106.8,193.9h0s0,0-.2-.1h0c0,0,0,0,0-.1,0-.1-.2-.2-.3-.3v-.2c0-.1,0-.2.2-.3h0c0-.1,0-.1.2-.2.3-.1.7-.2,1.1-.3h1c4-.1,11.3,1.4,12.7.7l-7.4,4c-1.6-.3-3.3-.7-4.8-1.3-.2,0-.5-.2-.7-.3h0c-.2-.1-.5-.2-.7-.4-.3-.2-.5-.4-.8-.6l-.2-.6h0ZM107.7,253.1c8.9-2.3,17.3-4.7,24.2-11.2l2.9,5.8c-3.3,1.6-5.2,4.4-8.5,6.4-4.9,3.1-20.2,9.6-18.5-1.1h0ZM152.5,281.1s0,.3-.2.4c0,.2-.2.4-.3.7,0,0-.1.3-.2.4-.1.3-.3.6-.5.9,0,.2-.2.4-.3.5-.2.4-.4.7-.7,1.1-.1.2-.2.4-.4.6s-.3.5-.5.7-.3.5-.5.7c-.3.5-.7.9-1.1,1.4-1,1.2-2,2.3-3.1,3.5-.3.4-.7.7-1,1-.2.2-.4.4-.6.6-1.2,1.1-2.4,2.1-3.6,2.9-.2,0-.3.2-.5.4-.4.3-.8.6-1.2.8-.2,0-.4.2-.6.4-.2,0-.4.2-.6.4-.4.2-.9.5-1.3.7q-.2,0,0,0c-.2,0-.3,0-.5.2-.3,0-.6.2-.9.3-.2,0-.3,0-.5.2h-.6c-1.5.3-2.8.2-3.9-.5-.1,0-.2,0-.3-.2-.1,0-.2,0-.3-.2-.2,0-.3-.3-.4-.5s-.2-.3-.2-.5c0-.3,0-.6,0-.8h0c0-.3,0-.5.2-.7,0,0,0-.2,0-.3.2-.4.6-.9,1-1.4.1,0,.3-.3.4-.4.2-.2.5-.5.8-.7.1,0,.3-.2.4-.4,0,0,.1,0,.2-.2.2-.2.5-.4.7-.5.6-.5,1.3-1,2-1.4.2,0,.4-.3.6-.4.3-.2.6-.4.9-.6.7-.4,1.4-.9,2-1.3.3-.2.6-.3.8-.5.2,0,.4-.3.7-.4.2,0,.4-.3.6-.4.3-.2.6-.4.9-.6.5-.4,1-.7,1.3-.9,1.8-1.5,5-6.3,6.2-6.6.3,0,.6-.2,1-.2h2.6c.2,0,.5.2.7.3h.3c.1,0,.3.2.4.4.1,0,.2.2.3.4,0,0,0,.3-.1.4h-.2v.3ZM165.9,263.1v1.9h0v.7c0,.4-.1.8-.2,1.1,0,.3-.1.5-.2.8h0c0,.4-.2.7-.3,1-.1.4-.3.7-.4,1-.1.2-.2.5-.4.7,0,.1-.1.3-.2.4h0c-.1.3-.3.5-.4.8h0c-.2.3-.4.6-.6.9-.2.3-.4.6-.7.9h0c-.2.3-.5.6-.7.8-.2.2-.4.4-.7.6-.6.5-1.2,1-1.9,1.4-.3.2-.7.4-1,.6l.8-8.5-7,5.3h0l-3.2.6c0-.4,0-.7-.1-1.1h0c0-.5,0-1.1-.1-1.6v-1h0v-.6h0v-2.5c0-.6.1-1.1.2-1.7.1-.7.2-1.5.4-2.2,0-.2.1-.4.2-.7v-.3c0-.2.1-.4.2-.6,0-.2.1-.4.2-.6,0-.2.2-.5.3-.7,0-.2.2-.4.3-.7,0-.2.2-.4.3-.6l.3-.6c.1-.2.2-.4.3-.5.1-.2.2-.4.4-.6.4-.5.7-1,1.2-1.5.1-.2.3-.3.4-.5,0,0,.2-.2.2-.3l.2-.2h0c.2-.2.4-.3.5-.5,0,0,.2-.2.3-.2s.2-.2.3-.2c.2-.2.4-.3.6-.5.2-.1.4-.2.5-.4h0c.2-.1.3-.2.5-.3s.5-.3.7-.4c.5-.3,1-.5,1.6-.7,1.1-.5,2.3-.8,3.6-1.1.2.3.5.7.7,1l.3.6c.1.2.2.4.4.7,0,.1.1.2.2.3,0,.2.2.4.2.5v.2c.2.5.4.9.6,1.4.2.5.3,1,.5,1.5.1.4.2.9.3,1.3,0,.2,0,.4.1.7v4.4l.3-.2h0ZM168,248.8l1.7-9.4-8.1,5.1h-1.2v-1c0-.4.2-.9.3-1.3s.2-.9.4-1.3c.1-.4.3-.9.4-1.3.2-.4.3-.9.5-1.3s.3-.7.5-1.1c.2-.3.3-.6.5-.9,0-.2.2-.4.3-.5.2-.4.5-.8.7-1.1s.4-.6.7-.9.6-.7.9-1c.7-.7,1.5-1.4,2.3-1.9.2-.1.4-.2.6-.4.2-.1.4-.2.6-.3.1,0,.3-.1.4-.2.3-.1.6-.3.9-.4.1,0,.3-.1.4-.2h.4c.8-.3,1.7-.5,2.6-.6-.3,6.9.7,16.3-5.9,20.4v-.4h.1ZM174.8,201.8v1.4c0,.4,0,.7-.2,1.1,0,.4-.1.7-.2,1v.4h0c0,.2,0,.4-.1.6,0,.2,0,.3-.1.5,0,.2,0,.3-.1.5-.1.3-.2.6-.3.9-.2.5-.3.9-.5,1.3-.1.3-.3.6-.4.9-.2.4-.4.8-.7,1.2-.3.5-.6.9-.9,1.3-.2.3-.5.6-.7.9-.3.3-.5.6-.8.8-.3.3-.6.6-.9.8-.3.2-.5.4-.8.6-.4.3-.8.5-1.2.7,0,0-.2,0-.2.1-.3.2-.6.3-.9.4-.3.1-.6.3-.9.4-.2,0-.4.2-.6.2-.4.1-.8.3-1.2.4-.2,0-.3,0-.5.1-.2,0-.3,0-.5.1-.3,0-.6.1-.9.2-.6,0-1.2.1-1.9.2l2.5-6.8h0l-9.4,3.4c2.7-10.3,12.1-18.1,23-14.5v.7l-.6.2h0ZM179.1,274.3c-.1-.4-.2-.8-.3-1.2-.1-.4-.2-.8-.3-1.2h0c-.2-.8-.3-1.6-.5-2.4-1.1-6.6-.3-13.4,5-18.2l1.3,4.2h0l3.4-.9c0,1.5.2,2.6.4,3.5v1c0,.2.1.4.2.5,0,0,0,.1.1.2,0,0,0,.1.1.2,0,.1.1.2.2.2h.6s.2,0,.3-.1c0,0,.1,0,.2-.1,0,0,.1,0,.2-.1l.3-.3.3-.3c.2-.3.5-.6.8-1,.2-.2.4-.5.6-.8l.4-.5c.3-.4.6-.7.9-1.1.2-.3.5-.5.7-.8.5-.5,1-1,1.6-1.4l3.8,9.3c.1,0,.2-.1.3-.2h.1c0-.1.2-.3.2-.4h0s.1-.2.2-.3c.2-.4.5-.8.7-1.2,0,0,0-.2.1-.3h0c0-.1.1-.2.2-.3l.3-.6c0-.1.2-.3.3-.4,0-.1.2-.3.3-.4l.2-.2s.1-.1.2-.1c.2-.1.3-.2.5-.2h1.2c3.1,7.4,1.1,13.9-3,20.4l-6.8-11-6,7.6-3-7.6-6.8,6.8.5-.3h0ZM202.2,304.3c-.2-.2-.4-.4-.7-.6-.1,0-.2-.2-.3-.3-.4-.5-.8-1-1.3-1.6-.2-.3-.4-.6-.6-.9-.2-.4-.5-.7-.7-1.1-.2-.3-.3-.6-.5-.8-.4-.8-.9-1.5-1.2-2.2-.2-.4-.4-.7-.5-1,0,0-.1-.2-.2-.3v-.2c-.1-.2-.3-.3-.4-.4h0l-2.1,7.6c-.3-.2-.5-.4-.8-.7-.7-.7-1.4-1.4-2-2.2-.2-.3-.4-.5-.6-.8,0,0-.1-.2-.2-.3,0,0-.2-.2-.2-.3-.1-.2-.3-.4-.4-.7-.3-.5-.5-1-.7-1.4,0,0-.1-.3-.2-.4,0-.2-.2-.4-.2-.6s-.2-.4-.2-.6c-.1-.3-.2-.6-.3-.9,0-.3-.2-.6-.3-.9,0-.3-.2-.6-.2-1s-.1-.6-.2-.9c0-.3-.1-.7-.1-1-.3-2.6,0-5.2.7-7.6h.5c.1,0,.2,0,.2.2v2.1c0,0,0,.1.2.2.2.1.1,0,.2.2h0s.2,0,.3.2c.1,0,.2.2.4.3,0,0,.1,0,.2.2.1,0,.2.2.4.3.1,0,.2.2.3.2.5.4,1.1.8,1.6,1.3.1,0,.3.3.4.4.2,0,.3.3.4.4,0,0,.2.2.2.3s.2.2.3.4l.2.4s.1.3.2.4v.2h0l1.3-5.1,3,3.4h0l1.5-.8,1-.6.5-.3v1.1c0,.2,0,.5.1.7v.5s.1.3.2.4c0,0,0,.2.1.2.2.3.4.5.6.7s.5.4.7.6c.2,0,.3.2.5.3h0c.1,0,.3.2.4.2.5.3.9.5,1.2.6.2,0,.3.2.4.3h0s.1.2.2.3v.4h0s.1.3.1.5v1.5c0,.4-.1.7-.2,1.1,0,.2,0,.4-.1.6,0,.2-.1.4-.2.6-.2.8-.5,1.6-.8,2.3-.4.9-.7,1.9-.9,2.8-.3,1-.5,2-.4,2.8-.4,0-.8,0-1.3-.4-.1,0-.2,0-.3-.2h.8ZM223,324.5l-.8-2.5-6,7.6h0l-6-7.6-.8,2.5c-3.3-3.4-8.1-6.6-6.4-11.9,2.8,4.2,5.6,2.1,7.6,2.9,1.3.6,3.8,3.9,4.4,5.4.4.2.8.4,1.2.4s.8-.2,1.2-.4c.7-1.5,3.1-4.9,4.4-5.4,2-.9,4.9,1.2,7.6-2.9,1.7,5.4-3.1,8.5-6.4,11.9h0ZM245.1,291.7c0,.3-.1.5-.2.8,0,0,0,.3-.1.4,0,.2-.1.4-.2.6-.2.6-.4,1.3-.7,1.9l-.2.4s0,.2-.2.3c-.2.4-.4.8-.6,1.1,0,0,0,.2-.1.2,0,.2-.2.3-.3.5-.2.4-.5.8-.7,1.1-.1.2-.3.4-.4.5,0,0-.2.3-.3.4-.1,0-.2.3-.3.4h0c-.1,0-.3.3-.4.4h-.1c-.2.3-.4.5-.6.7-.3.2-.6.5-.8.7l-2.1-7.6h0s-.1.2-.2.3c0,0-.2.3-.3.5,0,.2-.2.3-.3.5-.2.4-.5.9-.8,1.4-.2.3-.3.6-.5.9s-.3.6-.5.9c-.7,1.1-1.4,2.2-2.1,3.2-.2.3-.5.6-.8.9s-.5.6-.8.8c-.1,0-.2.2-.3.2,0,0-.2,0-.2.2-.4.2-.7.3-1,.3v-.9h0v-.6c0-.2,0-.4-.1-.6h0c0-.3,0-.4-.1-.6,0-.2,0-.3-.2-.5,0-.2,0-.3-.2-.5-.4-1.3-1-2.6-1.4-3.9-.1-.5-.3-.9-.4-1.4,0-.2,0-.4-.1-.6v-2.7s0-.2.1-.2h.2s.2,0,.3-.2c.4-.2.9-.4,1.4-.7,0,0,.2,0,.3-.2.1,0,.2-.2.4-.2h0s.2,0,.2-.2h.1s.2,0,.2-.2c0,0,.1-.2.2-.3,0,0,.1-.2.2-.3,0,0,.2-.3.2-.4h0v-.2c0-.2.1-.4.2-.6h0v-.5h0v-1.1l1.2.7.2.2,1.4.8h0l3-3.4,1.3,5.1c.6-2.4,4.7-4.4,5.3-5.3.1-.2.2-.4.2-.6v-.6h0v-.8h0v-.2h.7c.1.4.3.9.4,1.3,0,.3.1.7.2,1s.1.7.2,1v2.1c0,1.4-.2,2.9-.5,4.3l1-.8h0ZM254.8,265.8v1.6c0,.6-.1,1.2-.2,1.8,0,.3-.1.7-.2,1,0,.3,0,.5-.1.8-.2.8-.3,1.5-.5,2.2-.1.4-.2.8-.3,1.2l-6.8-6.8-3,7.6-6-7.6-6.8,11c-.5-.8-1-1.6-1.4-2.4-.3-.5-.6-1.1-.8-1.6-.2-.4-.3-.7-.5-1.1-.1-.3-.2-.6-.4-.9-.1-.3-.2-.6-.3-.8,0-.2-.1-.3-.2-.5-.2-.7-.4-1.4-.6-2.2,0-.2,0-.5-.1-.7v-.7h0v-.5h0v-3.9h0c0-.2,0-.5.1-.8,0-.4.2-.8.2-1.1s.1-.5.2-.7c0-.2.2-.5.2-.7.2-.5.3-1,.5-1.5h1.1c.2,0,.4.1.5.2.1,0,.2.2.3.3l.2.2.2.2.2.2c.3.5.6,1,.8,1.6,0,.1.1.3.2.4.1.3.3.6.4.8,0,.1.2.2.2.4s.2.2.3.3c.2.1.3.3.5.4h0l3.8-9.3c.9.7,1.7,1.6,2.5,2.5.1.2.3.4.5.5,0,.1.2.2.3.4.3.3.5.7.8,1,.4.5.7.9,1.1,1.3,0,0,.1.2.2.2.1.1.2.2.4.3.1,0,.2.2.3.2h0s.2.1.3.1h.5s.2,0,.3-.1l.2-.2v-.2c0-.1.1-.3.2-.4,0-.2.1-.4.2-.6,0-.2,0-.4.1-.7,0-.2,0-.5.1-.8v-.5c0-.3,0-.7.1-1.1v-1.2l1.8.5,1.6.4h0l1.3-4.2s.2.1.2.2c.2.1.3.3.5.4.1.1.2.2.3.4.1.1.2.2.3.4h0c.1.2.3.4.4.5.2.3.4.5.6.8,0,.1.2.3.3.4.1.2.2.4.4.6.2.4.5.8.6,1.2,0,0,0,.2.1.3,0,.1,0,.2.1.3v.2c0,.1.1.3.2.4.1.2.2.5.3.8v.2c0,.2.1.4.2.6,0,.3.1.5.2.8v.3c.1.6.2,1.1.3,1.7.1.9.2,1.8.2,2.8v1.2l.3-.3h0ZM256.6,190c-.2-.1-.4-.3-.6-.4-.1,0-.2-.2-.4-.3-.2,0-.3-.2-.4-.3l-.2-.2c-.3-.3-.7-.6-1-.9s-.4-.5-.7-.7-.4-.5-.6-.8c-.2-.2-.3-.5-.5-.8-.1-.2-.2-.4-.3-.6s-.2-.5-.3-.8c0-.1,0-.2-.1-.3-.1-.3-.2-.6-.3-.9-.1-.4-.2-.8-.3-1.2s-.1-.8-.2-1.3c1.3-1.3,12,8.7,11.1,11.9-1-.4-1.9-.8-2.7-1.2-.3-.1-.6-.3-.8-.4-.4-.2-.7-.4-1.1-.6l-.6-.3h0ZM293,150.5v-.3h0c-.3.1-.7.2-1,.3s-.6.2-.8.3c-.7.3-1.4.5-2.1.8-.4.1-.8.3-1.1.4-.6.2-1.2.4-1.9.6-.5.1-1,.3-1.5.4-.2,0-.5.1-.7.2-.2,0-.5.1-.7.2-.5.1-1.1.2-1.7.4-.5,0-1,.2-1.5.3-.4,0-.9.2-1.3.2s-.7.1-1.1.2c-.6,0-1.2.2-1.8.2s-1.4.2-2.1.2-1.4.1-2.2.2c-.7,0-1.5.1-2.2.2h-4.4s-.2,0-.2-.1-.1,0-.2-.1l-.2-.2v-.3c15.7-5.5,31.5-13,48.5-10.2-1.1.8-2.3,1.6-3.4,2.5-.5.3-.9.7-1.4,1-.3.2-.6.4-.9.6-.4.3-.8.6-1.2.9-.2.2-.5.3-.7.5-.5.3-.9.7-1.4,1-1,.6-1.9,1.2-2.9,1.8s-1,.6-1.5.8-.9.5-1.4.7c-.4.2-.8.4-1.2.5-.2,0-.4.2-.6.2-.5.2-.9.3-1.4.5-.4.1-.7.2-1.1.3s-.8.2-1.2.2-.8.1-1.2.2c-.5,0-1.1.1-1.6.1h-2.4v-.2c0-.1.1-.2.2-.3l.2-.2.2-.2.2-.2c.2-.1.4-.3.6-.4s.3-.2.5-.3c.2,0,.3-.2.5-.3s.5-.3.8-.4c.2-.1.3-.2.5-.3h.2c.2-.2.3-.3.5-.4.2-.1.3-.2.4-.3s.2-.2.4-.3c0,0,.1-.2.2-.2,0,0,.1-.2.2-.2v-.6h0v-.9h.1ZM277.7,158.3h1.4c.6,0,1.3.1,1.9.2h.3c.3,0,.6.1.8.2.2,0,.4,0,.6.1.2,0,.4,0,.6.1h.2c.4,0,.8.2,1.2.4.1,0,.2,0,.3.1.3.1.6.2.8.3l.6.3s.2,0,.2.1c.2.1.4.2.7.4.3.1.5.3.8.5.5.3,1,.7,1.4,1.1h0c.2.1.3.3.5.4h0c.5.5,1,1,1.4,1.6-5.5-.1-11,.1-16.5,0h-3.5c-.3,0-.5-.1-.8-.2-.7-.1-1.3-.3-2-.4-.2,0-.5,0-.7-.1h-.8c-3.1,0-6.6,2.3-8.9-.4,5.1-2.9,12.5-5.2,19.3-4.9l.2.2h0ZM295,241.9h-3.8c-.3,0-.6,0-.8-.1-.2,0-.4,0-.7-.2-.2,0-.4-.1-.6-.2-.1,0-.2,0-.4-.1h-.1c-.2,0-.3-.1-.5-.2-.5-.2-.9-.4-1.4-.6-.3-.1-.5-.3-.8-.4-.3-.2-.6-.3-.8-.5-.2-.2-.5-.3-.7-.5-.1,0-.2-.2-.3-.3-.1,0-.2-.2-.4-.3-.2-.2-.4-.3-.5-.5-.6-.6-1.1-1.3-1.6-2-.1-.1-.2-.3-.3-.5-.2-.4-.4-.7-.6-1.1-.1-.3-.3-.6-.4-.9,0-.2-.2-.5-.3-.7,0-.2-.2-.4-.2-.6s0-.3-.1-.4c0-.1,0-.3-.1-.4v-.2c0-.3-.1-.6-.2-.9v-.4c0-.3-.1-.6-.2-.9,0-.4,0-.7-.1-1.1v-3.6c0-.6.1-1.2.2-1.8h5.3c.3,0,.5,0,.8.1.2,0,.5,0,.7.1.2,0,.5.1.8.2h.7c.1,0,.3,0,.4.1.4.1.7.2,1,.4.2,0,.3.1.5.2.3.1.7.3,1,.4l.6.3c.4.2.8.4,1.2.7h0c.4.3.8.5,1.1.8.2.1.4.3.6.4.4.3.7.6,1,1,.4.4.8.8,1.2,1.3.1.2.3.3.4.5.2.2.3.4.5.7s.4.6.6.8c0,0,0,.1.1.2.2.3.3.6.5.9s.3.7.5,1c.1.3.3.6.4.9.2.5.4,1,.6,1.5l-7.7-1.7,3.4,8.5h-.5ZM264,185.6c.4.2.9.4,1.4.6.4.2.8.3,1.2.5.5.2,1,.4,1.6.6,2.6,1,5.2,1.9,7.8,3,.6.2,1.1.4,1.7.7,1.7.7,3.3,1.4,4.8,2.3.8.4,1.5.9,2.3,1.4.3.2.7.5,1,.7s.7.5,1,.8.5.4.7.6.4.4.7.6l1.7,3.8c-10.9-1.1-22.6-5.4-27.2-16.2.5.2.9.4,1.4.7h-.1ZM262.3,180.1c-.4-.4-.9-.7-1.3-1.1s-.8-.8-1.2-1.1l-.6-.6h6.1c.6,0,1.2.1,1.8.3.5,0,1,.2,1.5.3.2,0,.4.1.6.2.2,0,.4.1.6.2.2,0,.4.1.5.2.2,0,.5.2.7.3.1,0,.2.1.4.2.1,0,.2.1.4.2s.5.2.7.4c.2.1.5.3.7.4,1.5,1,10.2,9.8,9.1,10.9-1.9-1.1-3.9-2.1-6-3-1-.5-2-1-3.1-1.4-.7-.3-1.4-.7-2.1-1-.6-.3-1.1-.6-1.7-.9,0,0-.1,0-.2-.1-.6-.3-1.1-.6-1.7-.9h0c-.5-.3-1.1-.6-1.6-1-.2-.1-.4-.2-.6-.4-.2-.1-.4-.2-.6-.4-.4-.2-.8-.5-1.1-.8-.4-.3-.9-.7-1.3-1h0ZM298.8,197.9c-.5-.2-1-.4-1.5-.6-.3-.1-.5-.2-.8-.4-.3-.1-.6-.3-.8-.4l-1.2-.6c-.4-.2-.8-.4-1.2-.7-.2-.1-.4-.3-.7-.4-.9-.6-1.8-1.2-2.6-1.9-.2-.1-.4-.3-.6-.5-.5-.4-.9-.8-1.3-1.1-.5-.4-1-.9-1.5-1.3l-1.4-1.4c-.5-.5-.9-1-1.4-1.5h0c-.3-.4-.7-.7-1-1.1-.5-.6-1-1.3-1.5-1.9l23.6,8.2,5.3,7.1c-.9.1-1.8.2-2.7.2s-.6,0-.8,0h-1.6c-.5,0-1,0-1.5-.2-.2,0-.4,0-.6-.1-.5,0-1.1-.2-1.6-.3-.6-.2-1.2-.3-1.9-.5-.4-.1-.7-.2-1-.4l.3-.2h0ZM300.8,187.5h-.6c-.2,0-.5,0-.8-.1h-.4c-.2,0-.5-.1-.7-.2-.3,0-.6-.2-1-.3-.1,0-.2,0-.4-.1-.2,0-.5-.2-.8-.3-.1,0-.3-.1-.4-.1-.3-.1-.6-.2-.9-.3-1.1-.4-2.3-1-3.6-1.5-.2,0-.4-.2-.6-.3-.7-.3-1.3-.6-2-.9-.2,0-.3-.2-.5-.2-.3-.2-.7-.3-1-.5-.2,0-.3-.2-.5-.2-.3-.2-.7-.3-1-.5-1-.5-2-1.1-2.9-1.6-.3-.2-.6-.3-.9-.5-.2-.1-.4-.2-.6-.4-.2,0-.3-.2-.5-.3-.3-.2-.5-.3-.8-.5-.4-.2-.7-.5-1-.7-.2-.1-.3-.2-.5-.3-.5-.4-.9-.7-1.3-1l-.3-.3c-.2-.2-.4-.5-.6-.7.9-.1,1.8-.2,2.6-.3h5.7c.3,0,.5,0,.8.1h0c.3,0,.6.1.9.1s.5.1.7.2c.3,0,.6.2,1,.3.2,0,.3,0,.5.1.2,0,.5.2.7.2.3.1.6.2.9.4h0c.3.1.5.2.8.4.2.1.5.2.7.4.1,0,.2.1.3.2.1,0,.2.1.3.2.2.1.5.3.7.4s.3.2.5.3.4.3.5.4c.2.2.5.4.7.6.4.4.9.8,1.3,1.2l.5.5c.2.2.3.4.5.6.1.2.3.3.4.5.9,1,1.7,2.2,2.6,3.5.3.5.6,1,.9,1.5h-.1.2,0ZM258.9,169.3c.3-.1.7-.2,1.2-.3.2,0,.5,0,.8-.1.3,0,.6,0,1-.1h5c.7,0,1.3,0,2,.2.3,0,.7,0,1,.1.2,0,.5,0,.7.1h.9c.4,0,.7.1,1.1.2.3,0,.6.1.8.2h.2c.7.2,1.4.5,1.9.8.1,0,.3.2.4.2,0,0,.2.1.3.2.1,0,.2.2.3.2l.2.2.2.2c0,.1.2.3.2.4-2.7.5-5.9,1-9.1,1s-.5,0-.8,0h-.8c-.8,0-1.7-.2-2.5-.4-.2,0-.4,0-.6-.1-.2,0-.3,0-.5-.2-.1,0-.3,0-.4-.1-.1,0-.3-.1-.4-.2-.3-.1-.6-.3-1-.4-.1,0-.2-.1-.3-.2-.3-.1-.5-.3-.8-.5-.1,0-.3-.2-.4-.3,0,0-.2-.1-.3-.2-.2-.1-.3-.3-.4-.4l-.5-.5c0-.1.2-.2.5-.3v.3h0ZM258.1,205.2c0-.3-.1-.7-.2-1,0-.3-.1-.6-.2-.9,0-.4-.1-.8-.1-1.2s0-.7-.1-1.1c10.9-3.6,20.3,4.2,23,14.5l-9.4-3.4h0l2.5,6.8h-1.6c-.2,0-.5,0-.7-.1h0c-.4,0-.8-.1-1.2-.2q-.2,0,0,0c-.3,0-.6-.2-.9-.2s-.5-.1-.7-.2h-.2c-.1,0-.2,0-.3-.1-.1,0-.2,0-.3-.1-.5-.2-.9-.4-1.4-.7h0s-.2,0-.3-.1c-.4-.2-.8-.4-1.1-.7-.3-.2-.6-.4-.9-.7-.1-.1-.3-.2-.4-.3-.6-.5-1.2-1.1-1.7-1.8-.1-.1-.2-.3-.3-.5-.2-.2-.4-.5-.5-.7-.3-.4-.5-.8-.8-1.2-.2-.3-.3-.6-.5-.9-.1-.2-.2-.5-.3-.8,0-.2-.2-.4-.3-.6,0-.2-.2-.4-.2-.6,0-.3-.2-.5-.3-.8,0-.3-.2-.5-.2-.8s-.1-.4-.2-.6c0-.2,0-.4-.1-.5v-.5h0ZM263.8,248.4s-.1,0-.2-.1c-.1,0-.2-.2-.3-.2-.1-.1-.3-.2-.4-.3h-.1c-.1-.2,0-.1-.1-.2-.3-.2-.5-.5-.7-.8-.2-.2-.3-.4-.5-.6,0-.1-.2-.2-.2-.3-.2-.2-.3-.5-.4-.7,0-.1-.1-.2-.2-.4-.4-.7-.6-1.4-.9-2.1,0-.2-.1-.4-.2-.6,0-.2-.1-.5-.2-.8v-.2c0-.2-.1-.4-.1-.7-.1-.6-.2-1.2-.3-1.8v-.4c0-.5,0-.9-.1-1.4v-1.3c0-1.2,0-2.4-.1-3.6v-3.4c.2,0,.5,0,.7.1.2,0,.3,0,.5.1h.4c.3,0,.6.2.9.2h.5c.3,0,.5.2.8.3.1,0,.2.1.4.2.8.4,1.5.8,2.2,1.3.2.1.3.2.5.4,0,0,.2.1.2.2.1,0,.2.2.4.3.3.2.5.5.8.7l.2.2c.2.2.4.5.6.7l.2.2c.2.3.4.5.6.8,0,.1.2.2.3.4.2.2.3.5.5.8,0,.1.2.2.2.4h0c0,.2.1.3.2.5,0,0,0,.2.1.3,0,.2.2.4.3.6.1.2.2.5.3.7.1.2.2.5.3.8.1.3.2.6.4,1,.1.3.2.6.3,1h0c0,.3.1.6.2.8,0,.3.1.5.2.8.1.4.2.8.3,1.2.3,1.3.2,1.3-1.2,1.1l-8.1-5.1h0l1.7,9.4c-.2-.1-.4-.2-.5-.4h-.4,0ZM273.6,276.3c-.3-.2-.6-.4-.9-.6s-.6-.4-.9-.7c-.2-.2-.5-.4-.7-.6h0l-.2-.2c-.2-.2-.5-.5-.7-.8-.2-.2-.3-.4-.4-.6l-.2-.2c0-.1-.2-.3-.3-.4v-.2c-.1-.2-.2-.3-.3-.5h0s-.1-.2-.2-.3h0c-.1-.3-.2-.5-.3-.7-.2-.4-.4-.9-.6-1.4,0-.1-.1-.3-.2-.4h0c0-.2-.1-.4-.2-.6h0c0-.1,0-.3-.1-.4-.2-.5-.3-1.1-.4-1.6v-.6c0-.3,0-.6-.1-.9v-4.8c0-.3,0-.5.1-.8h0c0-.4,0-.6.2-.9,0-.3.1-.5.2-.8v-.2c0-.3.2-.6.3-.9,0-.3.2-.6.3-.9,0-.3.2-.5.3-.8.3-.6.5-1.2.9-1.8.2-.3.3-.6.5-.9,0-.1.1-.2.2-.3,0-.2.2-.3.3-.5,0,0,0-.1.1-.2,1.3.3,2.5.7,3.6,1.1.5.2,1.1.5,1.6.7.2.1.5.3.7.4s.5.3.7.4.3.2.5.3c.1,0,.2.2.4.3.2.2.4.3.6.5.1,0,.2.2.4.3l.6.6c.2.2.4.5.7.7.1.1.2.2.3.4.1.1.2.2.3.4.2.2.4.5.6.8s.4.5.5.8c.2.3.4.7.6,1,.1.2.2.4.3.7.2.3.3.7.5,1.1,0,.1,0,.2.1.4,0,.2.1.3.2.5.1.3.2.7.3,1,0,.2.1.5.2.8,0,.3.2.6.2,1s.1.7.2,1c.2,1,.2,2.1.3,3.2v1.1c0,1.4,0,2.9-.3,4.4l-3.2-.6-7-5.3.8,8.5c-.4-.2-.7-.4-1-.6l-.4-.4ZM304.8,298c0,.2-.1.3-.2.5s-.2.3-.4.5c0,0-.2.2-.3.2,0,0-.2.2-.3.2-.9.5-1.9.7-3,.6h-2.7c-.6-.2-1.3-.5-1.9-.9-.2,0-.5-.2-.7-.4-.3-.2-.6-.3-.9-.5s-.6-.4-.9-.6-.6-.5-1-.7c-.3-.2-.5-.4-.8-.6-.2-.2-.5-.4-.7-.6-1-.9-2.1-1.8-3.1-2.8s-.6-.6-.9-.9l-.9-.9c-.2-.2-.4-.5-.6-.7-.3-.4-.6-.7-.9-1.1-.2-.2-.4-.5-.6-.7s-.3-.4-.5-.6h0c-.2-.3-.4-.5-.6-.8-.5-.7-.9-1.3-1.3-1.9-.2-.2-.3-.5-.5-.7-.3-.5-.5-.9-.8-1.4-.3-.7-.6-1.3-.7-1.8,0,0,.1-.2.2-.2h.1s.1-.2.2-.2c0,0,.1,0,.2-.2.1,0,.2,0,.3-.2.1,0,.3,0,.4-.2.3,0,.6-.2.9-.2h2c.6,0,.7,0,1,.2,1.1.4,4.4,5.1,6.1,6.6.3.2.7.6,1.3.9.3.2.6.4.9.6.2,0,.4.2.6.4.2,0,.4.3.6.4.3.2.5.3.8.5.7.4,1.3.8,2,1.3.3.2.6.4.9.6.2,0,.4.3.6.4.7.5,1.4.9,2,1.4.2.2.5.3.7.5,0,0,.1,0,.2.2.2,0,.3.2.4.4.3.2.6.5.8.7.1,0,.3.3.4.4.4.5.8.9,1,1.4,0,0,0,.2.1.3,0,.2.1.4.2.6h0v.9l.3-.6v-.3ZM324.8,255.2v.3c0,.2,0,.4-.1.6,0,.1,0,.3-.1.4,0,.1,0,.2-.1.4v.4c0,.1-.1.2-.2.3,0,.1-.2.2-.2.3-.2.2-.4.4-.6.5h0c-.2.1-.5.3-.7.4h-.2c-.2,0-.5.2-.8.2h-1.4c-.6,0-1.2,0-1.8-.1-.3,0-.6,0-.9-.2-.5,0-1-.2-1.4-.3-.3,0-.7-.2-1-.3-.2,0-.3,0-.5-.1-.3-.1-.6-.2-1-.3h-.1c-.3,0-.6-.2-.9-.3-1.6-.6-3.1-1.3-4.4-2-.2-.1-.5-.3-.7-.4-.5-.2-.9-.5-1.2-.7-.3-.2-.5-.3-.8-.5s-.6-.4-.8-.6c0,0-.2-.1-.3-.2-.4-.3-.8-.7-1.2-1-.2-.2-.4-.3-.5-.5-.4-.3-.7-.7-1.1-1-.6-.5-1.1-1-1.8-1.4-.6-.4-1.3-.9-2-1.2l2.9-5.8c6.9,6.5,15.2,8.9,24.2,11.2.1.8.1,1.5,0,2.1l-.3-.2h0ZM325.8,193.7l-.3.3c-.5.4-1.1.8-1.7,1.1-.2,0-.4.2-.6.3-.2,0-.4.2-.6.2,0,0-.2,0-.3.1h-.3c-.2,0-.4.1-.6.2-.9.3-1.9.5-2.8.7l-7.4-4c.2.1.5.2,1,.2h2.2c.4,0,.9-.1,1.3-.1.7,0,1.4-.2,2.1-.2s1-.1,1.5-.2c.5,0,1,0,1.4-.1,1.2-.1,2.3-.2,3.2-.1h1.2c.3,0,.6.1.8.2.1,0,.2.1.3.2l.2.2h0v.2c-.2.3-.4.5-.7.7h.1,0ZM333.3,188.9l-.2.2h-.1c0,.1-.2.2-.3.3-.1,0-.2,0-.4.1h-1.6c-.8,0-1.7,0-2.6-.1h-.7c-.6,0-1.2-.1-1.7-.2h-1c-.8,0-1.4-.1-1.9-.1s-1.2,0-1.8.2c-.6,0-1.2.2-1.7.3h0c-.2,0-.5.1-.7.2-.2,0-.4,0-.6.1h-1c-.3,0-.6.1-.8.1h-2c-.6,0-1.1-.1-1.6-.2-.3,0-.6-.1-1-.2h-.2c-.2,0-.3,0-.4-.1-.1,0-.3,0-.4-.1-.2,0-.4-.1-.7-.2-.3,0-.5-.2-.8-.3-.2,0-.5-.2-.7-.3s-.5-.2-.7-.4c-.2-.1-.5-.3-.7-.4-.3-.2-.6-.4-.9-.6-.2-.1-.4-.3-.6-.4h0c-.2-.2-.5-.4-.7-.6-.3-.2-.5-.4-.8-.6-.2-.2-.5-.4-.8-.7-.2-.2-.5-.4-.7-.7l-1.1-1.1-.9-.9-.5-.5-1-1c-.3-.3-.7-.7-1-1.1,2-1.2,4.7.5,6.7,1,.4,0,.7.2,1,.2h.8v-.3s-.1-.2-.2-.3c0-.1-.2-.2-.3-.4l-.2-.2s0-.1-.2-.2h-.1c-.1-.1-.3-.2-.4-.3,0,0-.2-.1-.3-.2-.3-.2-.7-.3-1.2-.5-.2,0-.4-.2-.6-.2-.6-.2-1.3-.5-2-.7-.2,0-.3-.1-.5-.2-.3-.1-.6-.2-1-.3-.3,0-.5-.2-.8-.3-1.5-.5-3.2-1-4.9-1.5-.3,0-.7-.2-1-.3-.3,0-.6-.2-.9-.3-2.5-.8-4.7-1.5-6.4-2.1-.2,0-.3-.1-.5-.2,0,0-.2,0-.3-.1,0,0-.2,0-.2-.1-.2,0-.3-.1-.4-.2-.3-.1-.5-.3-.7-.4-.1,0-.2-.1-.3-.2h0v-.5c.4,0,.8-.2,1.2-.2.6-.1,1.2-.2,1.8-.3.3,0,.7,0,1-.1h7.3c.4,0,.8,0,1.2.1,1,0,2,.2,3,.4.4,0,.7.1,1.1.2.2,0,.5,0,.7.1.4,0,.8.2,1.2.3.5.1,1,.2,1.5.3.4.1.8.2,1.2.3.3,0,.6.2.9.2.3.1.7.2,1,.3.3,0,.7.2,1,.3.6.2,1.1.4,1.7.6.4.2.9.3,1.3.5.2,0,.4.2.6.3.2,0,.4.2.7.3.4.1.7.3,1.1.5s.8.3,1.2.5c.5.2.9.4,1.3.6s.9.4,1.3.7c.2,0,.3.2.5.3.2,0,.3.2.5.3,1.2.6,2.3,1.3,3.4,1.9.4.2.8.5,1.2.7,1.6,1,3.2,2,4.7,3.1.5.3.9.7,1.4,1s.9.7,1.4,1,.9.7,1.3,1,.9.7,1.3,1,.9.7,1.3,1.1c.4.3.7.6,1.1.9v.2l-1.2-.3h0ZM345.1,168.9c-.6.3-1.1.6-1.7.9-.3.1-.6.3-.9.4-.9.4-1.8.9-2.7,1.3-.5.2-.9.4-1.4.6s-.9.4-1.4.5h0c-.5.2-1,.4-1.6.5-.2,0-.4.1-.7.2-.4.1-.9.3-1.3.4s-.9.2-1.3.3c-.5,0-.9.2-1.4.3-.4,0-.8.1-1.2.2-.8.1-1.7.2-2.5.2h-2.9c-.5,0-.9,0-1.4-.1h0c-.4,0-.8-.1-1.3-.2-.2,0-.4-.1-.7-.2-.2,0-.4-.1-.6-.2-.2,0-.4-.1-.6-.2-.3-.1-.6-.2-.8-.3h0c-.7-.3-1.4-.7-2.1-1.1h-.4c-.2,0-.3,0-.4-.1h0c-.2-.2-.2-.6,0-1.4h1.8c.6,0,1.3,0,1.9-.1.9,0,1.7-.2,2.5-.2.9-.1,1.7-.2,2.6-.3.3,0,.6,0,.9-.1.3,0,.6,0,.9-.2.4,0,.8-.1,1.2-.2.6-.1,1.2-.2,1.9-.4.6-.1,1.2-.3,1.9-.4.5-.1.9-.2,1.4-.4.6-.2,1.2-.3,1.7-.5.4-.1.9-.3,1.3-.4h.3c.4-.1.9-.2,1.3-.3.2,0,.3-.1.5-.2.1,0,.2-.1.3-.1,0,0,.1,0,.2-.1,0,0,.1,0,.2-.2,0,0,.1-.1.1-.2h0v-.5c-.6,0-1.3.1-1.9.2-.3,0-.7,0-1,.1-.3,0-.7,0-1.1.1h-1.2c-.4,0-.8.1-1.1.2-.8.1-1.6.2-2.4.3-1.1.2-2.2.3-3.3.5-.5,0-1,.1-1.5.2-.5,0-1,.1-1.5.2-.4,0-.9.1-1.3.2-.3,0-.6,0-.9.1-.6,0-1.2.1-1.8.2-.9,0-1.8.1-2.6.2-1.9.1-3.9.2-5.8.1h-3c-.5,0-.9,0-1.4-.2-.6,0-1.2-.2-1.7-.3-.3,0-.6-.1-.8-.2-.5,0-.9-.2-1.3-.3-.2,0-.5-.1-.7-.2-.8-.2-1.5-.5-2.2-.8-.3-.1-.6-.3-.9-.4,0,0-.1,0-.2-.1-.2-.1-.5-.2-.7-.4h-.1c-.1,0-.2-.1-.3-.2h0c-.2-.1-.4-.3-.6-.4-.2-.2-.5-.4-.7-.6h0l-.2-.2h0l-.6-.6h0l-.2-.2h0c-.2-.2-.4-.4-.5-.6l-.2-.2-.2-.2c-.3-.3-.6-.5-.8-.8,0,0,0-.1-.1-.2v-1.2l26.8-1.7,9-1.7c-.7,0-1.4-.1-2.1-.2-.6,0-1.2,0-1.8-.1h-10.3c-1.3,0-2.7,0-4.1.1h-7.1l.3-.3c.5-.6,1.1-1.2,1.7-1.9l.4-.4.4-.4c1.1-1.1,2.3-2.1,3.5-3.2.2-.1.3-.2.5-.4.4-.3.8-.6,1.2-.9.2-.1.4-.3.6-.4.5-.4,1.1-.7,1.6-1s1-.5,1.5-.7c.4-.2.7-.3,1.1-.4.2,0,.3,0,.5-.1.2,0,.4,0,.7-.1h1.6c.2,0,.3,0,.5.1.2,0,.4,0,.6.1.4.1.9.2,1.3.4.4.1.8.3,1.3.4,1,.3,2.1.7,3.2,1.1.3.1.6.2.9.3,1.6.6,3.2,1.2,4.7,1.8.5.2,1,.4,1.4.6.5.2.9.4,1.3.5,1.5.6,2.7,1.1,3.4,1.5.2.1.5.2.8.4.2.1.5.2.8.4.5.2,1,.5,1.5.8s1,.6,1.6.9c.3.2.7.4,1,.6,1.3.8,2.6,1.6,3.8,2.5.3.2.6.4.9.6.2.2.4.3.6.5.5.4,1,.8,1.5,1.2,1,.8,1.9,1.7,2.8,2.7-2.1,1.9-4.8,3.9-7.8,5.7l-.9-.8h0ZM371.9,132.3v1.4c0,.3-.2.7-.3,1,0,.2,0,.3-.1.5,0,.2-.1.4-.2.6-.2.5-.4,1-.7,1.5-8.7-4.8-18-5-27.7-3.4h0l.4,1.7c7.4-2.1,30.4,0,22.1,11.9-2.7,3.8-6.8,3.9-7.2,4.3,0,0,1,1.5.5,2.5-.1.3-.3.6-.6.8,0,.1-.2.2-.3.3h0c-.1,0-.2.2-.4.2s-.3.1-.5.2c-.2,0-.3,0-.5.1h-2.5c-.2,0-.4,0-.7-.1-.4,0-.8-.2-1.1-.3-.2,0-.5-.2-.8-.2s-.5-.2-.8-.3h-.1c-.2,0-.3-.1-.5-.2-.2,0-.3-.1-.5-.2-.2,0-.3-.1-.5-.2-.5-.2-1-.5-1.5-.7-.2-.1-.5-.3-.7-.4-.5-.3-.9-.5-1.3-.8-.2-.1-.4-.3-.6-.4s-.4-.3-.6-.4c-.1,0-.3-.2-.4-.3-.3-.2-.6-.5-.8-.7.6-.2,1.1-.4,1.7-.6,1.5-.5,3-.9,4.4-1.6.2-.1.5-.2.7-.4,1.2-.6,2.1,0,1.7-2.1-7.8,2.5-14.7,2.3-22.1-1.3-.6-.3-.9-.5-.9-.7s0,0,0-.1c0,0,0-.1.1-.1h.2c.1,0,.3-.1.5-.2.1,0,.2,0,.3-.1.2,0,.4-.2.5-.3h0v-.3l-7.7-.9,3-4.2,9.8-9.4c-8.8,1.4-12.6,14.6-22.1,10.6l8.5-9.4c-4.9-.3-9.1,6.8-13.6,8.5-.7.3-1.4.4-2.2.6h-.6c-.3,0-.5,0-.8.1h-1c-.5,0-.9.1-1.4.2-.2,0-.5,0-.7.1-.3,0-.7,0-1,.2h-.6c-.2,0-.4.1-.6.2-.4.1-.8.3-1.2.5l1.3-1.7,3-3.8h0c-.3-.1-.6-.2-.9-.1h-.2c-.3,0-.5.1-.8.3-.3.1-.5.3-.8.5-.2,0-.3.2-.5.3s-.4.3-.6.4c-.1.1-.2.2-.4.3-.7.6-1.4,1.2-2.1,1.8-.2.2-.4.4-.6.5-.1.1-.2.2-.4.3l-.4.4c-.5.5-1,.8-1.3,1.1-.1,0-.2.1-.4.2-.2,0-.4.1-.5.1h-.8c-.7-.2-1.5-.5-2.2-.3-3.2.6-10.1,6.8-15.1,5.8l4.3-4.7h0v-.3h-1.1c-.6.3-1.5.9-2.5,1.8-1.4,1.1-3,2.4-4.3,3.4,0,0-.2.1-.3.2,0,0-.2.1-.3.2-.2.1-.3.2-.5.3-3.3,1.9-11.7,6.5-15.1,6.1h-.4c-.2,0-.4-.1-.7-.2,0,0-.2,0-.2-.1-.7-.3-1.3-.6-2-.9-.2-.1-.5-.2-.7-.3-.5-.2-1-.3-1.5-.3s-.6,0-.9.1h0c0-.1.2-.2.2-.3l.3-.3.3-.3c.2-.2.5-.4.7-.6.2-.1.3-.2.5-.3h.1c.1,0,.2-.1.3-.2h0c.2-.1.3-.2.5-.3.6-.3,1.1-.6,1.7-.9.3-.1.6-.3.9-.4,1.1-.5,2.2-1,3.1-1.4,12.1-5.6,26.9-11.3,39.5-15.8,16-5.7,57.2-18.5,71.7-8.2.2,0,.4.3.6.4.1,0,.2.2.3.2.1,0,.3.2.4.4l.4.4c0,0,.2.2.3.3s.2.3.3.4c.1.2.3.4.4.6s.2.3.3.5c.1.2.3.5.4.8,0,0,0,.2.1.3.1.3.3.6.4.9,0,.2.2.5.2.7h0c.1.5.2,1,.3,1.4v3.4l-.3-.8h0ZM148.2,269.9v.5-.6h0v-.9,1ZM148.2,269.9v.5-.6h0v-.9,1ZM148.2,269.9v.5-.6h0v-.9,1ZM148.2,269.9v.5-.6h0v-.9,1ZM148.2,269.9v.5-.6h0v-.9,1ZM148.2,269.9v.5-.6h0v-.9,1ZM148.2,269.9v.5-.6h0v-.9,1ZM148.2,269.9v.5-.6h0v-.9,1ZM148.2,269.9v.5-.6h0v-.9,1ZM148.2,269.9v.5-.6h0v-.9,1ZM148.2,269.9v.5-.6h0v-.9,1ZM148.2,269.9v.5-.6h0v-.9,1ZM148.2,269.9v.5-.6h0v-.9,1ZM148.2,269.9v.5-.6h0v-.9,1ZM148.2,269.9v.5-.6h0v-.9,1ZM148.2,269.9v.5-.6h0v-.9,1ZM148.2,269.9h0c0,.1,0-.1,0-.1h0v-.9,1ZM148.2,269.9h0c0,.1,0-.1,0-.1h0v-.9,1ZM148.2,269.9h0c0,.1,0-.1,0-.1h0v-.9,1ZM148.2,269.9h0c0,.1,0-.1,0-.1h0v-.9,1ZM148.2,269.9h0c0,.1,0-.1,0-.1h0v-.9,1Z"/>
</svg>