<?xml version="1.0" encoding="UTF-8"?>
<svg id="Layer_1" xmlns="http://www.w3.org/2000/svg" version="1.1" viewBox="0 0 113.4 113.4">
  <!-- Generator: Adobe Illustrator 29.2.1, SVG Export Plug-In . SVG Version: 2.1.0 Build 116)  -->
  <defs>
    <style>
      .st0 {
        fill: #2d3483;
      }
    </style>
  </defs>
  <path class="st0" d="M40,.4c13.3-.4,29.2-.8,42.3.4,20.5,1.8,29.4,14.4,30.5,34.1.7,13.8.7,30.3,0,44.1-1.2,22.2-11.9,32.9-34.1,34.1s-26.6.4-39.4,0-22.4-.8-30.9-10.4S.6,85,.3,74.4c-.4-11.6-.4-23.4,0-35s.4-18.7,6.8-26.9C15.5,1.6,27.3.7,40,.4ZM37.7,10.6c-16.7.6-25.8,4.9-27.1,22.9s-.5,29.4,0,42.8c.3,8.3.7,15.7,7.5,21.4s12,4.7,18.7,5c12.9.5,26.9.6,39.8,0s15.2-.7,20.9-7.4,4.8-12,5.1-18.8c.5-12.9.6-26.9,0-39.7-.3-6.7-.5-13.2-5.1-18.6-5.7-6.6-12.8-7-20.9-7.4-12.5-.6-26.3-.6-38.9-.2Z"/>
  <path class="st0" d="M55.9,27.7c22.6-.4,37.3,24,25.8,43.7-12.1,20.6-43.1,18.4-52-3.7-7.5-18.8,5.9-39.6,26.2-40ZM55,38c-14.9,1.3-22.4,18.4-13.3,30.3,7.9,10.3,24.1,9.4,30.9-1.6,8.1-13.1-2.3-30-17.6-28.6Z"/>
  <path class="st0" d="M91.6,31.5c-6.4,6.4-16-3.3-9.7-9.7,6.3-6.3,16,3.4,9.7,9.7Z"/>
</svg>