<?xml version="1.0" encoding="UTF-8"?>
<svg id="Layer_1" data-name="Layer 1" xmlns="http://www.w3.org/2000/svg" viewBox="0 0 313.29 421.72">
  <defs>
    <style>
      .cls-1, .cls-2, .cls-3 {
        fill: #3c56a6;
      }

      .cls-2 {
        font-family: AdelleSansDevanagari-Semibold, 'Adelle Sans Devanagari';
        font-size: 35px;
        font-weight: 600;
      }

      .cls-3 {
        font-family: AdelleSansDevanagari-Regular, 'Adelle Sans Devanagari';
        font-size: 14px;
      }

      .cls-4 {
        letter-spacing: 0em;
      }
    </style>
  </defs>
  <g>
    <path class="cls-1" d="M19.73,268.94c-.3,1.22-.89,2.31-1.45,3.41l-.59-1.1c.55-.89,1.25-1.93,2.04-2.31Z"/>
    <path class="cls-1" d="M23.77,282.64l-.66-1.24.4-.27c.02.56.12,1.05.26,1.51Z"/>
    <path class="cls-1" d="M24.36,264.64l-2.3,4.73c-1.02,2.21-.44,4.87-1.79,6.71l-1.62-3.04c1.76-2.96,2.42-6.69,5.71-8.4Z"/>
    <path class="cls-1" d="M22.24,279.77l-.06-.12c.1-2.09.01-4.33.35-6.39.11-.68,1.03-4.42,1.27-4.74.2-.27.44-.19.51.14l-.35,3.48c.07.33.3.41.51.13.41-.53.75-4.81,1.04-5.82.47-1.64,1.38-2.39,2.57-3.55h.59c1.84,6.37-1.25,13.06-6.43,16.87Z"/>
    <path class="cls-1" d="M29.15,260.1l-1.41.83c-2.22-1.78-3.82-4.34-4.82-7.01l2.45,2.73-1.82-3.69,1.78-1.02c.83,2.98,2.17,5.54,3.82,8.16Z"/>
    <path class="cls-1" d="M32.96,299.87l-5.65-10.59c.01-.09.01-.18.01-.27l4.16,3.38c1.22,2.43,1.57,4.94,1.48,7.48Z"/>
    <path class="cls-1" d="M34.79,290.63c-.25.7-.19,1.22-.31,1.75-.07.29-.04.29-.38.41-3.96-3.25-8.52-7-9.14-12.5-.16-1.42,1.44-2.49,2.19-3.63.34.69.05,1.43.16,2.2.31,2.23,1.22,5.2,2.29,7.19.26.48.35,1.02.91.52-1.83-4.27-3.53-10.36-.64-14.44l1.01,5.33.63-1.23.31-2.27c.91,1.49,2.25,2.68,3.6,3.75.83.67,1.87.78,2.24,1.84,1.18,3.44-1.77,7.97-2.87,11.08Z"/>
    <path class="cls-1" d="M43.35,318.56c-.16.14-.23.19-.31.18l-5.4-10.11c.37.24.75.47,1.14.69.76.43,2.18.71,2.7,1.15,1.66,1.39.84,6.13,1.87,8.09Z"/>
    <path class="cls-1" d="M44.18,309.49c-2.42-.14-4.72-1.15-6.62-2.62-.48-.38-1.04-.82-1.56-1.32l-1.67-3.13c2.06,1.32,3.47,3.92,6,4.25l-4.18-3.66-1.99-3.44c.58-.47.45-.09.77.24,1.14,1.13,2.02,2.6,3.26,3.65.56-.67-.77-1.43-1.22-2.11-1.52-2.33-2.49-4.73-3.6-7.25.46-.58,2.16.79,2.32.43v-2.06c1.43,1.57,3.26,3.12,5.24,3.93.69.29,2.56.46,2.9.97,1.08,3.98-.12,8.07.35,12.12Z"/>
    <path class="cls-1" d="M48.29,265.04c-6.12,1.91-13.7,1.95-18.02-3.51.82-.1,1.81-.63,2.54-.74,2.63-.39,5.99,2.13,8.7,2.25l-4.4-2.5c.07-.34,3.77.7,4.19.84,1,.33,7.09,2.92,6.99,3.66Z"/>
    <path class="cls-1" d="M49.53,297.2c-3.82-1.13-7.69-1.51-10.92-4.05-.77-.6-2.58-1.93-2.42-2.9.24-1.35,1.96-3.78,2.39-5.37.37-1.35.34-3.24.46-4.66l.59-.34c.69.75,2.76.63,3.34,1.18.94.89,1.06,2.47,1.79,3.5.62-.17.34-.69.27-1.14-.1-.67-.28-1.33-.57-1.94,1.21-.61,1.68,1.66,1.94,2.49.54,1.76.71,3.69.6,5.51.45-.14.42-.52.53-.89.62-1.94-.2-4.75-.75-6.68.42-.33.92-.39,1.34-.04.7,2.04,1.33,4.16,1.4,6.32.02.5-.42,3.73-.18,3.8,1.34-2.97.89-6.75.21-9.9,1.86-.24,1.96,2.06,2.16,3.49.54,4.03-1.11,7.84-2.18,11.62Z"/>
    <path class="cls-1" d="M52.5,258.47c-2.15.54-4.82,2.68-6.88,2.9-1.28.14-4.98-1.65-6.8-1.97-1.54-.27-3.15-.11-4.68-.4,3.5-2.25,7.63.12,11.32-.92-1.52-.51-3.2-.35-4.78-.73-.35-.09-.75.14-.91-.42,3-.24,6.09-.54,9.08.08.44.09,3.81.97,3.65,1.46Z"/>
    <path class="cls-1" d="M53.06,281.24c-2.85-1.39-6.13-.89-9.17-1.52-6.07-1.25-10.32-4.82-13.42-10.15.39-1.78.22-3.12.13-4.85-.01-.31-.36-.36.28-.59l10.86,8.54c.43-.17-.06-.64-.24-.82-1.49-1.49-3.94-2.45-4.57-4.69,4.08.89,7.45,3.37,9.94,6.7.42-.17-.08-.63-.22-.9-1.17-2.21-2.86-3.57-4.74-5.12,1.21-.58,1.97-.2,2.98.45,2.45,1.56,3.96,3.8,5.58,6.16l-.75-2.38-4.05-4.92c1.44-.79,3.69,2.11,4.48,3.22,2.08,2.93,3.29,7.29,2.91,10.87Z"/>
    <path class="cls-1" d="M54.05,320.67c-.06.25-2.01-.1-2.31-.15-2.06-.39-6.26-2.06-7.42-3.86-.29-.45-.49-.57.13-.81,1.43,1.27,3.22,2.28,5.1,2.68-1.97-1.67-4.45-2.59-5.81-4.94.13-.67,1.85.83,2.09.96.68.36,1.51.86,2.27.96l-4.63-4.43,2.17-.07c.4-.37-.69-2.44.3-2.84,1.81,2.05,4.63,2.37,6.96,3.54.92,2.93-.34,6.16,1.15,8.96Z"/>
    <path class="cls-1" d="M57.82,311.08c-3.03-.56-10.7-2.09-12.16-4.98-.25-.49.22-3.93.22-4.8,0-.53-.38-3.53-.22-3.62.92.27,1.88.45,2.8.74.49.15,2.46,1.31,2.69.82-.35-1.79.61-3.56.95-5.29,1.83.41,2.07,2.47,2.53,4.06.5,1.75.67,3.59,1.25,5.31.7-2.17-.33-4.68-.52-6.81-.07-.74,1.03.11,1.23.35.79.97.7,3.67,1,4.95l-.04,4.4c.9-2.51,1.03-5.73.54-8.31,1.5-.22,1.66,2.04,1.76,3.2.29,3.42-1.4,6.7-2.03,9.98Z"/>
    <path class="cls-1" d="M63.09,298.86c-3-2.96-7.56-3.44-10.35-6.61.14-1.74.76-3.27.68-5.08-.06-1.49-.61-2.84-.6-4.29l1.74.46.36-1.68c2.45,2.64,4.44,5.5,5.49,8.97.74-.26.22-.4.16-.79-.26-1.62-.92-2.67-1.31-4.12-.12-.46-.4-.54.23-.78.5,1.08,1.41,2.16,1.86,3.23.68,1.6.61,3.99,1.21,5.67.69-2.3-.32-5.16-1.02-7.41,1.44-.18,1.88,2.15,2.19,3.31.78,3,.5,6.27-.64,9.12Z"/>
    <path class="cls-1" d="M62.96,319.99l-.61.2c-.86-.57-1.95-.36-2.8-.77-.61-.28-1.08-.94-1.16-.96-.03,0-.22.39-.42.46-.41.13-3.01-.89-3.16-1.2l-.35-5.58.73-.28c.57.14,3.32,1.57,3.59,1.35.38-.3.46-3.71.99-4.43,1.72.06.28,4.07.83,4.26l1-2.65.86.23.07,5.75c.49.16,1.07-4.63,1.2-4.84.29-.45.96.38,1.07.65.64,1.65-1.7,5.99-1.84,7.81Z"/>
    <path class="cls-1" d="M66.66,272.21c-1.23.17-2.45-.02-3.69.1-2.86.26-5.47,1.31-8.36.34-3.6-1.21-3.04-4.14-5.99-6.02l3.46-1.7c.09-.25-4.14-1.57-4.76-2.2-.15-.15-.26-.3-.34-.49,4.87-1,9.81,1.56,13.54,4.52.31.24.16.78.77.26-1.99-2.34-4.65-4.18-7.51-5.29-.19-.07-4.37-1.09-2.47-1.27,3.97-.38,10.49,3.34,12.46,6.76l2.89,4.99Z"/>
    <path class="cls-1" d="M68.59,310.95c-.1.28-.74,1.99-.99,1.9-.74-2.54-6.21-3.65-7.06-5.55-.35-.78,1.49-6.31.29-7.72.97-.48,1.88.6,2.49,1.22l1.26-1.91,1.53,6.23c.89-1.5-.18-3.4.38-4.96,1.47,2.32,1.24,5.11,1.51,7.72.81-1.94.43-4.09.32-6.11.97-.16,1.12,1.92,1.2,2.67.22,2.01-.25,4.61-.93,6.51Z"/>
    <path class="cls-1" d="M71.94,299.64c-.02.33-.37,2.62-.49,2.68-2.02-1.8-4.68-2.87-6.24-5.14-.18-.39.38-3.8.33-4.7-.08-1.82-.71-3.38-.96-5.14,3.56,1.09,4.41,5.42,5.91,8.44.73-.27.24-.38.16-.79-.42-2.14-1.46-4.01-2.18-6.04,1.14.12,1.83,1.72,2.28,2.67.93,2,1.32,5.8,1.19,8.02Z"/>
    <path class="cls-1" d="M72.23,288.55c-.15.49-2.54-.92-2.99-1.08-4.67-1.63-10.94-3.01-13.99-7.37-1.34-1.91-.75-3.94-1.74-6.04l.36-.38s.35.37.71.48c1.75.5,3.09.28,4.76,1.19,1.98,1.07,3.97,3.04,5.38,4.79.43-.3-.06-1.07-.27-1.38-1.04-1.49-2.97-3.29-4.5-4.31.02-.41.81-.34,1.06-.24,1.98.83,6.09,5.76,7.38,7.67.49-.68-.38-1.78-.78-2.36-.61-.9-4.81-5.33-4.76-5.7.85-.19,1.35.14,1.99.64,4.02,3.16,6.2,9.27,7.39,14.09Z"/>
    <path class="cls-1" d="M97.24,73.98l-4.6,2.5c-.22-.05-.44-.09-.67-.14-.37-.08-.74-.16-1.11-.26h0s-.03-.02-.05-.02c-.17-.04-.33-.09-.5-.15h0s-.09-.03-.14-.05c-.12-.04-.25-.08-.37-.13l-.02-.02c-.09-.04-.18-.07-.26-.11-.09-.03-.18-.07-.26-.12-.34-.16-.65-.36-.94-.6h-.01s-.05-.04-.08-.07c-.12-.09-.23-.2-.33-.31-.08-.09-.16-.17-.23-.26v-.02c0-.12.04-.22.14-.31.04-.05.1-.08.16-.12,1.51-.81,8.19.76,9.27.19Z"/>
    <path class="cls-1" d="M105.69,108.49c-.26.13-.51.27-.74.41-.11.07-.22.14-.33.22-.06.04-.12.08-.18.12h0c-.05.04-.09.07-.13.1-.06.05-.12.09-.18.14-.06.05-.12.09-.18.13h0s0,.02-.02.02c-.04.04-.08.07-.12.1-.03.03-.06.06-.1.08-.07.07-.15.13-.23.19h0c-.11.1-.22.2-.34.3-.04.04-.08.07-.12.1h0c-.15.14-.3.28-.45.41-.46.41-.93.82-1.45,1.2-.23.17-.47.34-.72.5-.79.49-2.01,1.13-3.37,1.69-.19.08-.39.16-.59.23-.39.16-.8.3-1.2.43-.15.05-.31.1-.46.14-.08.02-.15.04-.22.06-.15.04-.3.08-.45.12-.19.05-.37.09-.56.12-.17.04-.33.07-.49.09-.02.01-.04.01-.06.01,0,.01-.01.01-.02.01-.03,0-.06,0-.09,0-.19.03-.38.05-.56.06-.2.02-.39.03-.57.03h-.06c-.64,0-1.22-.1-1.69-.33-.24-.11-.45-.26-.63-.45-.55-.58-.8-1.51-.58-2.91,5.57-1.43,10.81-2.91,15.1-6.98l1.79,3.65Z"/>
    <path class="cls-1" d="M108.4,53.96c-.05.11-.13.21-.21.3-.04.04-.08.09-.13.13-.13.13-.29.26-.42.43-5.37,6.76-20.04,2.77-27.43,2.13-.02.16.03.29.12.41.03.04.07.07.11.11.09.06.19.12.3.17.06.02.12.05.18.07.1.03.2.06.3.09.31.08.63.14.84.21,3.93,1.34,8.37,2.01,12.52,2.13.28,1.25-.18.85-.69,1.19-6.45,4.22-17.61-.94-22.72-5.72,2.56-2.75,6.06-4.92,9.46-6.5,2.11-.98,10.26-4.24,12.15-4.39,2.22-.18,5.52,2.52,7.74,4.74.09.08.17.17.25.25.25.25.48.5.69.73.22.23.41.44.58.64h-.01c-4.54.03-8.89-.33-13.35-.15-.85.04-1.7.09-2.57.17l5.55,1.05,16.76,1.07h.01c.08.33.05.55-.03.74Z"/>
    <path class="cls-1" d="M116.93,129.04c-.31,1.12-1.28,2.73-2.6,4.41-.26.34-.54.67-.83,1.01-1.51,1.75-3.34,3.5-5.17,4.77-.28.2-.55.38-.83.55-2.07,1.27-4.06,1.83-5.47.98-.22-.13-.39-.27-.53-.42-.61-.71-.27-1.57.57-2.47l.25-.25c.17-.18.36-.34.56-.51.3-.26.62-.51.96-.76.23-.17.47-.34.71-.5,2.04-1.41,4.41-2.69,5.19-3.36.89-.77,2.4-2.88,3.32-3.76.1-.1.19-.19.28-.25h.01c.08-.07.16-.12.23-.14.1-.03.2-.06.3-.08,1.07-.25,2.4-.14,3.05.78Z"/>
    <path class="cls-1" d="M115.23,60.5c-.31.28-1.03.6-1.99.95-.48.17-1.03.36-1.61.54-.45.14-.92.29-1.41.44-.36.11-.72.22-1.09.33-.43.13-.87.26-1.31.39-.37.11-.74.22-1.11.33-.12.04-.23.07-.34.11-.8.24-1.58.48-2.27.71-.37.13-.72.25-1.04.36-.32.11-.61.23-.87.34-.52.22-.91.43-1.1.61-.05.04-.09.08-.11.12h0c-.05.06-.1.1-.14.15-.93.96-.11.65.74.45,1.22-.28,2.95-1.34,4.18-.61-2.32,2.48-4.31,4.72-7.08,5.87-.31.13-.64.25-.98.35-.11.04-.23.07-.35.1-.12.04-.24.07-.37.09-.11.03-.21.05-.32.07-.16.03-.33.06-.49.09-.04,0-.08,0-.13.02-.25.03-.5.06-.76.07-.05.01-.1.01-.15.01-.06,0-.13.01-.2.01-.07.01-.13.01-.2.01-.14,0-.28,0-.42,0-.41,0-.82-.05-1.23-.13-.42-.07-.83-.16-1.26-.25-.56-.12-1.13-.21-1.74-.22-1.61-.03-6.13,1.03-6.68-.25.46-.4.93-.79,1.4-1.18.48-.39.96-.77,1.45-1.15.5-.38,1-.75,1.51-1.12.5-.37,1.02-.73,1.54-1.08.79-.54,1.59-1.05,2.4-1.54.82-.49,1.65-.96,2.49-1.41.56-.3,1.12-.58,1.7-.86,2.06-.98,4.18-1.81,6.36-2.42.47-.14.95-.26,1.43-.38,3.81-.89,7.74-1.08,11.66-.29h.01c.08.11.03.23-.12.36Z"/>
    <path class="cls-1" d="M115.88,68.66c-.12.16-.25.32-.38.48-2.43,3.06-5.42,5.82-8.89,7.49-.54.27-1.1.51-1.67.71h-.01c-.57.21-1.15.39-1.74.53-.29.07-.59.14-.89.19-.27.05-.53.09-.81.12-.18.03-.37.05-.56.06-.01,0-.02,0-.03.01-.13.01-.26.03-.39.03h-.04s-.09.01-.14.01c-.38.03-.76.03-1.15.02-.11,0-.23-.01-.35-.01-.11,0-.23,0-.35-.02-.23-.01-.47-.03-.7-.06l3.34-4.42,14.75-5.14h.01Z"/>
    <path class="cls-1" d="M107.36,104.83l2.13-5.31-4.79,1.05c2.02-5.75,6.7-8.55,12.78-7.98,1.04,6.83-2.81,12.73-10.12,12.24Z"/>
    <path class="cls-1" d="M119.08,63.33c-.04.06-.09.13-.15.2s-.13.14-.21.22c-2.44,2.43-13.9,7.87-15.08,7.02h0c.19-.33.39-.65.59-.95.59-.92,1.21-1.74,1.86-2.47.23-.24.44-.47.67-.69.22-.23.45-.43.68-.63.12-.1.24-.2.36-.29.12-.1.23-.18.35-.27.48-.36.98-.68,1.5-.95,2.57-1.36,5.63-1.72,9.43-1.19h0Z"/>
    <path class="cls-1" d="M119.61,11.97c-.65.82-.67.81-1.62.57-1.02-.24-7.73-3.77-6.37-5.08,1.95-.82,8.55,2.27,7.99,4.51Z"/>
    <path class="cls-1" d="M127.59,69.18c-2.93,6.74-10.19,9.45-17.03,10.11l1.07-2.38h0c.27-.26.56-.5.84-.72.87-.69,1.8-1.28,2.76-1.81,3.88-2.12,8.43-3.24,12.36-5.2Z"/>
    <path class="cls-1" d="M124,122.82c-.21.4-.45.79-.71,1.16-.66.92-1.5,1.72-2.52,2.32-.1.07-.2.13-.31.18-.1.06-.21.11-.31.17h-.01l.53-5.32-4.39,3.32-1.99.4c-.83-7.09,1.29-13.12,8.72-14.85,2.5,3.46,2.99,8.77.99,12.62Z"/>
    <path class="cls-1" d="M126.53,50.03c0,.06-.01.1-.03.14h0s0,.02-.01.03c0,0,.01.01,0,.02,0,0,0,.01-.01.02-.02.05-.05.08-.09.11-.09.1-.22.17-.38.21-.12.04-.27.07-.42.08-.72.09-1.66-.04-2.01-.06-5.31-.36-9.99-1.08-14.88-3.22-.74,1.81,3.02,2.4,3.45,3.72-6.35.47-11.16-4.07-15.97-7.44,10.65-1.73,20.52,2.98,30.34,6.39h.01Z"/>
    <path class="cls-1" d="M130.26,59.61c-1.96,2.26-5.21,2.41-8.26,2.09-.49-.05-.97-.12-1.43-.18-.71-.11-1.39-.22-2.03-.33,1.1-2.48,10.93-2.63,11.72-1.58Z"/>
    <path class="cls-1" d="M130.25,55.61c-1.44,1.68-3.63.17-5.58.22-1.27.04-2.44.57-3.71.6-.37.01-.73.02-1.09.01-2.19.04-4.38-.02-6.57-.05-1.27-.01-2.54-.02-3.81.01,4.58-5.98,14.97-4.11,20.76-.79Z"/>
    <path class="cls-1" d="M129.72,64.39h0c-.24.27-.49.52-.74.75-.5.48-1.04.93-1.59,1.34-.84.63-1.72,1.19-2.63,1.71-3.04,1.74-6.42,3.03-9.4,4.72h-.01s-.04-.04-.04-.07c-.01-.03-.02-.06-.02-.1,0-.06.01-.13.04-.21.02-.06.04-.12.08-.19,0-.02.01-.04.03-.06.02-.05.04-.1.07-.15.02-.05.05-.1.09-.16.06-.11.13-.22.22-.34.16-.24.35-.5.57-.77.21-.27.45-.56.71-.86.16-.18.32-.36.48-.55.32-.36.66-.72.99-1.07.16-.17.32-.34.49-.5.08-.08.16-.16.24-.24l.45-.45c.15-.13.28-.26.41-.39.06-.06.13-.12.19-.17.18-.17.33-.3.46-.4h.01c.08-.08.15-.13.2-.16.54-.34,1.08-.62,1.63-.85h.01c.27-.11.55-.22.83-.3,1.69-.54,3.43-.64,5.27-.57.31,0,.63.02.96.04Z"/>
    <path class="cls-1" d="M130.79,79.3c-.29,3.86-1.61,7.12-4.17,9.11-.25.2-.52.38-.8.55-.84.52-1.79.92-2.86,1.18-.35.09-.72.16-1.1.21-.19.02-.39.05-.59.07-.19.02-.4.04-.6.05h0s1.6-4.25,1.6-4.25l-5.85,2.12c.26-1,.62-1.97,1.07-2.87.15-.3.31-.59.48-.88h0c.18-.3.36-.58.54-.85.09-.14.19-.27.29-.4.2-.26.4-.52.62-.76.2-.24.43-.48.67-.71.11-.11.23-.22.35-.34h0c.24-.22.48-.43.73-.62,2.61-2.01,5.99-2.83,9.61-1.61Z"/>
    <path class="cls-1" d="M130.25,96.32c-.04,1.08-.04,2.26-.07,3.46-.02.58-.04,1.17-.09,1.75-.02.31-.05.63-.09.95-.12,1.04-.32,2.06-.66,2.99-.09.27-.2.53-.33.78-.06.13-.12.25-.18.38-.13.24-.27.47-.43.69-.07.12-.16.23-.25.34t-.01,0c-.18.21-.36.42-.57.62-.2.19-.43.38-.67.55-.06.05-.13.1-.2.14-.05.04-.1.08-.16.11h-.01l1.06-5.85-5.06,3.18c-.12.01-.22.02-.31.03-.05.01-.09.01-.12.01-.07.01-.12.01-.16,0-.01,0-.01-.01-.01-.01h-.03s-.01.01-.02,0c-.07-.01-.12-.04-.14-.1-.01-.03-.02-.07-.02-.12,0-.11.03-.28.08-.52.9-4.49,3.56-8.78,8.45-9.39Z"/>
    <path class="cls-1" d="M131.85,23.42l-2.12-1.06v3.18s-.01,0-.01,0c-.27-.02-.54-.06-.79-.1-.21-.03-.42-.07-.62-.12-.04,0-.09-.01-.13-.03-.03,0-.05,0-.07,0-.7-.17-1.33-.41-1.91-.7h0s-.02-.01-.03-.02c-.03-.01-.06-.03-.09-.05-.16-.08-.31-.17-.46-.26-.37-.23-.72-.49-1.04-.77-.11-.11-.23-.21-.34-.32-2.35-2.34-3.17-6.06-3.04-9.86,6.71-.92,10.41,3.71,10.65,10.11Z"/>
    <path class="cls-1" d="M135.05,66.52h0c-.07.65-.19,1.23-.36,1.75-.04.16-.09.32-.15.47-.19.51-.42.97-.7,1.37-.15.22-.3.44-.47.64-.17.2-.36.39-.55.57-1.2,1.1-2.81,1.85-4.69,2.65-.15-.48.12-1.21.64-2.02.09-.15.19-.3.31-.46.05-.08.11-.16.18-.25.08-.11.17-.22.26-.34.66-.85,1.49-1.72,2.31-2.47.18-.17.37-.34.56-.49.1-.08.19-.16.29-.25.18-.14.36-.28.53-.41h.01c.43-.32.81-.57,1.13-.7.06-.03.12-.05.18-.07.24-.09.42-.09.52.01Z"/>
    <path class="cls-1" d="M135.62,77.98c.02,1.83-2.06,2.47-2.7,1.84-.62-.61.84-4.09,2.12-4.25.05.62.34,1.19.49,1.79.05.21.09.41.09.62Z"/>
    <path class="cls-1" d="M136.6,97.58c-.11,1.5-.46,5.54-.99,6.48-.17.31-1.48,1.45-1.62,1.31-.83-3.27-.9-7.27,1.54-9.79.1-.11.21-.22.32-.31h0s.08.05.12.08c.04.02.07.05.1.08.06.06.12.11.18.17s.11.12.15.17c.08.11.14.23.18.35.14.41.07.86.02,1.46Z"/>
    <path class="cls-1" d="M137.18,47.89c-1.03-.26-1.95.26-2.81.66-.21.1-.41.19-.62.26-.2.08-.41.13-.61.15-.08.01-.16.01-.25.01-.29,0-.63-.05-.99-.13-.35-.07-.73-.18-1.13-.31-2.44-.82-5.58-2.56-7.07-3.4-.37-.21-.79-.51-1.25-.86-.23-.18-.45-.36-.68-.54-1.17-.92-2.37-1.94-2.97-2.22-.23-.1-.87-.13-.79.26l2.66,2.93c-3.12.64-7.47-3.21-9.44-3.61-.04-.01-.08-.02-.12-.01-.17-.02-.34,0-.51.03,0,0-.01,0-.02,0-.12.03-.24.07-.37.1-.07.01-.13.03-.2.05-.12.04-.25.06-.38.08-.22.02-.44.01-.66-.08-1.19-.47-4.17-4.44-5.87-3.74l2.66,3.46c-1.96-.9-4.42-.56-6.4-1.32-2.76-1.07-5.36-5.34-8.33-5.34-.05,0-.11.01-.16.01l5.31,5.85c-5.98,2.46-8.31-5.77-13.84-6.65l6.12,5.85h.01l1.85,2.66-4.79.54c-.11.15-.03.26.13.35.05.03.11.06.18.09.23.09.52.18.67.29.02.01.04.03.05.05.06.07.07.15-.02.25-.03.02-.07.06-.12.1-.09.06-.2.13-.36.2-3.42,1.63-6.64,2.13-10.06,1.66-.47-.06-.94-.14-1.42-.24-.19-.04-.39-.08-.58-.13-.2-.04-.39-.09-.59-.14h0s-.09-.02-.14-.04c-.35-.09-.7-.2-1.05-.31-.1.52-.08.78.02.92.01.02.03.04.05.06.14.12.37.13.64.21.11.03.22.07.33.13.34.19.69.35,1.04.49.18.07.36.14.54.2.36.13.72.24,1.08.36.55.17,1.09.34,1.62.55-1.48,1.48-7.61,4.82-9.53,2.88-.14-.13-.26-.3-.35-.5-.14-.32-.07-.68.04-.97.07-.18.15-.33.21-.44.04-.09.07-.15.06-.16-.28-.28-2.81-.31-4.5-2.71-5.2-7.38,9.17-8.72,13.82-7.42l.26-1.05c-6.05-.99-11.85-.87-17.3,2.12-1.75-3.18-1.31-7.54,1.89-9.81,9.05-6.43,34.81,1.58,44.82,5.16.99.35,2,.71,3.02,1.09,1.02.37,2.06.75,3.11,1.15,6.29,2.35,12.9,5.02,18.59,7.64,1.79.83,4.28,1.79,5.5,3.28Z"/>
    <path class="cls-1" d="M138.76,35.36c-.09,1.24-.7,3.25-1.75,4.39-.1.1-.2.2-.3.28-.1.09-.21.17-.32.24-.08.05-.15.09-.23.13-.03.02-.06.03-.1.04-.02.02-.05.03-.08.04-.03,0-.06.02-.09.03-.06.02-.12.03-.19.04-.02.01-.04.02-.06.02-.15.03-.31.03-.47.01-.05.01-.1,0-.15-.01-.1-.01-.21-.04-.32-.08-.22-.07-.44-.18-.67-.33-2.17-1.41-3.6-3.56-4.34-5.96-.12-.4-.23-.8-.31-1.2-.11-.48-.18-.97-.23-1.46-.12-1.11-.1-2.23.04-3.33h0l2.12.53c-.99-3.75,2.91-1.41,4.21-.22.07.07.15.14.23.24.1.11.21.24.32.38,0,.01.01.02.01.02.08.11.16.22.24.33.03.03.05.07.08.1.01.02.02.04.04.06,0,0,0,.01.01.01,0,0,.01,0,.01.02.09.13.18.28.28.43.05.09.11.18.16.27.06.09.11.19.17.29.34.58.66,1.21.92,1.83.09.21.17.42.25.62.19.48.33.95.42,1.36.08.33.11.63.09.88Z"/>
    <path class="cls-1" d="M140.96,89.69c-.91.97-2.92,1.33-4.61,1.19-.35-.03-.68-.08-.99-.15-.31-.07-.6-.16-.84-.27-.15-.2.06-.71.46-1.34.09-.14.19-.29.3-.44.22-.31.47-.64.74-.96.13-.16.27-.33.41-.49.29-.33.58-.65.88-.95.07-.07.14-.15.22-.22.14-.14.29-.28.43-.41.57-.52,1.09-.91,1.45-1.05.19-.08.34-.08.43,0h0c-.71,1.49,2.01,4.14,1.12,5.08Z"/>
    <path class="cls-1" d="M138.78,65.99c-.92-1.69-.68-3.94-1.09-5.48-.02-.05-.04-.1-.08-.14-.25-.28-.86-.26-.95-.6-.43-1.76-.06-4.2.92-6.25.27-.57.59-1.11.95-1.6.14-.19.29-.38.45-.56.16-.18.33-.35.5-.5.09-.09.17-.16.26-.23.26-.22.54-.41.83-.57.19-.1.39-.2.6-.27.41-.16.85-.25,1.3-.27.25.36.44.7.59,1.03.09.22.17.43.22.63.63,2.44-1.55,4-1.81,6.62-.3,3.06,1.93,6.7-2.69,8.19Z"/>
    <path class="cls-1" d="M147.38,20.29c-.06,0-.12.02-.18.04-.14.03-.28.08-.42.16-.99.57-2.28.94-3.18,1.63-1.3.99-1.6,2.76-3.22,2.89h-.01c.01-.34.05-.66.13-.98.08-.31.18-.61.3-.9.08-.19.18-.38.29-.56.15-.27.34-.52.54-.76,1.46-1.74,3.95-2.71,6.19-2.65h0c.01.06.02.12.03.17.01.06.01.1.02.15.08.68-.15.74-.5.81Z"/>
    <path class="cls-1" d="M147.11,105.18c-.55.64-3.4,2.4-5.37,3.34-.26.12-.49.23-.71.32-.6.24-1.04.35-1.18.25-.16-1.57-1.3-3.47-1.09-5.03.02-.16.06-.31.12-.44.05-.13.13-.26.21-.37.08-.12.16-.22.26-.32.05-.05.1-.1.14-.14.05-.05.1-.1.15-.15.41-.41.8-.81.73-1.53l-2.65,1.06h-.01c-.01-.16-.03-.32-.03-.48-.06-1.34.14-2.67.54-3.84.17-.51.38-.99.63-1.43.09-.17.19-.34.3-.49,0-.01.01-.01.01-.01.1-.16.21-.31.32-.45.07-.08.13-.15.19-.22.06-.06.12-.13.19-.19,1.75-1.77,4.29-1.71,6.63,2.3l1.61-1.02c2.5,2.11.83,6.76-.99,8.84Z"/>
    <path class="cls-1" d="M149.42,15.97c-3.83,1.01-4.14-2.61-6.44-5-2.76-2.86-6.76-4.93-10.58-5.93-3.32-.87-9.55.17-6.4-5.04h4.26c8.11,2.39,16.6,7.56,19.16,15.97Z"/>
    <path class="cls-1" d="M143.57,34.62l.53,2.1-2.07-.06h0c-1.49-3.58-.17-9.3,3.03-11.39.19-.12.39-.23.6-.33.92-.44,1.97-.59,3.13-.34,1.68,4.07-.85,9.12-5.22,10.02Z"/>
    <path class="cls-1" d="M149.4,59.4c.02.98-.61,2.48-1.21,3.23-.01.02-.04.04-.07.07-.04.03-.08.07-.13.11-.04.05-.1.09-.16.14-.14.11-.31.25-.5.39-.06.05-.12.09-.19.14h0c-.06.05-.13.1-.2.15-.13.1-.27.21-.41.3l-.21.15s0,.01-.01.01c-.18.13-.36.25-.52.36-.33.22-.61.39-.77.45-.04.02-.07.03-.09.02-.01.01-.02.01-.02.01-.08-.05-.16-.11-.23-.18-.08-.06-.15-.13-.22-.21-2.67-2.81-1.26-12.41,2.04-12.42.17,0,.34.09.52.26.13.12.26.29.39.49.09.14.17.28.25.44.13.24.25.5.36.78.08.19.16.39.23.59.26.7.49,1.46.67,2.17.08.31.15.6.21.88.04.19.08.36.11.53.07.33.11.62.14.85,0,.11.02.21.02.29Z"/>
    <path class="cls-1" d="M147.56,127.7l-4.26-6.89-3.73,4.76-1.87-4.77-4.24,4.25h-.01c-.22-.72-.41-1.48-.56-2.24-.46-2.28-.58-4.64-.1-6.82.06-.27.13-.54.22-.8.39-1.31,1.03-2.54,1.99-3.64.13-.15.26-.29.41-.44.14-.14.29-.28.44-.42l.8,2.66,2.12-.54h0c.23,3.88.82,4.13,1.75,3.19.14-.14.28-.31.44-.5.39-.47.82-1.06,1.3-1.64.2-.23.4-.46.6-.67.09-.11.2-.22.31-.32.1-.1.21-.21.32-.3.11-.1.22-.2.34-.28h0s2.41,5.84,2.41,5.84c.9-.51,1.08-2.05,1.9-2.79.06-.06.13-.12.21-.16.08-.05.16-.1.25-.13.22-.1.49-.14.82-.11h0c1.94,4.64.7,8.7-1.86,12.76Z"/>
    <path class="cls-1" d="M150.31,138.99c-.07.25-.15.5-.23.76-.31.91-.69,1.86-.94,2.71-.09.31-.16.61-.21.89,0,.04-.01.07-.01.1-.01.06-.02.11-.02.16h-.01s.01.02,0,.03c0,.11,0,.21,0,.31,0,.09,0,.18,0,.26h0c-.44.02-.92-.29-1.4-.78-.2-.2-.4-.44-.59-.7-.13-.17-.26-.35-.39-.53-.13-.19-.26-.38-.38-.58-.38-.58-.73-1.2-1.04-1.76-.11-.19-.21-.37-.3-.54-.47-.85-.82-1.48-.95-1.48l-1.33,4.77h0c-.17-.12-.33-.27-.49-.42-.15-.14-.3-.3-.45-.45-2.87-3-4.12-7.93-2.78-11.89.96-.17.3.92.66,1.44.38.57,2.94,1.84,3.33,3.33l.8-3.18,1.91,2.11.91-.52.9-.53h0c-.34,2.66,2.62,3.22,2.95,3.69.49.69.38,1.7.07,2.8Z"/>
    <path class="cls-1" d="M151.13,91.7c-.08.08-.17.16-.26.24-.56.48-1.33.94-2,1.26-.22.11-.43.21-.62.28-.29.11-.52.17-.67.18-1.2-.24-.32-3.42-1.61-2.66-.47.28-1.14,2.62-2.39,1.6-.12-.1-.24-.5-.34-1.09-.15-.87-.25-2.12-.21-3.35,0-.12,0-.24.01-.35,0-.09,0-.18.01-.27,0-.06.01-.12.01-.18,0,0,.01-.03.01-.04,0-.05,0-.11,0-.16.02-.22.04-.42.07-.62.01-.07.02-.14.03-.2s.02-.11.03-.16c.05-.27.11-.52.18-.75.21-.68.53-1.18.98-1.35.38-.16.16.5.48.82,1,1,1.25,2.01,1.93,2.63.31.29.78.4,1.18.54.21.06.4.14.54.25.06.05.12.1.16.16.42.41.72.95,1.14,1.36.16.16.34.29.54.4.08.04.15.07.22.1.12.05.25.08.38.1.19.03.39.04.61.03h0c.25.35.03.79-.42,1.23Z"/>
    <path class="cls-1" d="M154.75,44.69h0s-6.66,3.74-6.66,3.74l-.27-3.72c-.06-.01-.1-.02-.14-.02-.17,0-.27.06-.34.15-.04.05-.07.11-.1.17-.07.15-.11.34-.18.52-.04.11-.09.22-.16.31-.04.06-.09.11-.16.16-2.27,1.62-4.03-.06-6.37-.24,3.47-3.34,7.43-5.66,12.25-3.45.99.45,2.27,1.12,2.13,2.38Z"/>
    <path class="cls-1" d="M151.92,77.41c-.17.19-.34.37-.51.53-.25.25-.49.47-.71.66-.14.13-.28.24-.41.33h-.01c-.19.14-.35.24-.49.3-.05.02-.09.03-.13.04-.28.06-.54-.07-.8-.33-.08-.09-.17-.19-.25-.3-.08-.12-.16-.25-.24-.39-.16-.27-.31-.59-.44-.93-.09-.21-.17-.43-.25-.66-.16-.45-.3-.92-.42-1.37-.06-.22-.12-.44-.17-.65-.02-.09-.04-.17-.06-.25-.03-.17-.07-.32-.1-.47-.03-.14-.06-.28-.08-.41-.05-.25-.08-.46-.09-.6-1.41-.13-.87-.03-1.05.79-.46,1.99-.83,4.09-1.08,6.12-3.1-2.41-5.11-7.54-2.92-11.17l1.06,3.19.57-1.08c2.49-.62,1.6,1.79,3.42,1.61-.48-1.72,1.12-5.74,2.9-7.04.12-.09.25-.17.37-.23.24-.12.48-.19.72-.19,1.62,0,2.66,2.93,3.46,4.04.22.3.69.47,1.05.61.15.06.27.11.36.17.04.02.07.05.09.08h0c.91,1.54-1.65,5.31-3.79,7.6Z"/>
    <path class="cls-1" d="M159.21,91c0,.07-.01.14-.02.21-.01.07-.02.13-.03.2-.03.1-.05.2-.08.3-.04.11-.08.21-.12.32l-.15.33c-.09.17-.18.34-.28.51-.06.09-.12.19-.19.29-.08.12-.16.24-.25.35-.04.07-.09.14-.15.2-.05.07-.1.13-.16.19-.13.18-.28.34-.43.49-.09.08-.17.16-.26.24t-.02.02c-.07.06-.14.12-.21.17-.04.03-.08.06-.11.08-.04.03-.08.06-.11.08-.03-.02-.07-.05-.11-.08-.03-.02-.06-.05-.1-.08-.08-.05-.15-.11-.22-.17t-.02-.02c-.08-.08-.17-.16-.25-.24-.15-.15-.3-.31-.44-.49-.05-.06-.11-.12-.16-.19-.05-.06-.1-.13-.15-.2-.09-.11-.17-.23-.25-.35-.07-.1-.12-.2-.18-.29-.11-.17-.2-.34-.29-.51l-.15-.33c-.04-.11-.08-.21-.11-.32-.03-.1-.06-.2-.09-.3-.01-.07-.02-.13-.03-.2s-.02-.14-.02-.21c0-.21.05-.4.15-.53.08.05.16.1.23.14.15.11.29.19.42.28.15.08.28.17.42.24.1.06.2.1.29.15.01.01.02.01.02.01.09.05.18.08.27.11.09.05.18.08.26.11.18.05.35.09.51.11.17-.02.33-.06.51-.11.08-.03.18-.06.27-.11.08-.03.17-.06.26-.11t.02-.01c.09-.05.19-.09.3-.15.13-.07.26-.16.41-.24.14-.09.28-.17.42-.28.08-.04.15-.09.23-.14.1.13.15.32.15.53Z"/>
    <path class="cls-1" d="M160.13,81.96l-3.47,5.85h-.04l-3.47-5.85c.18.01.34.01.49-.01.08,0,.16-.01.23-.02.04,0,.07-.01.1-.02.04,0,.08-.01.11-.02.05-.01.08-.02.12-.03.13-.04.25-.09.35-.16.06-.03.12-.06.17-.1.06-.05.13-.1.18-.16.04-.04.09-.08.12-.13.04-.04.07-.09.09-.13.04-.04.06-.08.08-.13.03-.03.05-.08.07-.11.02-.04.04-.08.05-.12.03-.07.07-.15.09-.23.04-.08.07-.17.09-.26.06-.19.11-.38.16-.57.03-.1.05-.2.08-.3.03-.11.06-.22.09-.33.02-.04.03-.08.05-.13.02-.05.03-.1.06-.15.02-.05.03-.09.06-.14.02-.04.04-.08.06-.12.04-.06.07-.11.11-.16.03-.06.07-.12.11-.16.03-.04.06-.07.09-.1.06-.06.12-.11.18-.15.03-.03.06-.05.1-.07.04.02.07.04.1.07.07.04.13.09.18.15.03.03.06.06.09.1.05.04.09.1.12.16.03.05.07.1.1.16.03.04.05.08.06.12.03.05.05.09.06.14.03.05.04.1.07.15.01.05.03.09.04.13.03.11.07.22.09.33.03.1.06.2.08.3.06.19.11.38.16.57.03.09.06.18.09.26.03.08.06.16.09.23.02.04.03.08.05.12.03.03.05.08.07.11.02.05.05.09.08.13.03.04.06.09.09.13.04.05.08.09.13.13.05.06.11.11.17.16.06.04.11.07.17.1.11.07.22.12.35.16.04.01.08.02.12.03.03.01.07.02.11.02.03,0,.07.02.1.02.08.01.16.02.24.02.15.02.31.02.48.01Z"/>
    <path class="cls-1" d="M159.51,126.29c-.78,1.28-2.68,2.22-2.87,3.81-.19-1.59-2.09-2.53-2.87-3.81-2.28-3.7-2.78-7.66-1.68-11.88,1.87-.28,3.11,2.55,4.55,2.69h.01c1.43-.14,2.68-2.97,4.54-2.69,1.11,4.22.6,8.18-1.68,11.88Z"/>
    <path class="cls-1" d="M161.72,22.35l-3.71-2.12c0,.18,0,.35-.01.52,0,.13-.01.25-.02.36-.01.07-.01.12-.02.18-.02.2-.05.38-.09.56-.01.06-.02.11-.03.16s-.02.09-.03.13c-.02.04-.03.08-.04.12-.04.16-.09.31-.15.44-.03.07-.06.14-.09.2-.03.05-.06.11-.09.16,0,.01-.01.02-.02.04-.04.05-.07.1-.11.15-.03.06-.07.11-.11.16l-.08.08s-.06.06-.09.08c-.08.07-.16.13-.24.17-.05.03-.1.05-.15.07-.05-.02-.1-.04-.15-.07-.08-.04-.16-.1-.24-.17-.03-.02-.06-.05-.09-.08s-.05-.06-.07-.08c-.05-.05-.08-.1-.12-.16-.04-.05-.07-.1-.1-.15-.02-.02-.02-.03-.03-.04-.03-.05-.06-.11-.08-.16-.04-.06-.07-.13-.1-.2-.05-.13-.11-.28-.15-.44-.01-.04-.02-.08-.03-.12-.02-.04-.03-.08-.03-.13-.02-.05-.03-.1-.04-.16-.04-.18-.07-.36-.09-.56,0-.06-.01-.11-.01-.18-.01-.11-.02-.23-.02-.36-.02-.17-.02-.34-.02-.52l-3.71,2.12c.05-.38.13-.76.23-1.13.01-.05.03-.09.04-.14.04-.14.09-.28.13-.42.07-.18.14-.36.21-.54.04-.08.07-.17.11-.25.04-.09.09-.18.13-.27.04-.08.08-.16.12-.24.11-.21.24-.42.37-.62.03-.04.05-.08.07-.11.02-.04.05-.07.07-.11.04-.05.07-.1.11-.15.03-.04.06-.09.1-.14.12-.15.24-.3.36-.44.07-.08.14-.15.22-.22.09-.1.2-.2.3-.29.08-.08.17-.15.26-.22.08-.06.16-.13.24-.19.08-.05.16-.1.24-.16.05-.03.11-.07.17-.1.09-.05.18-.09.27-.14.07-.04.15-.07.23-.1.06-.03.12-.06.18-.08.07-.03.14-.05.21-.07.11-.03.22-.06.33-.08.04-.01.07-.02.1-.02.08-.02.15-.03.23-.03.02-.01.04-.01.05-.01.02,0,.03,0,.06.01.07,0,.14.01.22.03.03,0,.06.01.1.02.11.02.22.05.33.08.07.02.14.04.21.07.06.02.12.05.19.08.07.03.15.06.23.1.09.05.18.09.26.14.06.03.12.07.17.1.08.06.16.11.24.16.08.06.16.13.24.19.1.07.18.14.27.22.1.09.2.19.3.29.07.07.14.14.21.22.12.14.24.29.36.44.04.05.07.1.1.14.04.05.08.1.11.15.03.04.05.07.07.11.03.03.05.07.07.11.14.2.26.41.37.62.05.08.09.16.13.24.04.09.09.18.12.27.04.08.08.17.11.25.08.18.14.36.21.54.05.14.09.28.13.42.02.05.03.09.04.14.1.37.18.75.23,1.13Z"/>
    <path class="cls-1" d="M161.76,136.98c0,.12,0,.23-.01.33-.02.28-.05.55-.08.82-.02.12-.03.26-.05.39-.02.09-.03.19-.05.28-.02.13-.04.25-.07.38-.04.18-.07.35-.12.53-.02.1-.05.22-.08.32-.02.09-.05.17-.08.26-.03.12-.07.24-.11.36s-.08.25-.12.36c-.03.08-.06.15-.08.22-.05.13-.09.25-.15.38-.07.17-.14.35-.22.52-.04.1-.09.2-.14.29-.55,1.16-1.26,2.25-2.1,3.28-.17.2-.34.4-.52.6-.09.1-.18.2-.27.3-.1.09-.19.2-.29.29-.09.1-.18.2-.28.29-.1.1-.2.19-.3.28-.1-.09-.2-.18-.29-.28-.1-.09-.2-.19-.29-.29-.1-.09-.19-.2-.28-.29-.1-.1-.19-.2-.28-.3-.17-.2-.35-.4-.51-.6-.85-1.03-1.56-2.12-2.11-3.28-.04-.09-.09-.19-.14-.29-.08-.17-.15-.35-.22-.52-.05-.13-.1-.25-.14-.38-.03-.07-.06-.14-.08-.22-.05-.11-.09-.24-.13-.36s-.08-.24-.11-.36c-.03-.09-.05-.17-.07-.26-.04-.1-.06-.22-.09-.32-.04-.18-.08-.35-.12-.53-.02-.13-.04-.25-.07-.38-.01-.09-.03-.19-.04-.28-.03-.13-.04-.27-.06-.39-.03-.27-.06-.54-.07-.82-.01-.1-.02-.21-.02-.33-.05-1.44.13-2.94.57-4.48.29-.05.55-.05.78-.01.06.01.11.02.16.04.11.03.23.07.33.12.04.01.08.04.12.06.05.02.1.06.14.08.29.19.54.43.8.69.06.08.13.15.2.22.16.17.31.34.47.51l.12.11c.42.43.87.77,1.43.86.57-.09,1.02-.43,1.44-.86l.12-.11c.15-.17.3-.34.46-.51.07-.07.14-.14.21-.22.25-.26.51-.5.79-.69.05-.02.09-.06.14-.08.04-.02.08-.05.13-.06.1-.05.21-.09.32-.12.05-.02.11-.03.16-.04.24-.04.5-.04.78.01.44,1.54.63,3.04.57,4.48Z"/>
    <path class="cls-1" d="M162,57.46l-2.93-2.64c.75,3.21.89,4.68-.63,7.62-.01.02-.03.04-.04.07-.02.03-.03.05-.05.09-.09.15-.22.37-.38.6-.05.07-.1.14-.15.22,0,.01-.01.02-.03.03-.03.05-.07.11-.11.17-.33.45-.71.91-1.04,1.15-.32-.24-.71-.7-1.03-1.15-.05-.06-.08-.12-.12-.17l-.03-.03c-.05-.08-.09-.15-.14-.22-.16-.23-.3-.45-.39-.6-.01-.04-.03-.06-.04-.09-.02-.03-.04-.05-.05-.07-1.52-2.94-1.37-4.41-.63-7.62l-2.92,2.64c-2.47-4.08.42-8.57,3.74-11.15l1.33,1.58h.56l1.33-1.58c3.32,2.58,6.21,7.07,3.75,11.15Z"/>
    <path class="cls-1" d="M161.72,105.37l-2.12-.53c.07.41.11.8.11,1.17,0,.1-.01.2-.01.31,0,.06-.02.12-.02.18-.02.22-.05.43-.1.63,0,.05-.02.09-.03.14-.04.15-.07.29-.12.42-.04.12-.09.24-.14.36-.01.01-.01.02-.01.03-.03.07-.06.14-.09.2-.02.04-.04.08-.07.11-.05.12-.11.22-.17.32-.06.11-.13.21-.2.31-.07.12-.15.22-.23.33-.51.67-1.16,1.29-1.88,1.94-.72-.65-1.37-1.27-1.87-1.94-.09-.11-.16-.21-.24-.33-.07-.1-.14-.2-.19-.31-.07-.1-.13-.2-.18-.32-.02-.03-.04-.07-.06-.11-.04-.06-.06-.13-.1-.2,0-.01,0-.02-.01-.03-.05-.12-.1-.24-.14-.36-.04-.13-.08-.27-.12-.42-.01-.05-.02-.09-.03-.14-.05-.2-.08-.41-.1-.63,0-.06-.01-.12-.01-.18-.01-.11-.01-.21-.01-.31,0-.37.03-.76.1-1.17l-2.12.53c-.39-2.04-.75-4.01-.53-6.13.12-1.19.91-4.66,2.65-3.75l2.96,2.06,2.96-2.06c1.74-.91,2.54,2.56,2.66,3.75.21,2.12-.15,4.09-.54,6.13Z"/>
    <path class="cls-1" d="M162.26,38.32c-3.47.04-5.06-3.46-5.6-6.39l-.02.04-.02-.04c-.54,2.93-2.13,6.43-5.59,6.39-.61-3.19-1.27-6.12.04-9.26,1.07-2.55,4.27-5.55,5.28-1.39.1.03.2.04.29.04s.19-.01.29-.04c1.01-4.16,4.22-1.16,5.28,1.39,1.31,3.14.65,6.07.05,9.26Z"/>
    <path class="cls-1" d="M160.92,156.44l-.52-1.58-3.74,4.78-.02-.02-.02.02-3.74-4.78-.52,1.58c-2.08-2.14-5.08-4.09-3.99-7.44,1.72,2.61,3.49,1.29,4.76,1.84.82.34,2.37,2.44,2.77,3.38.26.15.51.23.74.24.24-.01.49-.09.74-.24.4-.94,1.95-3.04,2.77-3.38,1.28-.55,3.05.77,4.77-1.84,1.09,3.35-1.91,5.3-4,7.44Z"/>
    <path class="cls-1" d="M172.91,45.76c-2.34.18-4.1,1.86-6.37.24-.03-.02-.05-.04-.08-.08-.06-.04-.1-.11-.14-.18-.02-.03-.04-.07-.05-.1-.03-.07-.06-.14-.08-.22-.02-.07-.05-.14-.07-.21-.04-.11-.07-.21-.12-.29-.08-.14-.19-.23-.39-.23-.04,0-.09.01-.15.02l-.27,3.72-6.66-3.73c-.01-.11-.02-.21,0-.31,0-.04,0-.08.01-.12.08-.6.52-1.04,1.04-1.39.11-.07.23-.15.35-.21.24-.13.5-.25.73-.36,4.82-2.21,8.79.11,12.25,3.45Z"/>
    <path class="cls-1" d="M169.89,62.45c-.06.25-.14.48-.22.7-.13.34-.29.64-.47.92-.11.17-.23.33-.37.47-.14.15-.29.28-.45.38,0,.01-.01.01-.01.01-.03.01-.09-.01-.17-.05h0c-.07-.04-.16-.09-.26-.15-.01,0-.01-.01-.01-.01-.08-.05-.17-.1-.26-.16-.03-.01-.06-.03-.09-.06-.06-.03-.12-.07-.19-.12-.1-.07-.2-.14-.31-.22-.04-.02-.08-.05-.12-.08h0c-.07-.05-.14-.1-.21-.15-.01,0-.01-.01-.01-.01-.14-.1-.29-.21-.42-.31-.01,0-.01,0-.01,0-.07-.05-.14-.1-.2-.15h0c-.07-.05-.14-.1-.2-.16-.06-.04-.12-.09-.18-.13h0c-.06-.05-.12-.1-.17-.14-.1-.07-.19-.14-.26-.21-.05-.04-.09-.08-.13-.11-.03-.03-.06-.05-.07-.07-.6-.75-1.23-2.25-1.2-3.23.02-.86.72-3.98,1.61-5.84.08-.17.17-.33.25-.48.08-.14.17-.28.25-.39.26-.36.52-.57.78-.57.53,0,1.01.25,1.43.67.1.11.21.22.31.35.15.19.28.4.41.63.22.39.41.83.58,1.31.09.26.17.53.25.81,0,.06.02.11.04.16.07.26.12.53.18.81.35,1.88.35,3.96-.09,5.59Z"/>
    <path class="cls-1" d="M169.71,92.6c-1.26,1.02-1.93-1.32-2.4-1.6-1.28-.76-.41,2.42-1.6,2.66-.03,0-.07-.01-.11-.01-.04-.01-.07-.02-.12-.03-.59-.14-1.72-.69-2.61-1.32h-.01s-.1-.08-.15-.12c-.24-.18-.45-.36-.62-.54-.05-.05-.09-.1-.14-.14-.02-.04-.05-.06-.07-.1-.06-.08-.11-.15-.14-.23-.04-.04-.06-.08-.07-.12-.01-.03-.02-.05-.02-.07,0-.01-.01-.01-.01-.02,0-.03,0-.06,0-.08s-.01-.05-.01-.08c0-.06.01-.12.03-.17.01-.05.03-.09.06-.13,0-.01.01-.01.02-.02h0c.13,0,.26,0,.38-.01.06,0,.12-.01.18-.02l.18-.03c.06,0,.11-.03.16-.04.14-.05.27-.11.38-.17.18-.1.33-.23.47-.36.16-.15.3-.33.44-.51.09-.12.18-.24.27-.36.09-.12.17-.23.28-.34.09-.11.19-.22.31-.32.05-.03.09-.06.14-.09.05-.03.11-.06.18-.08.02-.01.04-.01.06-.02.07-.03.14-.06.22-.08.24-.08.49-.15.72-.26.08-.03.15-.07.21-.11.07-.05.13-.09.19-.15.07-.07.14-.14.22-.22.5-.6.79-1.45,1.6-2.3.04-.03.07-.08.11-.11.18-.18.19-.46.24-.65.01-.08.04-.13.08-.17.03-.03.09-.03.16,0,.13.05.25.12.35.22.08.07.16.16.23.26.07.1.13.21.19.33s.12.25.17.39h0c.05.15.09.3.13.45.61,2.41.14,6.54-.27,6.87Z"/>
    <path class="cls-1" d="M171.87,33.3c0,.33-.02.66-.05.98-.01.1-.02.21-.04.31,0,.05-.01.11-.02.17-.02.16-.05.31-.08.46-.04.21-.09.41-.14.6-.01.04-.03.09-.05.14-.05.21-.13.41-.21.61,0,.03-.02.05-.03.08h0s-2.07.07-2.07.07l.53-2.1c-4.37-.9-6.9-5.95-5.21-10.02,1.81-.38,3.35.2,4.54,1.32.08.07.17.16.25.25.41.43.78.93,1.1,1.48.13.22.25.44.36.68.11.23.21.47.31.71.08.21.16.43.23.65.06.19.12.38.17.57.05.16.09.33.12.5.03.12.06.25.08.38.04.18.07.36.09.54.03.18.05.36.06.54.01.05.02.09.02.13,0,.05.01.09.01.14.02.27.03.54.03.81Z"/>
    <path class="cls-1" d="M172.49,71.89c.02.42-.01.85-.06,1.27l-.03.15c-.07.52-.19,1.04-.36,1.55-.52,1.61-1.44,3.12-2.59,4.26-.2.2-.4.38-.61.55l-.18.15h-.01c-.12-1.01-.28-2.04-.46-3.07-.18-1.03-.38-2.06-.61-3.05-.19-.82.35-.92-1.05-.79-.02.18-.06.46-.13.8-.03.14-.06.28-.09.44-.05.23-.11.48-.18.74-.5,2.01-1.44,4.62-2.5,4.38-.04-.01-.08-.02-.13-.04-.14-.06-.31-.16-.5-.3-.13-.09-.27-.2-.41-.33-2.17-1.85-6.12-6.94-5.01-8.78h0s.05-.07.09-.09c.09-.06.21-.11.36-.17.36-.14.83-.31,1.05-.61.8-1.11,1.84-4.04,3.45-4.04.24,0,.48.07.72.19.12.06.25.14.37.23,1.78,1.3,3.38,5.32,2.9,7.04,1.82.18.93-2.23,3.42-1.61l.57,1.08,1.06-3.19s0,.01,0,.01c.06.1.11.19.16.29.04.08.08.17.12.25.12.23.21.46.29.7.05.15.09.3.12.45.01.02.02.03.02.05,0,.01,0,.03.01.05.01.03.02.06.03.1.02.07.03.15.04.23.02.07.03.14.04.21.01.03.01.06.01.09v.03s.01.05.01.07c.01.02.01.03.01.05v.04s0,.04,0,.07c.01.01.01.03.01.04v.02s.01.05.01.07c.01.03.01.05.01.08v.12c.01.08.01.15.01.22Z"/>
    <path class="cls-1" d="M172.91,25.01c-.42-.03-.74-.17-1.02-.38-.14-.09-.26-.2-.37-.33-.06-.06-.12-.13-.17-.2l-.18-.21c-.05-.07-.1-.14-.15-.21-.06-.08-.11-.16-.17-.24-.09-.12-.17-.24-.26-.35-.09-.12-.18-.24-.27-.35-.02-.02-.04-.05-.07-.08-.1-.12-.22-.24-.34-.35-.07-.07-.14-.13-.22-.19-.9-.69-2.2-1.06-3.18-1.63-.7-.41-1.34.09-1.05-1.33,2.45-.07,5.19,1.1,6.57,3.15.12.17.22.35.32.54.33.65.53,1.37.56,2.16Z"/>
    <path class="cls-1" d="M174.16,137.84c-.16.42-.34.83-.55,1.22-.1.2-.2.39-.32.58-.22.39-.46.75-.72,1.1-.52.7-1.12,1.34-1.78,1.87h-.01s-1.33-4.77-1.33-4.77c-.42.01-3.07,6.46-5.05,6.37.19-1.89-1.92-5.13-1.67-7.16,0-.05.01-.1.02-.15s.02-.1.04-.15c.01-.05.02-.1.04-.15.01-.03.03-.06.04-.09.02-.04.04-.08.06-.12h0s.03-.07.03-.07c.02-.04.05-.08.08-.13.03-.04.08-.08.15-.12.04-.03.09-.06.15-.09.01-.01.01-.02.02-.02.05-.03.1-.06.16-.08.56-.29,1.47-.7,2.02-1.46.05-.07.1-.15.14-.23.09-.15.17-.31.22-.49.04-.11.07-.22.08-.34.01-.02.01-.04.01-.06.02-.12.03-.25.03-.38v-.02c0-.06,0-.13,0-.19,0-.07-.01-.14-.02-.2h.01s1.1.64,1.1.64l.7.4,1.91-2.11.8,3.18c.39-1.49,2.95-2.76,3.33-3.33.05-.07.08-.16.1-.24.03-.16.02-.34.02-.51-.01-.2-.02-.39.03-.52.01-.03.02-.05.05-.08.07-.09.21-.13.46-.09.85,2.52.66,5.43-.34,7.99Z"/>
    <path class="cls-1" d="M175.57,102.17l-2.66-1.06c-.07.71.31,1.11.73,1.53.05.05.1.1.15.15.05.04.1.09.14.14.1.1.18.2.26.32.08.11.16.24.21.37.06.13.1.28.12.44.21,1.56-.92,3.46-1.08,5.03-.2.14-.95-.12-1.9-.57-.26-.12-.53-.26-.8-.41h-.01c-.18-.1-.37-.2-.56-.3-.2-.11-.39-.22-.59-.32-.19-.12-.37-.23-.56-.34-1.32-.78-2.51-1.58-2.85-1.97-1.81-2.08-3.49-6.73-.99-8.84l1.61,1.02c.09-.15.17-.29.27-.43,1.2-1.91,2.45-2.8,3.61-2.95.07-.01.13-.02.19-.02.08-.01.15-.01.22-.01.09,0,.18.01.27.02.1.01.2.02.29.05.27.05.53.15.78.28.04.02.08.04.12.06.03.02.06.04.09.06.14.08.28.18.41.29.07.05.14.1.2.16h0c.17.16.33.33.49.52.1.12.19.24.28.37.3.41.57.88.8,1.4.02.06.04.11.06.17.03.07.06.15.09.23.01.03.03.05.03.07.01.02.02.04.03.07.02.05.03.11.05.16.03.08.05.15.08.22.01.03.02.06.02.09.04.12.07.24.1.37.06.19.1.38.14.58.03.15.06.3.08.45.01.01.01.02,0,.03.02.07.03.14.04.21h0c.04.29.06.57.07.85.03.5.02,1-.03,1.51Z"/>
    <path class="cls-1" d="M176.79,57.68v.13c.02.56-.01,1.09-.09,1.58-.02.13-.05.26-.07.38-.01.03-.02.05-.04.07-.01.02-.02.04-.04.06-.06.07-.17.13-.29.17-.07.03-.16.06-.24.1-.2.06-.38.15-.43.34-.4,1.54-.17,3.79-1.09,5.48-4.61-1.49-2.38-5.13-2.69-8.19-.31-3.17-3.43-4.79-1-8.28.25.01.5.04.74.1.14.03.27.07.41.12.11.03.21.07.31.12.05.01.1.03.14.06.1.04.2.09.3.15.1.05.2.1.29.16.33.21.64.46.93.75.07.06.13.13.19.19.23.23.44.48.63.75.08.1.14.2.21.3.07.1.14.21.21.31.02.04.04.08.07.12.12.2.24.42.34.63.42.82.74,1.7.94,2.59.03.09.05.18.06.27.05.25.1.5.13.75.03.19.05.38.06.57,0,.02.01.04,0,.05.01.06.01.11.02.17Z"/>
    <path class="cls-1" d="M178.77,90.46c-.24.11-.53.2-.84.27-.31.07-.64.12-.99.15-1.69.14-3.7-.22-4.62-1.19-.46-.48.04-1.42.53-2.41.09-.18.18-.36.26-.54.09-.18.16-.36.23-.53,0-.01.01-.01.01-.01.03-.09.05-.18.08-.26h.01v-.02c.02-.08.04-.15.06-.23h0s.01-.01.01-.02c.02-.08.03-.16.03-.24h.01v-.04c.01-.06.01-.12.01-.18s0-.12-.01-.17c0-.04,0-.08-.01-.12,0,0-.01-.02-.01-.03,0-.03-.01-.06-.02-.08,0-.02,0-.03-.01-.04-.01-.03-.02-.06-.03-.09-.01-.02-.02-.04-.02-.06h0c.07-.08.18-.1.31-.06.43.1,1.19.7,2,1.5.07.07.15.14.22.22.15.15.3.3.44.46.29.32.59.65.86.98.2.25.39.49.57.73.19.26.36.51.52.75.07.11.13.22.19.33.23.44.33.78.22.93Z"/>
    <path class="cls-1" d="M179.29,105.37s-.02.01-.04.01c-.05,0-.13-.04-.22-.1-.05-.02-.1-.06-.16-.11-.06-.04-.12-.09-.19-.13-.08-.06-.17-.14-.25-.21-.1-.09-.2-.18-.3-.26,0-.01-.01-.01-.02-.02-.06-.06-.11-.11-.16-.16-.14-.14-.24-.26-.28-.33-.4-.71-.69-3.15-.86-4.97-.03-.3-.05-.58-.08-.84-.02-.26-.04-.48-.05-.67-.04-.47-.09-.86-.04-1.2.01-.04.02-.08.03-.12.01-.05.02-.09.04-.14.01-.04.03-.08.04-.12.01-.02.02-.04.04-.06.01-.02.02-.05.04-.08.01-.02.03-.05.06-.08,0-.01.01-.03.03-.05.03-.04.07-.08.11-.12.03-.04.05-.06.09-.09.03-.02.06-.05.09-.08.07-.06.14-.12.23-.18h0c.11.1.22.21.32.32,2.43,2.52,2.36,6.52,1.53,9.79Z"/>
    <path class="cls-1" d="M180.36,79.82c-.34.33-1.08.31-1.7-.05-.16-.1-.31-.22-.45-.36-.33-.35-.55-.82-.54-1.43.01-.53.2-1.01.36-1.51.07-.19.12-.39.17-.59.01-.1.03-.2.04-.31,1.28.16,2.74,3.64,2.12,4.25Z"/>
    <path class="cls-1" d="M180.8,118.86c0,.6-.03,1.21-.09,1.82-.03.39-.08.77-.15,1.16-.01.08-.02.16-.04.24l-.03.21c-.01.08-.03.15-.05.23-.03.15-.05.3-.09.45-.03.15-.06.3-.1.45-.01.05-.02.1-.03.15-.05.25-.12.5-.18.74-.07.25-.14.5-.21.74h0s0,.01,0,.01h0s-4.24-4.26-4.24-4.26l-1.87,4.77-3.73-4.76-4.26,6.89c-.98-1.56-1.77-3.12-2.26-4.71-.09-.29-.17-.58-.23-.87-.06-.21-.11-.44-.14-.66-.01-.04-.02-.09-.02-.13-.01-.03-.01-.05-.01-.08-.02-.06-.03-.12-.03-.18-.01-.02-.01-.03-.01-.05-.03-.22-.05-.41-.07-.63,0-.07,0-.14,0-.21-.02-.22-.03-.46-.03-.68,0-.09,0-.18.01-.26,0-.09.01-.17.01-.24v-.09c0-.12.01-.23.02-.35,0-.01,0-.03.01-.05.01-.16.03-.32.05-.48.02-.16.05-.32.08-.49.01-.08.03-.16.04-.25,0-.05.03-.1.04-.16.01-.02.01-.05.02-.07.03-.17.07-.34.12-.51.09-.34.2-.67.32-1.01.07-.2.15-.39.23-.59h.01c.33-.04.6,0,.82.1.09.03.17.08.25.13.08.04.15.1.21.16.82.74,1,2.28,1.9,2.79l2.4-5.83h0c.12.07.23.17.34.27.11.09.22.2.32.3.11.1.22.21.31.32.21.22.41.44.6.67.48.58.91,1.17,1.3,1.64.16.19.3.36.44.5.93.94,1.52.69,1.75-3.18h0s2.12.53,2.12.53l.8-2.66c.15.14.3.27.44.42.08.07.15.15.22.23.25.27.49.56.7.85.06.08.12.15.17.23.02.02.03.05.04.07.39.57.71,1.17.96,1.8.03.09.07.17.1.26.2.53.35,1.07.47,1.63.01.07.02.13.04.19,0,.09.03.18.04.27.06.34.1.68.13,1.03.02.14.03.29.03.43.02.25.03.51.03.76Z"/>
    <path class="cls-1" d="M184.19,30.63c0,.15-.01.3-.02.45,0,.03,0,.05-.01.08,0,.03,0,.06-.01.09,0,.15-.02.3-.04.45,0,.09-.01.18-.03.27,0,.09-.02.19-.04.28-.01.13-.04.27-.07.4-.02.15-.05.3-.09.45-.04.23-.1.47-.17.7-.1.4-.24.8-.39,1.19-.02.08-.05.14-.09.22-.05.14-.11.29-.18.43-.09.2-.18.4-.29.59-.1.2-.21.38-.32.57-.05.1-.12.21-.19.31,0,.02-.01.04-.02.05-.03.04-.06.08-.08.12-.05.06-.09.12-.13.18-.15.23-.32.45-.5.67-.05.06-.1.12-.16.18-.59.7-1.3,1.33-2.1,1.85-.23.15-.45.26-.67.33-.11.04-.22.07-.32.08-.05.01-.1.02-.15.01-.16.02-.32.02-.47-.01-.09-.02-.18-.04-.26-.06-.06-.02-.11-.04-.16-.07-.03-.01-.06-.02-.1-.04-.08-.04-.17-.08-.24-.13-.11-.07-.22-.15-.32-.24-.05-.05-.1-.09-.15-.14-1.14-1.11-1.81-3.24-1.9-4.53-.12-1.66,2-5.7,3.23-6.84,1.3-1.19,5.21-3.53,4.21.22l2.13-.53c.03.2.05.4.06.61.02.15.03.31.03.46.03.45.04.9.01,1.35Z"/>
    <path class="cls-1" d="M185.15,73.97c-3.76-1.61-6.41-2.98-6.91-7.44h0c.07-.09.2-.1.36-.07.05.01.1.03.15.05.18.05.38.15.6.28.14.09.3.19.46.3.34.24.7.53,1.08.85.19.15.38.32.56.49.82.75,1.65,1.62,2.31,2.47.09.12.18.23.26.34.07.09.13.17.18.25.12.16.22.31.31.46.52.81.79,1.54.64,2.02Z"/>
    <path class="cls-1" d="M180.88,5.04c-3.82,1-7.82,3.07-10.58,5.93-2.3,2.39-2.61,6.01-6.44,5,2.56-8.41,11.05-13.58,19.17-15.97h4.26c3.15,5.21-3.08,4.17-6.41,5.04Z"/>
    <path class="cls-1" d="M191.5,106.41c-.05.05-.15.06-.31.05-.04,0-.08,0-.12-.01-.09-.01-.19-.02-.31-.03l-5.07-3.18,1.06,5.85c-.13-.08-.25-.16-.37-.25-.18-.13-.35-.27-.51-.41-.06-.05-.11-.1-.16-.15-.37-.35-.68-.72-.94-1.13-.09-.14-.18-.28-.26-.43-.09-.15-.17-.31-.24-.47-.43-.9-.7-1.9-.87-2.93-.04-.28-.08-.56-.12-.84-.02-.21-.05-.41-.06-.62-.02-.16-.03-.33-.04-.5-.02-.23-.03-.45-.04-.68-.04-.6-.05-1.21-.06-1.8,0-.88-.02-1.75-.05-2.56.36.04.71.11,1.04.2.14.03.27.06.4.11.73.21,1.4.52,2.02.91.09.06.19.12.28.19.75.5,1.42,1.13,1.99,1.84.06.06.11.13.16.2.09.12.18.24.26.35.03.04.05.07.08.11.06.08.11.17.17.25.06.09.11.18.16.26.03.04.04.08.07.12.01.01.02.03.03.04.02.04.05.07.07.11.03.05.05.1.08.15.02.04.05.09.07.13.02.04.04.07.06.11.05.09.1.18.14.27.03.05.06.11.09.17.07.15.14.29.2.43.02.05.04.1.06.15.12.26.23.53.33.81.1.27.19.53.27.81.17.55.31,1.11.42,1.67.03.12.05.22.06.31.03.21.03.33-.04.39Z"/>
    <path class="cls-1" d="M189.04,23.17c-.11.11-.23.21-.34.32-.32.28-.67.54-1.04.77-.15.09-.3.18-.46.26-.03.02-.06.04-.09.05-.01.01-.02.01-.03.01h0c-.58.3-1.21.54-1.91.71-.02,0-.04,0-.07,0-.04.02-.08.03-.12.03-.2.05-.41.09-.63.12-.25.04-.52.08-.79.1h0s-.01-3.19-.01-3.19l-2.11,1.06h-.01c.11-2.93.94-5.48,2.46-7.31.19-.23.39-.44.6-.65,1.78-1.74,4.33-2.6,7.59-2.15.13,3.8-.69,7.52-3.04,9.86Z"/>
    <path class="cls-1" d="M194.74,61.19c-.64.11-1.32.22-2.03.33-.46.06-.94.13-1.43.18-3.05.32-6.3.17-8.25-2.09.79-1.05,10.61-.9,11.71,1.58Z"/>
    <path class="cls-1" d="M196.87,88.34h-.01l-1.55-.57-4.3-1.55,1.6,4.24h0c-.12,0-.23-.01-.35-.02-.17-.01-.33-.03-.49-.05-.27-.03-.53-.07-.79-.12-.17-.03-.35-.06-.51-.1-.1-.02-.2-.04-.29-.07-.41-.11-.8-.23-1.17-.37-.14-.05-.28-.11-.41-.17-.09-.04-.18-.08-.26-.12-.05-.02-.11-.05-.16-.07-.09-.05-.17-.1-.26-.15-.03-.01-.05-.02-.07-.03-.11-.05-.21-.11-.32-.18-.02-.01-.04-.03-.07-.05-.03-.01-.06-.03-.09-.05-.08-.05-.16-.1-.24-.17-.6-.4-1.14-.87-1.62-1.4-.11-.13-.22-.26-.33-.39-.15-.18-.29-.37-.42-.56l-.24-.36c-.24-.37-.46-.75-.64-1.16-.09-.15-.16-.31-.22-.47-.02-.04-.04-.07-.05-.11-.07-.15-.13-.31-.18-.47-.03-.07-.06-.15-.08-.22-.04-.1-.07-.2-.1-.3-.05-.14-.1-.29-.14-.44-.05-.16-.09-.32-.13-.48-.02-.05-.03-.11-.04-.16-.03-.11-.05-.22-.07-.33-.03-.12-.06-.23-.08-.35-.04-.18-.07-.36-.1-.55-.02-.14-.04-.27-.05-.4-.03-.11-.04-.22-.05-.34-.04-.31-.08-.63-.1-.95,3.62-1.22,7-.4,9.61,1.61.25.2.5.4.74.62.12.11.24.22.35.34,1.2,1.17,2.18,2.61,2.88,4.2.12.26.23.53.33.8.09.24.17.48.25.73.08.24.16.49.22.74Z"/>
    <path class="cls-1" d="M197.93,72.91c-2.99-1.69-6.37-2.98-9.41-4.72-.91-.52-1.79-1.08-2.63-1.71-.55-.41-1.09-.86-1.59-1.34-.25-.23-.5-.48-.74-.74h0c.33-.03.65-.05.96-.05,1.39-.05,2.72-.01,4.01.25.43.08.85.18,1.26.32.14.04.28.09.42.14.55.2,1.1.45,1.64.77h.01c.07.04.13.08.2.12s.13.08.2.12c.03.02.06.04.1.07.03.03.07.05.11.09.13.1.28.23.46.4.06.05.12.11.19.17.06.06.13.12.2.19.07.06.14.13.21.2s.15.14.22.22c.08.07.16.15.23.23.08.08.17.16.24.24,1.86,1.88,4.17,4.55,3.71,5.03Z"/>
    <path class="cls-1" d="M199,125.05l-1.99-.4-4.39-3.31.52,5.31c-5.91-2.91-6.41-11.54-2.87-16.45,7.43,1.73,9.55,7.76,8.73,14.85Z"/>
    <path class="cls-1" d="M201.83,7.76c.3,1.48-5.59,4.56-6.53,4.78-.42.1-.66.17-.85.13-.03,0-.07,0-.1-.03-.01,0-.03-.01-.04-.02-.04-.02-.08-.04-.12-.08-.14-.1-.29-.28-.51-.57-.57-2.24,6.03-5.33,7.98-4.51.03.03.06.06.08.09.05.07.08.14.09.21Z"/>
    <path class="cls-1" d="M202.72,79.29c-6.84-.66-14.1-3.37-17.03-10.11,3.94,1.96,8.49,3.08,12.36,5.2.97.53,1.9,1.12,2.76,1.81.29.22.57.46.84.71h0s1.07,2.39,1.07,2.39Z"/>
    <path class="cls-1" d="M203.79,56.4c-1.27-.03-2.54-.02-3.81-.01-2.18.03-4.38.09-6.57.05-.36.01-.72,0-1.09-.01-1.27-.03-2.44-.56-3.71-.6-1.94-.05-4.14,1.46-5.57-.22,5.78-3.32,16.18-5.19,20.75.79Z"/>
    <path class="cls-1" d="M203.81,99.52l2.11,5.31c-7.31.49-11.15-5.41-10.12-12.24,6.09-.57,10.76,2.23,12.78,7.98l-4.77-1.05Z"/>
    <path class="cls-1" d="M209.65,70.77c-1.2.93-14.11-5.28-15.44-7.44,3.8-.53,6.86-.17,9.43,1.19.52.27,1.02.59,1.51.95.48.35.94.75,1.39,1.19,1.13,1.1,2.15,2.47,3.11,4.11Z"/>
    <path class="cls-1" d="M211.78,140.34c-.14.15-.31.29-.53.42-.23.14-.48.24-.74.31-.12.03-.24.05-.37.06-.04.01-.09.01-.13.02h-.05c-.08.01-.16.01-.24.01h-.03c-.11,0-.21,0-.33-.01-.09-.01-.18-.02-.28-.03-.09-.01-.19-.03-.29-.05-.03,0-.06-.01-.09-.02-.08,0-.16-.03-.24-.06-.07-.02-.14-.04-.22-.06-.09-.02-.18-.05-.27-.09-.11-.03-.21-.07-.31-.11-.19-.07-.37-.15-.56-.24-.19-.09-.39-.18-.58-.29-1.62-.87-3.32-2.23-4.87-3.75-.08-.08-.17-.16-.25-.24-.08-.08-.15-.16-.23-.24-.08-.09-.17-.17-.25-.26-.16-.16-.31-.33-.47-.49-.08-.09-.15-.17-.22-.26-.06-.06-.12-.13-.17-.19-.18-.21-.36-.41-.53-.62-.21-.24-.4-.47-.58-.71-.07-.09-.14-.17-.2-.25s-.12-.16-.19-.24c-.12-.17-.24-.33-.36-.49-.93-1.31-1.6-2.52-1.85-3.42.65-.92,1.98-1.03,3.05-.78.1.02.2.05.3.08.07.02.15.07.23.13h0s.01.01.01.01c.09.06.18.15.28.25.92.88,2.43,2.99,3.32,3.76.78.67,3.15,1.95,5.19,3.36.24.16.48.33.71.5.34.25.66.5.96.76.2.17.39.33.56.51.09.08.18.17.25.25.84.9,1.18,1.76.57,2.47Z"/>
    <path class="cls-1" d="M217.1,43.64c-4.8,3.37-9.61,7.91-15.97,7.44.29-.9,2.14-1.46,3.05-2.3.08-.07.14-.15.21-.22.22-.28.34-.6.27-.97-.02-.07-.05-.15-.08-.23-4.88,2.14-9.57,2.86-14.88,3.22-.61.04-2.95.38-2.94-.55,9.81-3.41,19.7-8.12,30.34-6.39Z"/>
    <path class="cls-1" d="M215.5,78.22c-.23.03-.47.05-.7.06-.12.01-.24.01-.35.02-.12,0-.24.01-.35.01-.39.01-.77.01-1.15-.02-.05,0-.09,0-.14-.01h-.04c-.13,0-.26-.02-.39-.03-.01-.01-.02-.01-.03-.01-.19,0-.38-.03-.56-.06-.28-.03-.54-.07-.81-.12-.3-.05-.6-.12-.89-.19-.59-.14-1.17-.32-1.74-.53h-.01c-.57-.2-1.13-.44-1.67-.71-3.47-1.67-6.46-4.43-8.89-7.49-.13-.16-.26-.32-.38-.48h.01l14.76,5.14,3.33,4.42Z"/>
    <path class="cls-1" d="M224.45,113.71c-.07.28-.18.52-.32.73-.07.1-.15.2-.23.28-.17.19-.39.35-.63.46-.47.23-1.04.33-1.68.33-.28,0-.58-.01-.88-.05-.03,0-.06,0-.09-.01-.11-.01-.21-.03-.32-.04h-.01s-.02-.01-.02-.01c-.25-.04-.49-.08-.74-.14-.04-.01-.08-.01-.12-.02-.05,0-.09-.02-.14-.04-.1-.02-.2-.05-.29-.07h-.02s-.04-.02-.05-.02c-.03,0-.05,0-.08-.02-.08-.02-.15-.04-.23-.06-.18-.06-.37-.11-.55-.17-.61-.19-1.22-.42-1.8-.66-.34-.14-.67-.29-.98-.43-.12-.06-.24-.11-.36-.17-.04-.02-.07-.03-.11-.05h0c-.08-.04-.15-.08-.23-.12-.07-.03-.14-.07-.21-.1h0s-.07-.04-.11-.06c-.11-.05-.21-.1-.31-.16h0s-.02-.02-.03-.02c-.12-.06-.24-.12-.35-.19h0s-.07-.04-.1-.06c-.21-.11-.4-.22-.57-.33-.13-.08-.26-.16-.38-.25-.12-.08-.24-.17-.35-.25s-.23-.17-.34-.26c-1.22-.96-2.2-2.04-3.49-2.85-.23-.14-.48-.28-.74-.41l1.79-3.65c4.3,4.07,9.53,5.55,15.1,6.98h.01c.12.76.1,1.39-.04,1.89Z"/>
    <path class="cls-1" d="M225.61,74.22v.02c-.07.09-.15.17-.23.26-.13.14-.27.26-.41.38-.29.24-.6.44-.94.6-.09.05-.17.09-.26.12-.08.04-.17.07-.26.11-.03.02-.06.03-.09.04-.14.06-.29.11-.44.15-.02.01-.05.02-.08.03-.14.05-.28.09-.42.13-.02.01-.03.01-.05.01h0c-.37.11-.74.19-1.11.27-.23.05-.45.09-.67.14l-4.61-2.5c1.09.57,7.76-1,9.27-.19.07.03.13.08.16.12.1.09.14.19.14.31Z"/>
    <path class="cls-1" d="M229.88,71.57c-.55,1.28-5.07.22-6.68.25-.58.01-1.13.09-1.66.2-.11.02-.22.05-.33.07-.19.04-.38.08-.57.12-.02,0-.05.01-.08.01h0c-.1.03-.21.05-.32.06-.05.02-.1.03-.16.03-.05.01-.11.02-.16.02-.02,0-.03.01-.04.01-.09.02-.18.03-.27.03-.02,0-.04.01-.05.01-.06.01-.11.02-.16.02h-.11c-.06.01-.11.01-.16.01-.05,0-.11,0-.16,0-.14,0-.28,0-.42,0-.07,0-.13,0-.2-.01-.07,0-.14-.01-.2-.01-.05,0-.1,0-.15-.01-.26-.01-.51-.04-.76-.07-.05-.01-.09-.02-.13-.02-.16-.03-.33-.06-.49-.09-.11-.02-.21-.04-.32-.07-.13-.02-.25-.05-.37-.09-.12-.03-.24-.06-.35-.1-.34-.1-.67-.22-.98-.35-2.77-1.15-4.76-3.39-7.08-5.87,1.23-.73,2.96.33,4.18.61.85.2,1.67.51.74-.45-.04-.05-.09-.1-.14-.14h0s-.06-.09-.11-.13c-.19-.18-.58-.39-1.1-.61-.25-.11-.55-.22-.87-.34-.32-.11-.67-.23-1.04-.36-.09-.03-.18-.06-.28-.09-.09-.03-.19-.06-.29-.09h0c-.1-.04-.19-.07-.29-.1-.1-.03-.2-.06-.3-.09h0c-.2-.07-.41-.13-.62-.2-.21-.06-.42-.12-.63-.19-.43-.13-.87-.26-1.31-.39-.43-.13-.87-.26-1.31-.39-.43-.13-.86-.26-1.28-.39-.42-.13-.83-.26-1.22-.38-1.36-.43-2.51-.85-3.16-1.2-.47-.25-.68-.47-.55-.65,3.85-.78,7.72-.6,11.48.25.6.14,1.21.3,1.81.47,2.1.61,4.16,1.41,6.16,2.37.58.28,1.14.56,1.7.86.85.45,1.67.92,2.49,1.41.81.49,1.61,1,2.4,1.54.52.35,1.04.71,1.54,1.08.51.37,1.01.74,1.51,1.12.49.38.97.76,1.45,1.15.47.39.94.78,1.4,1.18Z"/>
    <path class="cls-1" d="M242.11,55.61c-5.12,4.79-16.27,9.94-22.72,5.72-.51-.34-.96.06-.69-1.19,4.16-.12,8.59-.79,12.52-2.13.22-.07.53-.13.84-.21.1-.03.21-.06.3-.09.06-.02.12-.05.18-.07.11-.05.21-.11.3-.17.04-.04.08-.07.11-.11.09-.12.14-.25.12-.41-7.38.64-22.05,4.63-27.42-2.13-.14-.17-.29-.3-.42-.43l-.14-.14c-.23-.24-.36-.52-.23-1.03l16.76-1.07,5.56-1.05c-.86-.08-1.72-.13-2.57-.17-4.48-.18-8.83.18-13.36.15,1.85-2.15,6.42-6.59,9.25-6.36,1.89.15,10.04,3.41,12.16,4.39.64.3,1.28.61,1.91.96.21.1.42.22.64.34.07.04.14.07.21.12.08.04.15.08.22.12.17.1.34.2.5.3,1.01.59,2,1.24,2.93,1.95.24.18.48.36.71.56.08.06.17.12.25.19.08.06.15.13.22.19.04.04.08.07.12.11.11.09.23.19.34.3l.09.09c.21.17.41.36.61.56.07.07.14.14.21.21.13.12.25.24.37.37.04.04.08.08.12.13Z"/>
    <path class="cls-1" d="M247.87,294.88c.01.87.48,2.25.36,2.91-.38,2.13-4.89,3.8-6.07,5.66-.35-.11-.31-.12-.38-.4-.8-3.25-.29-10.41,2.2-12.78.16-.15.94-.69.93-.04-.01.46-1.67,3.82-1.98,4.85-.12.42-.71,1.82-.04,1.98.85-2.25,2.3-5.89,3.85-7.69.4-.46,1.6-.72,2.18-.97-.71,2.11-1.07,4.26-1.05,6.48Z"/>
    <path class="cls-1" d="M252.87,308.31c-2.09,2.25-5.51,2.78-7.19,5.47-.24.07-.92-1.78-1.02-2.07-.7-1.99-1.35-6.45-.37-8.36.24-.47.24-.71.76-.3-.38,1.88-.36,3.93.23,5.76.46-2.53.02-5.14,1.37-7.5.65-.21.21,2.02.22,2.29.02.77.01,1.74.3,2.45l1.53-6.22,1.14,1.83c.52.16,1.77-1.81,2.61-1.15-.87,2.59.26,5.2.42,7.8Z"/>
    <path class="cls-1" d="M235.74,37.26l.25,1.05c4.65-1.3,19.02.04,13.82,7.42-1.69,2.4-4.22,2.43-4.49,2.71-.06.05.6.91.3,1.57-1.36,2.93-8.29-.79-9.88-2.38.53-.21,1.08-.38,1.62-.55.36-.12.72-.23,1.08-.36.18-.06.36-.13.54-.2.35-.14.7-.3,1.04-.49.11-.06.22-.1.33-.13.57-.17.95-.02.71-1.19-.35.11-.7.22-1.05.31-.05.02-.1.03-.14.03h0c-.2.06-.39.11-.59.15-.19.05-.39.09-.58.13-.52.11-1.03.2-1.53.26-2.4.31-4.7.14-7.04-.56-.64-.19-1.28-.42-1.93-.69-.33-.13-.65-.27-.98-.43-.09-.04-.17-.09-.24-.13-.04-.02-.07-.04-.09-.06-.07-.04-.12-.08-.15-.11-.09-.1-.08-.18-.02-.25.01-.02.03-.03.05-.05.03-.02.05-.03.08-.05.13-.07.32-.13.49-.2.07-.03.14-.06.2-.09.21-.09.34-.21.21-.39l-4.79-.54,1.86-2.66,6.12-5.85c-5.53.88-7.86,9.11-13.83,6.65l5.3-5.85s-.11-.01-.16-.01c-2.97,0-5.56,4.27-8.33,5.34-.23.09-.47.16-.71.22-.08.03-.17.05-.25.06-.09.03-.18.05-.27.06-.24.05-.49.09-.73.12-.21.03-.41.05-.62.08-.07.01-.14.02-.2.02-.21.03-.42.05-.63.07-.21.02-.42.05-.62.08-.14.02-.28.04-.41.06-.09.01-.18.03-.27.05-.58.1-1.14.25-1.66.49t-.02.01h0s2.65-3.46,2.65-3.46c-1.7-.7-4.68,3.27-5.87,3.74-.22.09-.44.1-.66.08-.13-.02-.26-.04-.38-.08-.06-.02-.13-.04-.2-.05-.13-.03-.25-.07-.37-.1t-.02,0c-.17-.03-.34-.05-.51-.03-.04,0-.07,0-.11.01-1.98.4-6.32,4.25-9.45,3.61l2.66-2.93c.08-.39-.56-.36-.79-.26-.6.28-1.79,1.3-2.96,2.22-.24.18-.47.37-.69.54-.46.35-.88.65-1.25.86-1.48.84-4.62,2.58-7.07,3.4-.19.06-.37.12-.54.17-.06.02-.13.04-.19.05-.05.02-.11.03-.16.04-.12.04-.24.06-.35.08-.09.02-.17.03-.25.04-.11.03-.22.04-.33.04-.1.02-.2.02-.3.02-.09,0-.17,0-.25-.01-.2-.02-.4-.07-.61-.15-.2-.07-.41-.16-.61-.26-.86-.4-1.78-.91-2.81-.66h-.01c.08-.1.16-.19.25-.27.12-.13.24-.24.37-.35.16-.14.33-.28.5-.4.19-.14.38-.27.59-.39.07-.05.14-.09.22-.14.13-.08.27-.15.4-.22,1.05-.58,2.21-1.07,3.17-1.51,5.69-2.62,12.31-5.29,18.59-7.64,1.05-.4,2.09-.78,3.11-1.15,1.02-.38,2.03-.74,3.02-1.09,10.02-3.58,35.77-11.59,44.82-5.16.25.18.48.36.69.56.11.1.21.21.31.31.06.06.11.11.16.17.09.1.17.2.25.3.14.17.26.36.38.54,1.5,2.35,1.44,5.49.1,7.93-5.45-2.99-11.25-3.11-17.29-2.12Z"/>
    <path class="cls-1" d="M258.41,318.84c-1.11,1.38-6.04,1.53-7.69,2.32l-.48-.43c.07-1.03-.65-1.87-.73-2.81-.06-.67.28-1.41.26-1.48,0-.03-.46,0-.61-.14-.32-.29-.74-3.05-.55-3.34l4.66-3.09.61.49c.16.56.3,3.66.62,3.79.45.18,3.45-1.46,4.34-1.36.8,1.52-3.39,2.28-3.27,2.85l2.78-.46.24.86-4.95,2.93c.11.51,4.55-1.39,4.8-1.37.53.02.15,1.02-.03,1.24Z"/>
    <path class="cls-1" d="M259.74,274.8l-.85,5.3c-4.01,6.07-11.62,7.04-17.75,9.73.63-1.86.92-3.97,1.64-5.79,1.07-2.72,3.63-7.05,6.01-8.75.38-.28,1.65-1.01,1.67-.08-2.2,2-3.91,4.47-5.69,6.82-.31.41-.14.35.25.56,1.14-1.47,2.35-2.84,3.67-4.16,1.06-1.06,3.16-3.48,4.64-3.04-1.33,1.22-2.93,2.5-4.02,3.93-.3.39-1.24,1.48-.4,1.67,1.35-1.86,3.75-4.05,5.89-4.99,1.61-.71,3.41-.27,4.94-1.2Z"/>
    <path class="cls-1" d="M260.13,290.28c.1.75.89,2.45.62,3-2.91,2.92-7.05,3.93-10.32,6.36-1.09-2.16-1.36-4.66-1.05-7.04.24-1.74.69-4.3,2.25-5.3,0,2.52-1.7,5.15-.69,7.6l1.08-5.45,1.99-3.44c.69.26.3.34.18.78-.42,1.56-1.24,3.05-1.54,4.65.87.15.85-1.38,1.22-2.11,1.26-2.49,2.86-4.52,4.48-6.74.73.11.39,2.26.78,2.23l1.79-1.04c-.64,2.02-1.07,4.38-.79,6.5Z"/>
    <path class="cls-1" d="M266.32,263.64l-5.12,2.22,3.46,1.71c-2.78,1.73-2.46,4.72-5.65,5.92-3.11,1.18-6,.01-9.08-.27-1.09-.1-2.25.19-3.31-.07,1-1.49,1.74-3.33,2.76-4.78.38-.54,3.51-3.92,3.89-4.05.62-.23,1.8,1.1,3.15-.55.42-.52.51-1.24.88-1.56.55-.47,4.4-.95,5.08-.71.45.16.31.56.07.64-.04.01-.4-.16-.67-.1-3.7.89-7.49,3.21-9.92,6.14l4.71-3.11c2.12-1.17,5.83-2.36,8.25-2.17.24.02,1.81.18,1.5.74Z"/>
    <path class="cls-1" d="M263.78,307.41l-3.83,2.17c2.63-.47,5.48-1.97,7.47-3.69.94,1.19-.94,2.47-1.89,3.13-2.82,1.97-6.5,2.13-9.67,3.23-1.02-2.91-3.53-10.31-1.75-13.02.3-.46,3.5-1.77,4.26-2.2.46-.27,2.87-2.1,3.03-2.01.22.94.55,1.85.76,2.8.1.49.09,2.78.63,2.73,1.37-1.19,3.39-1.24,5.05-1.81.57,1.78-1.1,3.02-2.25,4.21-1.26,1.31-2.77,2.37-3.97,3.74,2.24-.48,3.89-2.62,5.63-3.85.61-.43.43.94.32,1.24-.44,1.17-2.83,2.44-3.79,3.33Z"/>
    <path class="cls-1" d="M269.53,311.99l-.29.56-1.45,2.7-1.21,2.27-.66,1.24-.87,1.63c-1.22.53-2.54.91-3.69,1.12-.29.05-2.09.35-2.13.1,1.83-1.91.06-7.21,1.27-8.89.51-.7,6.21-1.87,6.84-3.61.9.6.41,1.93.18,2.77l2.01.11Z"/>
    <path class="cls-1" d="M272.9,272.04l2.11-.87c-.83,1.54-1.19,3.29-1.45,5-.16,1.04.27,2.01-.47,2.86-2.38,2.74-7.79,2.45-11.02,3.05-.74.13-1.16.45-1.68.61-.28.08-.27.11-.54-.13.84-5.06,1.8-10.87,6.25-14.16,1.15-.85,2.88,0,4.25.08-.44.64-1.22.75-1.83,1.23-1.78,1.4-3.9,3.67-5.08,5.59-.29.46-.71.81,0,1.04,2.78-3.71,7.2-8.24,12.19-7.77l-4.12,3.54,1.39-.07Z"/>
    <path class="cls-1" d="M274.9,294.21c-3.22,2.48-7.34,2.96-11.16,3.93-.92-3.88-2.53-7.42-1.95-11.5.14-.96.39-3.19,1.3-3.53,1.29-.47,4.25-.2,5.85-.62,1.35-.36,2.97-1.33,4.26-1.94l.6.35c-.31.97.82,2.71.64,3.48-.3,1.26-1.61,2.15-2.14,3.3.46.45.77-.05,1.12-.33.54-.42,1.02-.91,1.4-1.47,1.14.74-.59,2.28-1.18,2.93-1.25,1.35-2.84,2.45-4.48,3.28.35.31.66.09,1.04.01,1.99-.44,4.02-2.56,5.41-3.99.49.2.8.6.7,1.13-1.41,1.63-2.93,3.23-4.77,4.38-.42.26-3.44,1.5-3.38,1.74,3.24-.32,6.29-2.6,8.68-4.76,1.13,1.49-.8,2.72-1.94,3.61Z"/>
    <path class="cls-1" d="M278.31,295.54l-7.96,14.93c-.42.09-.84.17-1.27.23,1.07-4.07-.8-8.26.56-12.26,1.58-.75,3.21-.98,4.74-1.95,1.26-.8,2.15-1.95,3.41-2.67l.47,1.74.05-.02Z"/>
    <path class="cls-1" d="M279.36,260.06l-5.25.37c-2.82.26-5.09,2.7-7.86,1.5-1.85-.79-3.73-1.97-5.69-2.66,2.77-1.32,5.96-1.8,9.02-1.71,1.12.03,2.84.02,3.74.64-1.8.52-3.65.35-5.48.58-.29.04-.95.05-.27.39,3.95.69,8.15-1.43,11.79.89Z"/>
    <path class="cls-1" d="M283.03,262.91c-4.63,4.81-12.01,5.46-17.92,2.84,1.92-.97,3.85-2.21,5.87-2.97.64-.25,4.34-1.32,4.73-1.27.34.04.39.29.14.51l-3.19,1.43c-.25.23-.2.47.14.52.68.09,4.55-1.76,5.57-2.01,1.65-.41,2.76,0,4.35.45l.31.5Z"/>
    <path class="cls-1" d="M286.47,279.66c-.01.24-.03.48-.06.71l-6.77,12.69c-.1.06-.21.1-.31.15-.22-3.17-2.29-5.76-3.27-8.7-1.95-5.89-.98-11.35,2.08-16.7,1.74-.55,2.81-1.37,4.27-2.31.26-.17.13-.49.65-.05l-1.97,13.68c.36.28.52-.38.59-.63.55-2.03.16-4.64,1.78-6.3,1.27,3.98.81,8.13-.83,11.96.36.28.5-.38.66-.65,1.34-2.11,1.67-4.25,2.07-6.66,1.11.76,1.16,1.6,1.11,2.81Z"/>
    <path class="cls-1" d="M290.54,272.64l-2.65,4.96c-3.07-4.02-4.85-9.02-2.88-13.99.5.67,1.45,1.26,1.91,1.84,1.65,2.08,1.15,6.25,2.4,8.65l-.04-5.06c.28-.08.98,2.5,1.26,3.6Z"/>
    <path class="cls-1" d="M290.84,254.54c-2.17,2.21-3.71,4.65-5.15,7.39l-1.43-.81c.43-2.81,1.85-5.48,3.66-7.67l-1.13,3.49,2.28-3.43,1.77,1.03Z"/>
    <path class="cls-1" d="M292.33,269.28l-.91,1.71c-.09-.39-.18-.74-.29-1.03-.54-1.47-1.48-2.79-1.99-4.26,1.56.8,2.46,2.12,3.19,3.58Z"/>
    <text class="cls-2" transform="translate(11.99 380.46)"><tspan x="0" y="0">ZE</tspan><tspan class="cls-4" x="40.84" y="0">R</tspan><tspan x="62.96" y="0">O BUZZ BREW</tspan></text>
    <text class="cls-3" transform="translate(60.56 413.51)"><tspan x="0" y="0">A BUZZ WITHOUT THE BOOSE</tspan></text>
    <g>
      <path class="cls-1" d="M287.83,279.76l-2.23,5.97-1.68,1.84c1.13-2.37,2.21-4.61,2.49-7.2.03-.23.05-.47.06-.71.05-1.21,0-2.05-1.11-2.81-.4,2.41-.73,4.55-2.07,6.66-.16.27-.3.93-.66.65,1.64-3.83,2.1-7.98.83-11.96-1.62,1.66-1.23,4.27-1.78,6.3-.07.25-.23.91-.59.63l1.97-13.68c-.52-.44-.39-.12-.65.05-1.46.94-2.53,1.76-4.27,2.31-3.06,5.35-4.03,10.81-2.08,16.7.98,2.94,3.05,5.53,3.27,8.7.1-.05.21-.09.31-.15,3.18-1.52,6.2-4.64,7.65-7.8.57-1.25,1.95-4.65.54-5.5ZM276.85,280.82c-.79-1.95-.47-4.86.37-6.77.21-.46.24-.29.61-.06-1.02,2.16-.62,4.57-.98,6.83Z"/>
      <path class="cls-1" d="M274.9,294.21c-3.22,2.48-7.34,2.96-11.16,3.93-.92-3.88-2.53-7.42-1.95-11.5.14-.96.39-3.19,1.3-3.53,1.29-.47,4.25-.2,5.85-.62,1.35-.36,2.97-1.33,4.26-1.94l.6.35c-.31.97.82,2.71.64,3.48-.3,1.26-1.61,2.15-2.14,3.3.46.45.77-.05,1.12-.33.54-.42,1.02-.91,1.4-1.47,1.14.74-.59,2.28-1.18,2.93-1.25,1.35-2.84,2.45-4.48,3.28.35.31.66.09,1.04.01,1.99-.44,4.02-2.56,5.41-3.99.49.2.8.6.7,1.13-1.41,1.63-2.93,3.23-4.77,4.38-.42.26-3.44,1.5-3.38,1.74,3.24-.32,6.29-2.6,8.68-4.76,1.13,1.49-.8,2.72-1.94,3.61Z"/>
      <path class="cls-1" d="M263.78,307.41l-3.83,2.17c2.63-.47,5.48-1.97,7.47-3.69.94,1.19-.94,2.47-1.89,3.13-2.82,1.97-6.5,2.13-9.67,3.23-1.02-2.91-3.53-10.31-1.75-13.02.3-.46,3.5-1.77,4.26-2.2.46-.27,2.87-2.1,3.03-2.01.22.94.55,1.85.76,2.8.1.49.09,2.78.63,2.73,1.37-1.19,3.39-1.24,5.05-1.81.57,1.78-1.1,3.02-2.25,4.21-1.26,1.31-2.77,2.37-3.97,3.74,2.24-.48,3.89-2.62,5.63-3.85.61-.43.43.94.32,1.24-.44,1.17-2.83,2.44-3.79,3.33Z"/>
      <path class="cls-1" d="M271.51,272.11l4.12-3.54c-4.99-.47-9.41,4.06-12.19,7.77-.71-.23-.29-.58,0-1.04,1.18-1.92,3.3-4.19,5.08-5.59.61-.48,1.39-.59,1.83-1.23-1.37-.08-3.1-.93-4.25-.08-4.45,3.29-5.41,9.1-6.25,14.16.27.24.26.21.54.13.52-.16.94-.48,1.68-.61,3.23-.6,8.64-.31,11.02-3.05.74-.85.31-1.82.47-2.86.26-1.71.62-3.46,1.45-5l-2.11.87-1.39.07ZM264.42,279.27c2.41-.38,4.67-1.13,7-1.88-1.8,1.53-4.68,2.62-7,1.88Z"/>
      <path class="cls-1" d="M254.8,276c-2.14.94-4.54,3.13-5.89,4.99-.84-.19.1-1.28.4-1.67,1.09-1.43,2.69-2.71,4.02-3.93-1.48-.44-3.58,1.98-4.64,3.04-1.32,1.32-2.53,2.69-3.67,4.16-.39-.21-.56-.15-.25-.56,1.78-2.35,3.49-4.82,5.69-6.82-.02-.93-1.29-.2-1.67.08-2.38,1.7-4.94,6.03-6.01,8.75-.72,1.82-1.01,3.93-1.64,5.79,6.13-2.69,13.74-3.66,17.75-9.73l.85-5.3c-1.53.93-3.33.49-4.94,1.2ZM250.46,281.88c-.41-.16.08-.65.23-.91.68-1.16,1.77-2.36,3.19-2.44l-3.42,3.35Z"/>
      <path class="cls-1" d="M290.65,297.98c-.34.14-2.08,5.99-2.55,6.97-.31.63-.83,1.94-1.66,1.85,1.01-2.07,3.23-8.09,2.96-10.22-.04-.27-.38-.99-.74-.79-.12,1.83-.71,4.39-1.49,6.05-.15.33-.58,1.13-1.06.92.81-2.1,1.53-4.81,1.47-7.06-.06-1.9-.92-2.95-1.36-4.72-.09-.36.08-.81.07-.85l-.52-.12c-1.32,1.9-3.37,2.41-4.36,4.52-2.25,4.82-.31,10.95.61,15.8.09.48.07,3.25.57,3.14,3.58-3.45,7.77-8.38,8.5-13.45.12-.81.16-1.4-.44-2.04ZM284.9,301.77c-.7-.27-.29-.35-.17-.79.37-1.45.85-2.84,1.06-4.33.68,1.61.04,3.69-.89,5.12Z"/>
      <path class="cls-1" d="M296.45,281.3c-1.1-1.55.11,2.58.14,2.78.46,3.03.2,6.25-.83,9.14-.75-.26-.22-.4-.16-.79.7-4.71.45-10.27-2.86-13.98-.12.16-.2.33-.25.53-.23.85.74,5.18.48,5.22l-3.21-2.14c-.15,3.49-2.97,4.48-2.22,8.2.61,2.98,2.83,4.72,4.48,7.07.72,1.02,1.17,2.16,1.93,3.14l2.88-5c1.97-3.41,1.94-10.92-.38-14.17ZM293.21,293.53l.37-4.13c.12-.95-.47-2.38.06-3.03.05.34.31.62.4.93.5,1.82.11,4.59-.83,6.23Z"/>
      <path class="cls-1" d="M264.82,262.9c-2.42-.19-6.13,1-8.25,2.17l-4.71,3.11c2.43-2.93,6.22-5.25,9.92-6.14.27-.06.63.11.67.1.24-.08.38-.48-.07-.64-.68-.24-4.53.24-5.08.71-.37.32-.46,1.04-.88,1.56-1.35,1.65-2.53.32-3.15.55-.38.13-3.51,3.51-3.89,4.05-1.02,1.45-1.76,3.29-2.76,4.78,1.06.26,2.22-.03,3.31.07,3.08.28,5.97,1.45,9.08.27,3.19-1.2,2.87-4.19,5.65-5.92l-3.46-1.71,5.12-2.22c.31-.56-1.26-.72-1.5-.74ZM255.13,268.81c-.67.47-1.26,1.13-1.91,1.63-.45-.19.1-.53.27-.74,1.37-1.72,3.4-3.06,5.6-3.28-1.23.95-2.68,1.5-3.96,2.39Z"/>
      <path class="cls-1" d="M260.92,283.78l-1.79,1.04c-.39.03-.05-2.12-.78-2.23-1.62,2.22-3.22,4.25-4.48,6.74-.37.73-.35,2.26-1.22,2.11.3-1.6,1.12-3.09,1.54-4.65.12-.44.51-.52-.18-.78l-1.99,3.44-1.08,5.45c-1.01-2.45.7-5.08.69-7.6-1.56,1-2.01,3.56-2.25,5.3-.31,2.38-.04,4.88,1.05,7.04,3.27-2.43,7.41-3.44,10.32-6.36.27-.55-.52-2.25-.62-3-.28-2.12.15-4.48.79-6.5ZM255.89,290.95c-.37-1,.4-2.94,1.47-3.3.05,1.25-.95,2.23-1.47,3.3Z"/>
      <path class="cls-1" d="M277.48,303.85c.7-.92,1.18-2.25,1.86-3.22-.52-.42-.45-.15-.79.19-1.06,1.06-1.63,2.16-2.91,3.19-.31.25-.17.77-.77.26,2.49-2.65,3.96-5.8,5.03-9.24l-1.59.51-.05.02-.47-1.74c-1.26.72-2.15,1.87-3.41,2.67-1.53.97-3.16,1.2-4.74,1.95-1.36,4,.51,8.19-.56,12.26.43-.06.85-.14,1.27-.23,2.59-.61,5.05-1.9,6.95-3.77.86-.85,2.65-2.4,1.78-3.56-1.61,1.74-3.57,4.04-5.91,4.59,1.15-1.36,3.26-2.49,4.31-3.88ZM274.86,299.7c.17-.28,1.08-1.18,1.49-1.09-.7.83-1,2.76-2.23,2.86.44-.5.43-1.28.74-1.77Z"/>
      <path class="cls-1" d="M252.87,308.31c-2.09,2.25-5.51,2.78-7.19,5.47-.24.07-.92-1.78-1.02-2.07-.7-1.99-1.35-6.45-.37-8.36.24-.47.24-.71.76-.3-.38,1.88-.36,3.93.23,5.76.46-2.53.02-5.14,1.37-7.5.65-.21.21,2.02.22,2.29.02.77.01,1.74.3,2.45l1.53-6.22,1.14,1.83c.52.16,1.77-1.81,2.61-1.15-.87,2.59.26,5.2.42,7.8Z"/>
      <path class="cls-1" d="M269.67,314.3c-.69.12-1.29.53-1.88.95-.81.59-1.6,1.21-2.62,1.2l4.07-3.9.56-.54-.27-.02-2.01-.11c.23-.84.72-2.17-.18-2.77-.63,1.74-6.33,2.91-6.84,3.61-1.21,1.68.56,6.98-1.27,8.89.04.25,1.84-.05,2.13-.1,1.15-.21,2.47-.59,3.69-1.12.89-.37,1.73-.82,2.42-1.33.61-.45,2.33-1.61,1.71-2.37-1.06.69-2.11,1.49-3.26,2.07-.69.34-1.41.6-2.19.7.92-.67,1.91-1.27,2.85-1.94,1.24-.86,2.37-1.84,3.09-3.22ZM263.52,315.2c-.06-.3,2.16-1.82,2.74-1.68-.04.51-2.58,2.37-2.74,1.68Z"/>
      <path class="cls-1" d="M258.41,318.84c-1.11,1.38-6.04,1.53-7.69,2.32l-.48-.43c.07-1.03-.65-1.87-.73-2.81-.06-.67.28-1.41.26-1.48,0-.03-.46,0-.61-.14-.32-.29-.74-3.05-.55-3.34l4.66-3.09.61.49c.16.56.3,3.66.62,3.79.45.18,3.45-1.46,4.34-1.36.8,1.52-3.39,2.28-3.27,2.85l2.78-.46.24.86-4.95,2.93c.11.51,4.55-1.39,4.8-1.37.53.02.15,1.02-.03,1.24Z"/>
      <path class="cls-1" d="M248.92,288.4c-.58.25-1.78.51-2.18.97-1.55,1.8-3,5.44-3.85,7.69-.67-.16-.08-1.56.04-1.98.31-1.03,1.97-4.39,1.98-4.85.01-.65-.77-.11-.93.04-2.49,2.37-3,9.53-2.2,12.78.07.28.03.29.38.4,1.18-1.86,5.69-3.53,6.07-5.66.12-.66-.35-2.04-.36-2.91-.02-2.22.34-4.37,1.05-6.48ZM246.07,293.86c-.28.89-.64,1.81-1.08,2.64-.7-.25-.27-.37-.22-.78.16-1.2.45-1.86,1.35-2.71.36.13.04.57-.05.85Z"/>
      <path class="cls-1" d="M280.36,310.4c-1.4,1.65-2.5,3.48-4.14,4.92-.31.27-.17.75-.76.25,1.86-2.8,5.18-5.7,4.35-9.34-1.4,1.11-2.44,2.42-3.97,3.41-.76.49-3.99,1.71-4.24,2.06-1.18,2.49-.78,5.33-1.33,7.98.12.07,2.27-.77,2.57-.92,1.98-.99,5.08-3.23,6.34-5.04.61-.86,1.65-2.27,1.18-3.32ZM274.73,313.23c.47-.73,1.6-2.2,2.49-2.27l-2.02,2.99c-.35-.26-.82-.18-.47-.72Z"/>
      <path class="cls-1" d="M290.98,280.98c-1.1-1.02-2.16-2.15-3.09-3.38-3.07-4.02-4.85-9.02-2.88-13.99.5.67,1.45,1.26,1.91,1.84,1.65,2.08,1.15,6.25,2.4,8.65l-.04-5.06c.28-.08.98,2.5,1.26,3.6.06.22.09.38.11.45.22,1.04,1.02,7.6.33,7.89Z"/>
      <path class="cls-1" d="M283.03,262.91c-4.63,4.81-12.01,5.46-17.92,2.84,1.92-.97,3.85-2.21,5.87-2.97.64-.25,4.34-1.32,4.73-1.27.34.04.39.29.14.51l-3.19,1.43c-.25.23-.2.47.14.52.68.09,4.55-1.76,5.57-2.01,1.65-.41,2.76,0,4.35.45l.31.5Z"/>
      <path class="cls-1" d="M298.77,281.33c-1.54-1.58-4.73-2.82-5.95-4.5-.63-.87-.95-3.87-1.4-5.84-.09-.39-.18-.74-.29-1.03-.54-1.47-1.48-2.79-1.99-4.26,1.56.8,2.46,2.12,3.19,3.58,1,1.98,1.68,4.22,3.26,5.77-.32-1.57-1.3-2.95-1.76-4.5-.1-.35-.5-.59-.09-1.01,1.71,2.48,3.51,5.01,4.47,7.91.14.42,1.06,3.78.56,3.88Z"/>
      <path class="cls-1" d="M279.36,260.06l-5.25.37c-2.82.26-5.09,2.7-7.86,1.5-1.85-.79-3.73-1.97-5.69-2.66,2.77-1.32,5.96-1.8,9.02-1.71,1.12.03,2.84.02,3.74.64-1.8.52-3.65.35-5.48.58-.29.04-.95.05-.27.39,3.95.69,8.15-1.43,11.79.89Z"/>
      <path class="cls-1" d="M290.84,254.54c-2.17,2.21-3.71,4.65-5.15,7.39l-1.43-.81c.43-2.81,1.85-5.48,3.66-7.67l-1.13,3.49,2.28-3.43,1.77,1.03Z"/>
    </g>
    <g>
      <path class="cls-1" d="M50.15,270.37c-.79-1.11-3.04-4.01-4.48-3.22l4.05,4.92.75,2.38c-1.62-2.36-3.13-4.6-5.58-6.16-1.01-.65-1.77-1.03-2.98-.45,1.88,1.55,3.57,2.91,4.74,5.12.14.27.64.73.22.9-2.49-3.33-5.86-5.81-9.94-6.7.63,2.24,3.08,3.2,4.57,4.69.18.18.67.65.24.82l-10.86-8.54c-.64.23-.29.28-.28.59.09,1.73.26,3.07-.13,4.85,3.1,5.33,7.35,8.9,13.42,10.15,3.04.63,6.32.13,9.17,1.52.38-3.58-.83-7.94-2.91-10.87ZM35.42,273.49c-.31-.41-.14-.35.24-.57,1.37,1.97,3.65,2.83,5.43,4.28-2.09-.3-4.44-2.03-5.67-3.71Z"/>
      <path class="cls-1" d="M49.53,297.2c-3.82-1.13-7.69-1.51-10.92-4.05-.77-.6-2.58-1.93-2.42-2.9.24-1.35,1.96-3.78,2.39-5.37.37-1.35.34-3.24.46-4.66l.59-.34c.69.75,2.76.63,3.34,1.18.94.89,1.06,2.47,1.79,3.5.62-.17.34-.69.27-1.14-.1-.67-.28-1.33-.57-1.94,1.21-.61,1.68,1.66,1.94,2.49.54,1.76.71,3.69.6,5.51.45-.14.42-.52.53-.89.62-1.94-.2-4.75-.75-6.68.42-.33.92-.39,1.34-.04.7,2.04,1.33,4.16,1.4,6.32.02.5-.42,3.73-.18,3.8,1.34-2.97.89-6.75.21-9.9,1.86-.24,1.96,2.06,2.16,3.49.54,4.03-1.11,7.84-2.18,11.62Z"/>
      <path class="cls-1" d="M57.82,311.08c-3.03-.56-10.7-2.09-12.16-4.98-.25-.49.22-3.93.22-4.8,0-.53-.38-3.53-.22-3.62.92.27,1.88.45,2.8.74.49.15,2.46,1.31,2.69.82-.35-1.79.61-3.56.95-5.29,1.83.41,2.07,2.47,2.53,4.06.5,1.75.67,3.59,1.25,5.31.7-2.17-.33-4.68-.52-6.81-.07-.74,1.03.11,1.23.35.79.97.7,3.67,1,4.95l-.04,4.4c.9-2.51,1.03-5.73.54-8.31,1.5-.22,1.66,2.04,1.76,3.2.29,3.42-1.4,6.7-2.03,9.98Z"/>
      <path class="cls-1" d="M37.66,279.55c-.37-1.06-1.41-1.17-2.24-1.84-1.35-1.07-2.69-2.26-3.6-3.75l-.31,2.27-.63,1.23-1.01-5.33c-2.89,4.08-1.19,10.17.64,14.44-.56.5-.65-.04-.91-.52-1.07-1.99-1.98-4.96-2.29-7.19-.11-.77.18-1.51-.16-2.2-.75,1.14-2.35,2.21-2.19,3.63.62,5.5,5.18,9.25,9.14,12.5.34-.12.31-.12.38-.41.12-.53.06-1.05.31-1.75,1.1-3.11,4.05-7.64,2.87-11.08ZM33.53,287.19c.88-2.28,1.36-4.62,1.88-7.01.42,2.33-.08,5.36-1.88,7.01Z"/>
      <path class="cls-1" d="M31.48,292.39l-4.16-3.38c0,.09,0,.18-.01.27-.08,1.65-1.24,2.94-1.42,4.6-.26,2.32.44,5.49,1.37,7.6-.58.63-1.05-.74-1.24-1.18-.69-1.67-1-3.69-1.39-5.45-1.12,1.06-.08,4.09.31,5.53.48,1.81,1.06,3.54,1.77,5.27-.38.23-.41.4-.61-.07-1.15-2.72-2.43-5.43-3.06-8.33-.82-.45-.82,1.01-.77,1.48.28,2.91,2.76,7.29,4.57,9.58,1.22,1.54,2.9,2.85,4.2,4.32.47-4.16,1.8-8.5,1.92-12.76.09-2.54-.26-5.05-1.48-7.48ZM28.14,299.93c-.67-1.17-1.16-2.71-.52-3.99l1.2,4.64c-.35.27-.53-.39-.68-.65Z"/>
      <path class="cls-1" d="M64.84,274.46c-.64-.5-1.14-.83-1.99-.64-.05.37,4.15,4.8,4.76,5.7.4.58,1.27,1.68.78,2.36-1.29-1.91-5.4-6.84-7.38-7.67-.25-.1-1.04-.17-1.06.24,1.53,1.02,3.46,2.82,4.5,4.31.21.31.7,1.08.27,1.38-1.41-1.75-3.4-3.72-5.38-4.79-1.67-.91-3.01-.69-4.76-1.19-.36-.11-.67-.48-.71-.48l-.36.38c.99,2.1.4,4.13,1.74,6.04,3.05,4.36,9.32,5.74,13.99,7.37.45.16,2.84,1.57,2.99,1.08-1.19-4.82-3.37-10.93-7.39-14.09ZM62.49,280.45c-1.07-1.04-2.03-2.16-3.22-3.08,1.74.21,3.21,1.8,3.99,3.32-.58.48-.45.08-.77-.24Z"/>
      <path class="cls-1" d="M63.77,267.22c-1.97-3.42-8.49-7.14-12.46-6.76-1.9.18,2.28,1.2,2.47,1.27,2.86,1.11,5.52,2.95,7.51,5.29-.61.52-.46-.02-.77-.26-3.73-2.96-8.67-5.52-13.54-4.52.08.19.19.34.34.49.62.63,4.85,1.95,4.76,2.2l-3.46,1.7c2.95,1.88,2.39,4.81,5.99,6.02,2.89.97,5.5-.08,8.36-.34,1.24-.12,2.46.07,3.69-.1l-2.89-4.99ZM56.88,266.99c-.76-.57-2.29-.78-2.58-1.56.31.13.68.04,1,.12,1.82.47,4.03,2.2,4.98,3.83l-3.4-2.39Z"/>
      <path class="cls-1" d="M23.77,282.64c-.14-.46-.24-.95-.26-1.51l-.4.27-2.8,1.87.64-5.55c-.34-.55-1.26.74-1.39.94-1.38,2-2.21,5.81-2.25,8.22l.34,5.63c-1.33-3.57-1.44-8-.36-11.65.08-.27.41-.49.42-.54.05-.25-.22-.56-.59-.25-.54.46-2.05,4.04-1.92,4.75.09.48.67.92.91,1.54.76,2-.99,2.35-1.1,3.01-.07.39,1.29,4.79,1.56,5.39.74,1.61,1.97,3.17,2.76,4.78.76-.8,1.09-1.93,1.72-2.83,1.78-2.53,4.24-4.45,4.78-7.73.46-2.8-1.36-4.1-2.06-6.34ZM19.78,291.86c-.8-2.04-.95-4.47-.04-6.48.21,1.53-.05,3.06.09,4.62.07.81.34,1.66.45,2.47-.39.29-.4-.35-.5-.61Z"/>
      <path class="cls-1" d="M43.83,297.37c-.34-.51-2.21-.68-2.9-.97-1.98-.81-3.81-2.36-5.24-3.93v2.06c-.16.36-1.86-1.01-2.32-.43,1.11,2.52,2.08,4.92,3.6,7.25.45.68,1.78,1.44,1.22,2.11-1.24-1.05-2.12-2.52-3.26-3.65-.32-.33-.19-.71-.77-.24l1.99,3.44,4.18,3.66c-2.53-.33-3.94-2.93-6-4.25-.08-.05-.16-.1-.24-.15.06,1.21.93,2.35,1.91,3.28.52.5,1.08.94,1.56,1.32,1.9,1.47,4.2,2.48,6.62,2.62-.47-4.05.73-8.14-.35-12.12ZM37.26,297.49c1.11.58,1.46,1.93,2.12,2.91-1.05-.17-2.35-1.81-2.12-2.91Z"/>
      <path class="cls-1" d="M63.73,289.74c-.31-1.16-.75-3.49-2.19-3.31.7,2.25,1.71,5.11,1.02,7.41-.6-1.68-.53-4.07-1.21-5.67-.45-1.07-1.36-2.15-1.86-3.23-.63.24-.35.32-.23.78.39,1.45,1.05,2.5,1.31,4.12.06.39.58.53-.16.79-1.05-3.47-3.04-6.33-5.49-8.97l-.36,1.68-1.74-.46c-.01,1.45.54,2.8.6,4.29.08,1.81-.54,3.34-.68,5.08,2.79,3.17,7.35,3.65,10.35,6.61,1.14-2.85,1.42-6.12.64-9.12ZM57.61,289.88c-.21-.62-.9-1.01-1.17-1.53-.15-.28-.48-1.52-.19-1.83.37,1.02,1.88,2.25,1.36,3.36Z"/>
      <path class="cls-1" d="M54.05,320.67c-.06.25-2.01-.1-2.31-.15-2.06-.39-6.26-2.06-7.42-3.86-.29-.45-.49-.57.13-.81,1.43,1.27,3.22,2.28,5.1,2.68-1.97-1.67-4.45-2.59-5.81-4.94.13-.67,1.85.83,2.09.96.68.36,1.51.86,2.27.96l-4.63-4.43,2.17-.07c.4-.37-.69-2.44.3-2.84,1.81,2.05,4.63,2.37,6.96,3.54.92,2.93-.34,6.16,1.15,8.96Z"/>
      <path class="cls-1" d="M69.52,304.44c-.08-.75-.23-2.83-1.2-2.67.11,2.02.49,4.17-.32,6.11-.27-2.61-.04-5.4-1.51-7.72-.56,1.56.51,3.46-.38,4.96l-1.53-6.23-1.26,1.91c-.61-.62-1.52-1.7-2.49-1.22,1.2,1.41-.64,6.94-.29,7.72.85,1.9,6.32,3.01,7.06,5.55.25.09.89-1.62.99-1.9.68-1.9,1.15-4.5.93-6.51ZM64.2,305.92c-.29-.08-.5-2.78-.08-3.21.42.3.76,3.42.08,3.21Z"/>
      <path class="cls-1" d="M62.96,319.99l-.61.2c-.86-.57-1.95-.36-2.8-.77-.61-.28-1.08-.94-1.16-.96-.03,0-.22.39-.42.46-.41.13-3.01-.89-3.16-1.2l-.35-5.58.73-.28c.57.14,3.32,1.57,3.59,1.35.38-.3.46-3.71.99-4.43,1.72.06.28,4.07.83,4.26l1-2.65.86.23.07,5.75c.49.16,1.07-4.63,1.2-4.84.29-.45.96.38,1.07.65.64,1.65-1.7,5.99-1.84,7.81Z"/>
      <path class="cls-1" d="M41.48,310.47c-.52-.44-1.94-.72-2.7-1.15-.39-.22-.77-.45-1.14-.69-1.47-.97-2.78-2.13-3.95-3.46-.08.63-.45,1.8-.25,2.37.78,2.25,3.21,5.32,4.73,7.19-.46.49-1.39-.71-1.69-1.04-.74-.78-2.82-3.89-3.21-4.13-.55-.34-.48.61-.43.83.81,3.34,6.75,7.35,9.96,8.29.12.03.18.06.24.06.08.01.15-.04.31-.18-1.03-1.96-.21-6.7-1.87-8.09ZM37.96,312.43c-.97-.75-1.39-1.32-1.68-2.53.3-.25.52.26.71.47.64.69,1.25,1.46,1.75,2.26-.57.48-.46.05-.78-.2Z"/>
      <path class="cls-1" d="M70.75,291.62c-.45-.95-1.14-2.55-2.28-2.67.72,2.03,1.76,3.9,2.18,6.04.08.41.57.52-.16.79-1.5-3.02-2.35-7.35-5.91-8.44.25,1.76.88,3.32.96,5.14.05.9-.51,4.31-.33,4.7,1.56,2.27,4.22,3.34,6.24,5.14.12-.06.47-2.35.49-2.68.13-2.22-.26-6.02-1.19-8.02ZM68.1,295.24c-.39-.78-1.11-2.49-.72-3.3l1.57,3.24c-.39.18-.57.63-.85.06Z"/>
      <path class="cls-1" d="M48.29,265.04c-6.12,1.91-13.7,1.95-18.02-3.51.82-.1,1.81-.63,2.54-.74,2.63-.39,5.99,2.13,8.7,2.25l-4.4-2.5c.07-.34,3.77.7,4.19.84,1,.33,7.09,2.92,6.99,3.66Z"/>
      <path class="cls-1" d="M22.24,279.77s-.05.03-.07.05c0-.06.01-.11.01-.17.1-2.09.01-4.33.35-6.39.11-.68,1.03-4.42,1.27-4.74.2-.27.44-.19.51.14l-.35,3.48c.07.33.3.41.51.13.41-.53.75-4.81,1.04-5.82.47-1.64,1.38-2.39,2.57-3.55h.59c1.84,6.37-1.25,13.06-6.43,16.87Z"/>
      <path class="cls-1" d="M52.5,258.47c-2.15.54-4.82,2.68-6.88,2.9-1.28.14-4.98-1.65-6.8-1.97-1.54-.27-3.15-.11-4.68-.4,3.5-2.25,7.63.12,11.32-.92-1.52-.51-3.2-.35-4.78-.73-.35-.09-.75.14-.91-.42,3-.24,6.09-.54,9.08.08.44.09,3.81.97,3.65,1.46Z"/>
      <path class="cls-1" d="M24.36,264.64l-2.3,4.73c-1.02,2.21-.44,4.87-1.79,6.71-.22.31-.5.59-.84.85-1.61,1.21-3.57,2.24-5.15,3.6.24-3.06,1.43-6.07,3.03-8.67.12-.19.24-.39.38-.61.55-.89,1.25-1.93,2.04-2.31-.3,1.22-.89,2.31-1.45,3.41-.28.53-.55,1.07-.78,1.63-.11.27-.44.85.2.42.36-.42.67-.88.95-1.36,1.76-2.96,2.42-6.69,5.71-8.4Z"/>
      <path class="cls-1" d="M29.15,260.1l-1.41.83c-2.22-1.78-3.82-4.34-4.82-7.01l2.45,2.73-1.82-3.69,1.78-1.02c.83,2.98,2.17,5.54,3.82,8.16Z"/>
    </g>
  </g>
  <g>
    <path class="cls-1" d="M23.83,114.28c-3.8-1.59-8.51-2.77-12.51-4.07-.09-.03-.6-1.54-1.33-.75,3.71,10.81,9.36,24.78,20.99,29.17,6.34,2.4,10.91.6,17.6,4.34.7.39,1.06.36.99-.51-.14-1.82-2.96-8-4.02-9.82-4.46-7.72-13.53-14.94-21.72-18.36ZM26.59,66.12c-5.23,10.89-8.51,23.51-2.78,34.88,3.25,6.45,9.19,9.15,14.86,13.07.37-4.08,2.21-7.78,3.02-11.74,2.95-14.45-7.22-25.52-15.1-36.21ZM67.48,170.59c-5.45-19.07-25.19-25.69-43.15-27.84,4.87,9.68,12.78,22.57,24.11,25.44,6.11,1.55,13.51-1.85,19.04,2.41ZM60.08,92.72c-2.2,4.31-6.28,7.71-8.29,12.15-5.5,12.15-3.98,24.53,5.98,33.63-1.01-6.83,4.56-10.95,6.61-16.43,3.18-8.51-.25-20.04-3.24-28.21-.21-.58.35-1.04-1.06-1.14ZM87.72,195.4c-3.92-10.51-14.37-17.95-25.03-20.69-6.66-1.72-13.64-.98-20.36-2.21,6.47,10.08,14.78,20.55,27.41,22.58,5.59.9,12.23-2.79,17.97.32ZM71.24,118.36c-10.16,15.45-12.06,34.34,3.75,46.49-1.09-7.19,3.54-12.32,4.88-18.86,1.53-7.46-2.53-16.22-5.48-22.84l-3.15-4.8ZM109.46,219.44c-4.74-11.18-15.96-17.82-27.69-19.4-6.27-.84-12.54.49-18.8-.09l10.83,11.8c4.91,4,10.15,7.24,16.6,8.02,6.3.76,12.75-3.69,19.06-.32ZM85.99,142.65c-1.12,4.91-3.55,9.51-4.62,14.45-2.53,11.64,2.53,26.33,13.48,31.81-.05-2.75-.46-5.08.13-7.89.71-3.39,2.51-6.71,3.05-10.1,1.06-6.58-3.47-16.15-7-21.59l-5.04-6.68ZM104.14,166.15c-.98,5.16-2.93,10.09-3.54,15.33-1.49,12.68,4.66,25.36,16,31.48-2.47-6.2,1.28-12.14,1.89-18.28.99-9.86-8.31-21.49-14.35-28.52ZM85.67,224.93c-.72,1.24-.11.97.32,1.51,5.52,6.82,15.65,14.68,24.31,16.54,7.05,1.52,14.14-3.41,21.28-.63-5.03-11.04-15.75-16.92-27.55-18.19-6.17-.67-12.22,1.02-18.36.77ZM124.37,189.08c-.83,5.11-2.32,10.16-2.66,15.35-.81,12.64,5.43,25.74,17,31.44-2.41-5.45.35-10.42,1.22-15.57,1.99-11.83-8.04-23.26-15.57-31.22Z"/>
    <path class="cls-1" d="M194.02,307.48c5.93,8.79,11.37,18.86,12.91,29.48l-2.56.73c-.46-4.34-2.33-8.52-3.44-12.73-2.47-9.42-29.72-43.95-29.72-43.95l-2.94-3.49c-37.19-44.18-82.54-81.74-113-131.33-4.77-7.76-12.11-20.03-14.99-28.43-.27-.8-.71-1.37-.17-2.28.85-.48,1.07-.87,1.91-.03,1.78,1.8,4.19,9.27,5.54,11.89,29.29,56.84,79.21,98.16,120.56,145.75"/>
    <path class="cls-1" d="M26.59,66.12c7.87,10.69,18.05,21.76,15.1,36.21-.81,3.96-2.65,7.65-3.02,11.74-5.67-3.92-11.61-6.62-14.86-13.07-5.73-11.36-2.45-23.98,2.78-34.88Z"/>
    <path class="cls-1" d="M23.83,114.28c8.19,3.42,17.26,10.64,21.72,18.36,1.06,1.82,3.88,8,4.02,9.82.07.87-.29.9-.99.51-6.68-3.74-11.26-1.94-17.6-4.34-11.62-4.4-17.28-18.36-20.99-29.17.72-.79,1.23.72,1.33.75,4,1.3,8.72,2.48,12.51,4.07Z"/>
    <path class="cls-1" d="M67.48,170.59c-5.53-4.26-12.93-.86-19.04-2.41-11.33-2.86-19.24-15.76-24.11-25.44,17.95,2.16,37.7,8.78,43.15,27.84Z"/>
    <path class="cls-1" d="M87.72,195.4c-5.74-3.11-12.38.58-17.97-.32-12.63-2.04-20.94-12.5-27.41-22.58,6.72,1.23,13.7.5,20.36,2.21,10.66,2.75,21.11,10.19,25.03,20.69Z"/>
    <path class="cls-1" d="M109.46,219.44c-6.31-3.36-12.76,1.09-19.06.32-6.44-.78-11.69-4.02-16.6-8.02l-10.83-11.8c6.26.58,12.53-.75,18.8.09,11.73,1.58,22.95,8.22,27.69,19.4Z"/>
    <path class="cls-1" d="M85.67,224.93c6.14.24,12.19-1.44,18.36-.77,11.79,1.27,22.52,7.15,27.55,18.19-7.14-2.78-14.23,2.15-21.28.63-8.65-1.86-18.79-9.72-24.31-16.54-.43-.54-1.04-.27-.32-1.51Z"/>
    <path class="cls-1" d="M124.37,189.08c7.53,7.96,17.56,19.39,15.57,31.22-.87,5.14-3.63,10.11-1.22,15.57-11.58-5.7-17.82-18.8-17-31.44.33-5.19,1.83-10.24,2.66-15.35Z"/>
    <path class="cls-1" d="M104.14,166.15c6.04,7.03,15.33,18.66,14.35,28.52-.61,6.14-4.36,12.08-1.89,18.28-11.33-6.11-17.49-18.79-16-31.48.62-5.24,2.56-10.17,3.54-15.33Z"/>
    <path class="cls-1" d="M85.99,142.65l5.04,6.68c3.53,5.44,8.06,15.01,7,21.59-.55,3.39-2.34,6.71-3.05,10.1-.59,2.81-.18,5.15-.13,7.89-10.95-5.48-16.02-20.17-13.48-31.81,1.08-4.94,3.5-9.55,4.62-14.45Z"/>
    <path class="cls-1" d="M71.24,118.36l3.15,4.8c2.95,6.62,7.01,15.38,5.48,22.84-1.34,6.54-5.97,11.66-4.88,18.86-15.81-12.15-13.91-31.05-3.75-46.49Z"/>
    <path class="cls-1" d="M60.08,92.72c1.42.1.85.56,1.06,1.14,2.99,8.18,6.42,19.71,3.24,28.21-2.05,5.48-7.62,9.6-6.61,16.43-9.96-9.1-11.48-21.48-5.98-33.63,2.01-4.44,6.09-7.84,8.29-12.15Z"/>
  </g>
  <g>
    <path class="cls-1" d="M267.75,132.64c-1.06,1.82-3.88,8-4.02,9.82-.07.87.29.9.99.51,6.68-3.74,11.26-1.94,17.6-4.34,11.62-4.4,17.28-18.36,20.99-29.17-.72-.79-1.23.72-1.33.75-4,1.3-8.72,2.48-12.51,4.07-8.19,3.42-17.26,10.64-21.72,18.36ZM271.61,102.33c.81,3.96,2.65,7.65,3.02,11.74,5.67-3.92,11.61-6.62,14.86-13.07,5.73-11.36,2.45-23.98-2.78-34.88-7.87,10.69-18.05,21.76-15.1,36.21ZM264.86,168.18c11.33-2.86,19.24-15.76,24.11-25.44-17.95,2.16-37.7,8.78-43.15,27.84,5.53-4.26,12.93-.86,19.04-2.41ZM252.15,93.86c-2.99,8.18-6.42,19.71-3.24,28.21,2.05,5.48,7.62,9.6,6.61,16.43,9.96-9.1,11.48-21.48,5.98-33.63-2.01-4.44-6.09-7.84-8.29-12.15-1.42.1-.85.56-1.06,1.14ZM243.55,195.08c12.63-2.04,20.94-12.5,27.41-22.58-6.72,1.23-13.7.5-20.36,2.21-10.66,2.75-21.11,10.19-25.03,20.69,5.74-3.11,12.38.58,17.97-.32ZM238.9,123.16c-2.95,6.62-7.01,15.38-5.48,22.84,1.34,6.54,5.97,11.66,4.88,18.86,15.81-12.15,13.91-31.05,3.75-46.49l-3.15,4.8ZM222.9,219.77c6.44-.78,11.69-4.02,16.6-8.02l10.83-11.8c-6.26.58-12.53-.75-18.8.09-11.73,1.58-22.95,8.22-27.69,19.4,6.31-3.36,12.76,1.09,19.06.32ZM222.27,149.33c-3.53,5.44-8.06,15.01-7,21.59.55,3.39,2.34,6.71,3.05,10.1.59,2.81.18,5.15.13,7.89,10.95-5.48,16.02-20.17,13.48-31.81-1.08-4.94-3.5-9.55-4.62-14.45l-5.04,6.68ZM194.81,194.67c.61,6.14,4.36,12.08,1.89,18.28,11.33-6.11,17.49-18.79,16-31.48-.62-5.24-2.56-10.17-3.54-15.33-6.04,7.03-15.33,18.66-14.35,28.52ZM209.27,224.16c-11.79,1.27-22.52,7.15-27.55,18.19,7.14-2.78,14.23,2.15,21.28.63,8.65-1.86,18.79-9.72,24.31-16.54.43-.54,1.04-.27.32-1.51-6.14.24-12.19-1.44-18.36-.77ZM173.37,220.3c.87,5.14,3.63,10.11,1.22,15.57,11.58-5.7,17.82-18.8,17-31.44-.33-5.19-1.83-10.24-2.66-15.35-7.53,7.96-17.56,19.39-15.57,31.22Z"/>
    <path class="cls-1" d="M119.28,307.48c-5.93,8.79-11.37,18.86-12.91,29.48l2.56.73c.46-4.34,2.33-8.52,3.44-12.73,2.47-9.42,29.72-43.95,29.72-43.95l2.94-3.49c37.19-44.18,82.54-81.74,113-131.33,4.77-7.76,12.11-20.03,14.99-28.43.27-.8.71-1.37.17-2.28-.85-.48-1.07-.87-1.91-.03-1.78,1.8-4.19,9.27-5.54,11.89-29.29,56.84-79.21,98.16-120.56,145.75"/>
    <path class="cls-1" d="M286.71,66.12c-7.87,10.69-18.05,21.76-15.1,36.21.81,3.96,2.65,7.65,3.02,11.74,5.67-3.92,11.61-6.62,14.86-13.07,5.73-11.36,2.45-23.98-2.78-34.88Z"/>
    <path class="cls-1" d="M289.47,114.28c-8.19,3.42-17.26,10.64-21.72,18.36-1.06,1.82-3.88,8-4.02,9.82-.07.87.29.9.99.51,6.68-3.74,11.26-1.94,17.6-4.34,11.62-4.4,17.28-18.36,20.99-29.17-.72-.79-1.23.72-1.33.75-4,1.3-8.72,2.48-12.51,4.07Z"/>
    <path class="cls-1" d="M245.82,170.59c5.53-4.26,12.93-.86,19.04-2.41,11.33-2.86,19.24-15.76,24.11-25.44-17.95,2.16-37.7,8.78-43.15,27.84Z"/>
    <path class="cls-1" d="M225.58,195.4c5.74-3.11,12.38.58,17.97-.32,12.63-2.04,20.94-12.5,27.41-22.58-6.72,1.23-13.7.5-20.36,2.21-10.66,2.75-21.11,10.19-25.03,20.69Z"/>
    <path class="cls-1" d="M203.84,219.44c6.31-3.36,12.76,1.09,19.06.32,6.44-.78,11.69-4.02,16.6-8.02l10.83-11.8c-6.26.58-12.53-.75-18.8.09-11.73,1.58-22.95,8.22-27.69,19.4Z"/>
    <path class="cls-1" d="M227.63,224.93c-6.14.24-12.19-1.44-18.36-.77-11.79,1.27-22.52,7.15-27.55,18.19,7.14-2.78,14.23,2.15,21.28.63,8.65-1.86,18.79-9.72,24.31-16.54.43-.54,1.04-.27.32-1.51Z"/>
    <path class="cls-1" d="M188.93,189.08c-7.53,7.96-17.56,19.39-15.57,31.22.87,5.14,3.63,10.11,1.22,15.57,11.58-5.7,17.82-18.8,17-31.44-.33-5.19-1.83-10.24-2.66-15.35Z"/>
    <path class="cls-1" d="M209.16,166.15c-6.04,7.03-15.33,18.66-14.35,28.52.61,6.14,4.36,12.08,1.89,18.28,11.33-6.11,17.49-18.79,16-31.48-.62-5.24-2.56-10.17-3.54-15.33Z"/>
    <path class="cls-1" d="M227.31,142.65l-5.04,6.68c-3.53,5.44-8.06,15.01-7,21.59.55,3.39,2.34,6.71,3.05,10.1.59,2.81.18,5.15.13,7.89,10.95-5.48,16.02-20.17,13.48-31.81-1.08-4.94-3.5-9.55-4.62-14.45Z"/>
    <path class="cls-1" d="M242.06,118.36l-3.15,4.8c-2.95,6.62-7.01,15.38-5.48,22.84,1.34,6.54,5.97,11.66,4.88,18.86,15.81-12.15,13.91-31.05,3.75-46.49Z"/>
    <path class="cls-1" d="M253.22,92.72c-1.42.1-.85.56-1.06,1.14-2.99,8.18-6.42,19.71-3.24,28.21,2.05,5.48,7.62,9.6,6.61,16.43,9.96-9.1,11.48-21.48,5.98-33.63-2.01-4.44-6.09-7.84-8.29-12.15Z"/>
  </g>
</svg>