<?xml version="1.0" encoding="UTF-8"?>
<svg id="Layer_1" xmlns="http://www.w3.org/2000/svg" version="1.1" viewBox="0 0 113.4 113.4">
  <!-- Generator: Adobe Illustrator 29.2.1, SVG Export Plug-In . SVG Version: 2.1.0 Build 116)  -->
  <defs>
    <style>
      .st0 {
        fill: #2a3782;
      }
    </style>
  </defs>
  <path class="st0" d="M7.8,0h97.5c3.9.2,7.2,2.7,7.9,6.6.2,33.3.3,66.7,0,100-.8,3.9-4,6.4-7.9,6.7H8.2c-4-.2-7.2-2.8-8-6.7C0,73.4,0,40,.2,6.7.9,3,4.1.3,7.8,0ZM24.8,15.5c-13,.4-12.2,20.6,1.2,19.7,12.5-.9,11.8-20.1-1.2-19.7ZM96.8,96.7v-29.7c-.2-8-.7-18.1-8.1-22.9-4.5-2.9-11.7-3.6-16.9-2.5s-9.2,4-11.4,8.3c0,0-.2-.1-.2-.2v-7.3h-16.1v54.2h16.8v-27.3c.1-6.2,1.6-12.8,9-13.3s9.5,4.4,9.9,11.1v29.6s17,0,17,0ZM33.7,42.4h-16.9v54.2h16.9v-54.2Z"/>
</svg>