<?xml version="1.0" encoding="UTF-8"?>
<svg id="Layer_1" xmlns="http://www.w3.org/2000/svg" version="1.1" viewBox="0 0 595.3 841.9">
  <!-- Generator: Adobe Illustrator 29.2.1, SVG Export Plug-In . SVG Version: 2.1.0 Build 116)  -->
  <defs>
    <style>
      .st0 {
        fill: #3c56a6;
      }
    </style>
  </defs>
  <path class="st0" d="M42,186.9c3.3-7.5,9.6-12.5,18.3-10.8,15.2,9.3,37.6,16,51.7,26.3,9.4,6.9,8.6,31.6,11,42.7l2,1.2,415.3,59.8c7.2.7,11.1,5.6,13.8,11.7v7l-48.3,180.2c-3.5,8.6-9.5,10.2-18.2,10.8H162c0,0-5.8,41.2-5.8,41.2,3.4,4.4,8.2,6.9,11.8,11.3s7.9,14.1,9.5,15.5,1.1,1,2,1h225.8c14.2-33,53.7-48,85.6-29.4,42.6,24.8,38.7,88-7,106.9-37,15.3-76.4-8.8-82.4-47.5l-2-1h-215.1s-3,.9-3,.9c-6.4,49.7-69.2,70.7-103.5,32.6-36.1-40.2-4.5-103.9,48.9-99.7l7.9-48.1-44.7-275-40.3-20.9c-3.9-2.7-5.7-5.7-7.7-9.8v-7ZM203.9,288l-74.9-11.1,7.1,48.9,70.9,7.1-3.1-44.9ZM307,302.9l-72.5-11,2.5,42.5.9,2.1,69.1,7.4v-41ZM337,306.9v40l74,7c-.9-4.7,5.3-34.7,4-36l-78-11ZM520,332.9l-74.3-10.1-5.7,35.1,71.4,6.9,1.4-1.6,7.2-30.3ZM209.9,364l-67.9-7.1,7,49,64,4-3.1-45.9ZM307,373.9l-67-7,3,44,64,4v-41ZM337,376.9v38.5l65,4.5c-.5-4.7,5.4-34.6,4-36l-69-7ZM504,393.9l-68-7-4,35,63.4,2.9,1.4-1.6,7.2-29.3ZM219,485.9l-3.9-46.6-60.1-3.4c0,1.8,0,3.6.1,5.4,1,10.6,4.1,32.3,6.9,42.1s.4,1.9,1.5,2.5h55.5ZM307,444.9l-61-4,3,45h58v-41ZM337,445.9v40h56l5-36-61-4ZM423,485.9h57l8-31-59.4-3.9-1.4,1.5-4.1,33.3ZM143.6,628.5c29.9-29.9-20.5-73.4-45.6-39.1-21.5,29.3,19.7,65.1,45.6,39.1ZM482.6,586.2c-24.9-26.2-68.2,8.5-45.6,39.1,24.3,33.1,75-8.3,45.6-39.1Z"/>
</svg>