<?xml version="1.0" encoding="UTF-8"?>
<svg id="Layer_1" xmlns="http://www.w3.org/2000/svg" version="1.1" viewBox="0 0 113.4 113.4">
  <!-- Generator: Adobe Illustrator 29.2.1, SVG Export Plug-In . SVG Version: 2.1.0 Build 116)  -->
  <defs>
    <style>
      .st0 {
        fill: #2d3483;
      }
    </style>
  </defs>
  <path class="st0" d="M113.5,25.9c-.7-16.6-9.1-24.3-25.5-24.9-20.9-.8-42.3.5-63.2,0C8.5,1.8.8,10.1.2,26.2v62.7c.6,16.5,8.9,24.5,25.3,25.1h63.1c16.4-.7,24.4-9,25-25.3V25.9ZM85.8,51.2c-3-.5-6-1.2-8.7-2.5-1.6-.7-3-1.8-4.6-2.5v27c0,3.7-3.4,9.7-5.9,12.4-12,13-34.5,6.9-38.2-10.4-3.2-15.2,9.4-29.2,25-26.8v12.1c-4.9-1.3-10.5,1-12.5,5.7-4,9.5,6.9,18,15.2,12.2,1.9-1.3,4.2-4.8,4.2-7.1V22.5h8.8c.7,1.4,1,3,1.7,4.5,2.6,5.4,8.8,9.6,15,9.3v14.8Z"/>
  <path class="st0" d="M113.5,25.9c-.7-16.6-9.1-24.3-25.5-24.9-20.9-.8-42.3.5-63.2,0C8.5,1.8.8,10.1.2,26.2v62.7c.6,16.5,8.9,24.5,25.3,25.1h63.1c16.4-.7,24.4-9,25-25.3V25.9ZM85.8,51.2c-3-.5-6-1.2-8.7-2.5-1.6-.7-3-1.8-4.6-2.5v27c0,3.7-3.4,9.7-5.9,12.4-12,13-34.5,6.9-38.2-10.4-3.2-15.2,9.4-29.2,25-26.8v12.1c-4.9-1.3-10.5,1-12.5,5.7-4,9.5,6.9,18,15.2,12.2,1.9-1.3,4.2-4.8,4.2-7.1V22.5h8.8c.7,1.4,1,3,1.7,4.5,2.6,5.4,8.8,9.6,15,9.3v14.8Z"/>
</svg>